<svg viewBox="0 0 16 16" xmlns="http://www.w3.org/2000/svg">
<g>
<rect fill="#006EDC"/>
<path d="M5.29364 12.9559H3.23602V6.36219H5.29364V12.9559ZM10.5251 6.19812C12.6065 6.19819 12.9909 7.56377 12.9909 9.33972V12.9559H10.9352V9.57703C10.9282 8.8448 10.8443 8.00187 9.86786 8.00183C8.79792 8.00183 8.63446 8.83483 8.63446 9.69519V12.9559H6.58172V6.36219H8.55243V7.26355H8.58075C8.85425 6.74501 9.52515 6.19812 10.5251 6.19812ZM4.26434 3.08386C4.92148 3.08386 5.45575 3.61634 5.45575 4.27234C5.45568 4.92902 4.92144 5.46179 4.26434 5.46179C3.60437 5.46175 3.07202 4.92899 3.07196 4.27234C3.07196 3.61637 3.60433 3.08391 4.26434 3.08386Z" fill="currentColor"/>
</g>
</svg>
