<svg viewBox="0 0 12.0312 13.75" xmlns="http://www.w3.org/2000/svg">
<path d="M10.4758 0V4.16625H12.0313V10.0948H10.3497V13.75L6.31813 10.2014V13.7219H5.69307V10.1973L1.65688 13.75V10.0461H0V4.11813H1.65229V0L5.69307 3.72052V0.108854H6.31755V3.82708L10.4758 0ZM6.31813 5.18146V9.37464L9.72469 12.3733V8.27292L6.31813 5.18146ZM5.68849 5.13563L2.28193 8.22823V12.3733L5.68849 9.37464V5.1362V5.13563ZM10.3497 9.47833H11.4062V4.78328H6.85208L10.3497 7.95724V9.47833ZM5.2038 4.73458H0.624479V9.42964H1.65573V7.9538L5.20323 4.73401L5.2038 4.73458ZM2.27734 1.41854V4.11698H5.20781L2.27734 1.41854ZM9.85073 1.41854L6.92026 4.11698H9.85073V1.41854Z" fill="currentColor"/>
</svg>
