<svg viewBox="0 0 9.625 11" xmlns="http://www.w3.org/2000/svg">
<path d="M8.38063 0V3.333H9.625V8.07583H8.27979V11L5.0545 8.16108V10.9775H4.55446V8.15788L1.3255 11V8.03688H0V3.2945H1.32183V0L4.55446 2.97642V0.0870833H5.05404V3.06167L8.38063 0ZM5.0545 4.14517V7.49971L7.77975 9.89863V6.61833L5.0545 4.14517ZM4.55079 4.1085L1.82554 6.58258V9.89863L4.55079 7.49971V4.10896V4.1085ZM8.27979 7.58267H9.12496V3.82663H5.48167L8.27979 6.36579V7.58267ZM4.16304 3.78767H0.499583V7.54371H1.32458V6.36304L4.16258 3.78721L4.16304 3.78767ZM1.82187 1.13483V3.29358H4.16625L1.82187 1.13483ZM7.88058 1.13483L5.53621 3.29358H7.88058V1.13483Z" fill="currentColor"/>
</svg>
