<svg viewBox="0 0 12.0003 8.90255" xmlns="http://www.w3.org/2000/svg">
<g>
<g>
<path fill-rule="evenodd" clip-rule="evenodd" d="M4.45313 6.4926C4.02651 7.08985 3.17238 7.9122 2.35818 7.9122C1.81175 7.9122 1.55487 7.57455 1.55487 7.29861C1.55487 6.92465 1.87075 6.67323 2.68222 6.15131C4.29337 5.11202 5.54599 4.40041 5.54599 3.02437C5.54599 1.59115 4.00382 1.07832 3.55088 0H3.52547C2.52066 1.455 0.766998 1.74546 0.0526461 1.09919L0 1.13732C0.0880459 1.79266 0.483799 2.96356 1.43597 2.96356C2.30826 2.96356 3.46284 1.80446 4.17174 1.50946C4.2725 1.46589 4.36599 1.49222 4.43588 1.57572C4.52393 1.68737 4.58111 1.86255 4.58111 2.14302C4.58111 4.07728 0.570937 4.62823 0.570937 6.17491C0.570937 6.53889 0.904967 7.19514 1.37334 7.77151C1.9833 8.52397 2.60507 8.85981 3.27858 8.85981C4.32242 8.85981 4.84434 8.07831 5.28094 8.07831C5.46339 8.07831 5.58411 8.1491 5.69757 8.30341L5.80831 8.20992C5.55053 7.93762 5.25825 7.62447 4.99865 7.28954L4.95962 7.26412C4.52937 7.10165 4.58111 6.68321 4.45313 6.49532" fill="currentColor"/>
</g>
<g>
<path fill-rule="evenodd" clip-rule="evenodd" d="M4.31548 2.11575C4.31548 3.8367 0.255379 4.37132 0.255379 6.17668L0.21181 6.17124C-0.0786512 4.14712 3.91155 3.62612 4.27009 2.10304L4.31548 2.11575Z" fill="currentColor"/>
</g>
<g>
<path fill-rule="evenodd" clip-rule="evenodd" d="M4.55002 6.4128C4.5364 6.6488 4.60357 6.89296 4.78057 7.08085C4.9848 7.29778 5.27889 7.39491 5.7645 7.39491C6.66584 7.39491 8.25339 6.71778 9.6476 6.71778C10.8603 6.71778 11.689 7.90048 12.0003 8.52859L11.8687 8.90255L11.8469 8.89801C11.7761 8.37882 11.3241 7.73619 10.3329 7.73619C9.38982 7.73619 7.52996 8.4587 6.56055 8.4587C5.15726 8.4587 4.48557 7.453 4.36303 6.6134L4.52732 6.39011L4.55002 6.4128Z" fill="currentColor"/>
</g>
<path fill-rule="evenodd" clip-rule="evenodd" d="M9.10708 6.94299H9.40752V0.883349H9.10708V6.94299Z" fill="currentColor"/>
<g>
<path fill-rule="evenodd" clip-rule="evenodd" d="M6.93569 6.88945L7.08909 6.79686C6.44373 6.31943 5.9327 5.42083 5.9327 4.3053C5.9327 2.44729 7.01376 0.905148 8.75561 0.905148C9.76133 0.905148 10.3913 1.42071 10.7026 1.92628L10.7208 1.92084L10.7543 1.4788C10.2651 1.03858 9.21581 0.263422 7.89875 0.263422C5.85191 0.263422 4.61019 1.66669 4.61019 3.5129C4.61019 5.23748 5.80834 6.30763 6.93569 6.88945Z" fill="currentColor"/>
</g>
<g>
<path fill-rule="evenodd" clip-rule="evenodd" d="M8.58742 6.95654L7.81406 6.53084C7.33753 6.26943 7.23677 5.98987 7.23677 5.46069C7.23677 4.98416 7.3702 4.17724 7.3702 3.5337C7.3702 2.87382 7.23496 2.66868 6.674 2.43087L6.7684 2.25478C7.13783 2.4227 7.7714 2.74039 8.18531 3.00362C8.52569 3.22055 8.58197 3.34036 8.58197 3.68256V5.76658C8.58197 6.44461 8.59831 6.65338 8.7272 6.8331L8.58742 6.95654Z" fill="currentColor"/>
</g>
</g>
</svg>
