<svg viewBox="0 0 11 11" xmlns="http://www.w3.org/2000/svg">
<g>
<path d="M11 5.5C11 8.53813 8.53917 11 5.5023 11C2.46083 11.0046 0 8.54274 0 5.5C0 2.46186 2.46083 0 5.4977 0C8.53917 0 11 2.46186 11 5.5Z" fill="currentColor"/>
<path d="M9.10275 5.49121C9.10275 7.47822 7.48984 9.09179 5.50367 9.09179C3.51749 9.09179 1.90459 7.47822 1.90459 5.49121C1.90459 3.5042 3.51749 1.89062 5.50367 1.89062C7.48984 1.89062 9.10275 3.49959 9.10275 5.49121Z" fill="currentColor"/>
<path d="M7.30284 5.5283C7.30284 6.52411 6.49639 7.33551 5.49639 7.33551C4.501 7.33551 3.68994 6.52872 3.68994 5.5283C3.68994 4.53249 4.49639 3.72109 5.49639 3.72109C6.49639 3.72109 7.30284 4.52788 7.30284 5.5283Z" fill="currentColor"/>
</g>
</svg>
