<svg viewBox="0 0 12 9.75181" xmlns="http://www.w3.org/2000/svg">
<g>
<path d="M8.75247 0.825138C8.47981 2.05213 8.36753 2.62152 8.14298 3.50368C7.92645 4.35375 7.75804 5.14769 7.46934 5.53263C7.18063 5.92559 6.78767 6.00579 6.52303 6.03786C6.3867 6.0539 6.28244 6.06192 5.98572 6.06192C5.68899 6.06192 5.58474 6.0539 5.4484 6.03786C5.18376 6.00579 4.7908 5.92559 4.50209 5.53263C4.21339 5.14769 4.04498 4.35375 3.83647 3.50368C3.61192 2.6135 3.49965 2.05213 3.22698 0.825138C3.22698 0.825138 2.95432 0.833157 2.83402 0.841177C2.66561 0.849196 2.5373 0.865235 2.40096 0.881275C2.40096 0.881275 2.56136 3.40744 2.63353 4.48207C2.70571 5.60481 2.84204 7.50545 2.96234 8.94095C2.96234 8.94095 3.1949 8.98105 3.57984 8.99709C3.98082 9.02115 4.16527 9.02115 4.16527 9.02115C4.33368 8.3876 4.53417 7.51347 4.76674 7.13655C4.95921 6.8318 5.24792 6.79972 5.41633 6.77567C5.67295 6.74359 5.8975 6.73557 5.99374 6.73557C6.09799 6.73557 6.31452 6.73557 6.57115 6.77567C6.73956 6.79972 7.02826 6.8318 7.22073 7.13655C7.4533 7.51347 7.66181 8.3876 7.8222 9.02115C7.8222 9.02115 7.99863 9.02115 8.39961 8.99709C8.78455 8.97303 9.01712 8.94095 9.01712 8.94095C9.13741 7.50545 9.27374 5.61283 9.34592 4.48207C9.4181 3.41546 9.57849 0.881275 9.57849 0.881275C9.44216 0.865235 9.30582 0.849196 9.14543 0.841177C9.02514 0.833157 8.75247 0.825138 8.75247 0.825138Z" fill="currentColor"/>
<path d="M11.9358 2.31766C11.7755 0.713742 10.7008 0.37692 9.76254 0.216529C9.28938 0.136333 8.44733 0.0721761 7.91001 0.0481175C7.43686 0.0160391 6.33016 0 5.99333 0C5.65651 0 4.54981 0.0160392 4.07666 0.0481175C3.53934 0.0721761 2.69729 0.136333 2.22413 0.216529C1.28584 0.37692 0.211218 0.713742 0.0508266 2.31766C0.0027093 2.75873 -0.00531024 3.32813 0.00270926 3.93761C0.0187482 4.9561 0.106964 5.63776 0.155081 6.11894C0.18716 6.44774 0.323492 7.42613 0.499923 7.93136C0.74051 8.62907 0.957039 8.82956 1.21367 9.03806C1.6788 9.41498 2.44868 9.53528 2.60907 9.56736C3.47519 9.71973 5.22346 9.75181 6.00135 9.75181C6.77123 9.75181 8.52752 9.72775 9.39364 9.56736C9.55403 9.53528 10.3239 9.423 10.789 9.03806C11.0457 8.82956 11.2622 8.62907 11.5028 7.93136C11.6792 7.42613 11.8155 6.43972 11.8476 6.11894C11.8957 5.64578 11.984 4.9561 12 3.93761C11.992 3.32011 11.9759 2.75072 11.9358 2.31766ZM11.3424 5.01224C11.2462 6.29537 11.1339 7.06525 10.9735 7.6186C10.8291 8.10779 10.6527 8.42858 10.3961 8.66114C9.96303 9.0541 9.36958 9.1343 9.01672 9.19044C8.26287 9.30271 6.98776 9.34281 5.99333 9.34281C4.99089 9.34281 3.72379 9.30271 2.96995 9.19044C2.61709 9.1343 2.02364 9.0541 1.59058 8.66114C1.33396 8.42858 1.15753 8.09977 1.01318 7.6186C0.852784 7.06525 0.73249 6.29537 0.644275 5.01224C0.588138 4.24236 0.596157 2.9913 0.684373 2.31766C0.804667 1.30719 1.30188 0.801958 2.36849 0.617508C2.8657 0.529292 3.53934 0.465135 4.17289 0.433057C4.68614 0.400979 5.52018 0.38494 5.99333 0.38494C6.45847 0.37692 7.30053 0.400979 7.80576 0.433057C8.43931 0.465135 9.11295 0.529292 9.61017 0.617508C10.6768 0.809977 11.174 1.31521 11.3023 2.31766C11.3905 2.98328 11.3985 4.23434 11.3424 5.01224Z" fill="currentColor"/>
</g>
</svg>
