<svg viewBox="0 0 12 12.6969" xmlns="http://www.w3.org/2000/svg">
<g>
<path d="M12 6C12 2.68629 9.31371 0 6 0C2.68629 0 0 2.68629 0 6C0 9.31371 2.68629 12 6 12C9.31371 12 12 9.31371 12 6Z" fill="currentColor"/>
<path d="M0 6C0 2.68629 2.68629 0 6 0C9.31371 0 12 2.68629 12 6C12 9.31371 9.31371 12 6 12C2.68629 12 0 9.31371 0 6Z" fill="url(#paint0_radial_87743_36112)"/>
<g filter="url(#filter0_di_87743_36112)">
<path d="M4.89981 6.94488L5.28776 6.8553C5.29592 6.85341 5.30938 6.85032 5.32586 6.84501C5.4329 6.81624 5.52458 6.74706 5.58165 6.65205C5.63869 6.55704 5.65664 6.4436 5.6317 6.33565C5.63117 6.33328 5.63064 6.33104 5.6301 6.32866C5.61733 6.27693 5.59496 6.22802 5.56418 6.18453C5.52066 6.12941 5.46685 6.08333 5.4057 6.0488C5.3337 6.00778 5.25837 5.97296 5.1805 5.94466L4.75498 5.78952C4.51621 5.70085 4.27741 5.61442 4.0364 5.53013C3.8801 5.47458 3.74765 5.42584 3.63258 5.39029C3.61088 5.3836 3.5869 5.37693 3.56744 5.37021C3.42832 5.32762 3.33058 5.30997 3.24789 5.30938C3.19264 5.30736 3.13762 5.31738 3.08666 5.33877C3.03354 5.36168 2.98584 5.39552 2.94666 5.43808C2.9272 5.46021 2.90888 5.48336 2.89181 5.50738C2.87578 5.53189 2.86112 5.55722 2.84781 5.58328C2.83317 5.61125 2.82058 5.64024 2.81018 5.67005C2.73136 5.9032 2.69216 6.14792 2.69424 6.39402C2.69578 6.61653 2.70192 6.9021 2.82445 7.09568C2.854 7.14536 2.8936 7.18829 2.94074 7.22173C3.028 7.28189 3.11613 7.28981 3.20781 7.2964C3.34485 7.30624 3.47757 7.27258 3.60986 7.24205L4.89872 6.9445L4.89981 6.94488Z" fill="currentColor"/>
<path d="M9.22766 4.88643C9.12161 4.66432 8.97905 4.46157 8.80595 4.28656C8.78358 4.26435 8.75961 4.24379 8.73422 4.22507C8.71078 4.20749 8.68643 4.19117 8.66129 4.17616C8.63542 4.162 8.60881 4.14923 8.58158 4.13789C8.52777 4.1168 8.47011 4.10731 8.41235 4.11C8.35713 4.11312 8.30326 4.12824 8.25446 4.15429C8.18049 4.19104 8.10046 4.25011 7.99403 4.34901C7.97934 4.3636 7.96083 4.38008 7.94425 4.3956C7.85643 4.47813 7.75875 4.57987 7.64251 4.69835C7.46294 4.87973 7.28611 5.06213 7.11035 5.24651L6.7959 5.57248C6.7383 5.63203 6.68587 5.69637 6.63915 5.76477C6.59937 5.82261 6.57123 5.88763 6.55633 5.95621C6.54769 6.00883 6.54899 6.06259 6.56017 6.11469C6.5607 6.11707 6.56121 6.11931 6.56177 6.12168C6.58667 6.22965 6.65254 6.32373 6.74547 6.38411C6.83838 6.44451 6.95113 6.46648 7.05995 6.44541C7.07718 6.44293 7.09059 6.43997 7.0987 6.43797L8.77609 6.05072C8.9083 6.02019 9.04243 5.99221 9.16118 5.92333C9.24081 5.87717 9.31657 5.83144 9.36849 5.73915C9.39622 5.68843 9.41302 5.63248 9.41774 5.57488C9.44334 5.34648 9.32382 5.08709 9.22766 4.88643Z" fill="currentColor"/>
<path d="M6.226 5.59096C6.34744 5.43843 6.34701 5.21104 6.35778 5.02517C6.394 4.40413 6.43218 3.78298 6.46234 3.1616C6.47386 2.92624 6.49912 2.69405 6.48496 2.45691C6.4733 2.26127 6.47176 2.03664 6.348 1.87609C6.12957 1.59297 5.66418 1.61625 5.34664 1.66018C5.24938 1.67367 5.15192 1.69181 5.05528 1.71499C4.95864 1.73818 4.86298 1.7635 4.76938 1.79345C4.46472 1.89317 4.03645 2.07621 3.9641 2.42695C3.92333 2.62524 4.02034 2.82808 4.09562 3.00904C4.18688 3.22837 4.31146 3.42597 4.42501 3.63245C4.72522 4.17757 5.03101 4.71928 5.33592 5.26157C5.42696 5.42346 5.52624 5.6285 5.70229 5.71237C5.71392 5.71744 5.72581 5.72194 5.73789 5.72581C5.81682 5.75568 5.90285 5.76141 5.98506 5.74232C5.99002 5.74117 5.99488 5.74005 5.99973 5.73893C6.07565 5.71832 6.14437 5.67706 6.19826 5.61978C6.208 5.61066 6.21725 5.60104 6.226 5.59096Z" fill="currentColor"/>
<path d="M6.08017 7.25344C6.03267 7.18675 5.96531 7.13677 5.88771 7.11067C5.81009 7.08453 5.72622 7.08363 5.64806 7.10805C5.62969 7.11413 5.61179 7.12155 5.59451 7.13024C5.56779 7.14384 5.54227 7.15973 5.5183 7.17771C5.44841 7.22947 5.38958 7.29669 5.33603 7.36411C5.32243 7.38131 5.31003 7.40421 5.29387 7.41891L5.02427 7.78965C4.87147 7.99739 4.72075 8.2056 4.57131 8.41715C4.47382 8.55371 4.38947 8.66904 4.32286 8.77109C4.31025 8.79032 4.29713 8.81176 4.28515 8.82885C4.20531 8.95237 4.16011 9.04248 4.13691 9.12277C4.1195 9.17613 4.11401 9.23264 4.12083 9.28835C4.1283 9.34637 4.14787 9.40216 4.17833 9.45213C4.19451 9.4772 4.21195 9.50141 4.23059 9.52472C4.24995 9.54715 4.27051 9.56851 4.29219 9.58869C4.31531 9.61075 4.34009 9.63104 4.36622 9.64941C4.55254 9.77883 4.75646 9.87181 4.97097 9.94371C5.14945 10.0029 5.33497 10.0383 5.52273 10.049C5.55465 10.0506 5.58667 10.0499 5.61851 10.0469C5.64803 10.0444 5.67737 10.0402 5.70646 10.0346C5.73553 10.0278 5.76419 10.0195 5.79235 10.0097C5.84718 9.98917 5.89707 9.95744 5.93886 9.91645C5.97841 9.87688 6.00881 9.82915 6.02801 9.77661C6.05915 9.69893 6.07961 9.60035 6.09299 9.45395C6.09417 9.43312 6.09713 9.40816 6.09918 9.38528C6.10977 9.26381 6.11457 9.12115 6.12227 8.95341C6.13534 8.69541 6.14553 8.43856 6.15355 8.18099L6.17062 7.72296C6.17454 7.61749 6.17121 7.50059 6.14187 7.39557C6.12897 7.3452 6.10814 7.29723 6.08017 7.25344Z" fill="currentColor"/>
<path d="M9.12646 7.96867C9.07011 7.90699 8.9903 7.84547 8.86438 7.76947C8.84622 7.75933 8.82494 7.74581 8.80526 7.73405C8.70043 7.67109 8.57419 7.60488 8.4267 7.52488C8.20011 7.40064 7.97337 7.27955 7.74451 7.15947L7.34011 6.94531C7.31915 6.93917 7.29785 6.92405 7.27809 6.91453C7.20041 6.87744 7.11806 6.8428 7.03257 6.82693C7.00313 6.82128 6.97323 6.81816 6.94323 6.81768C6.9239 6.81744 6.90457 6.81861 6.88539 6.8212C6.80459 6.83371 6.72977 6.87139 6.67166 6.92891C6.61353 6.9864 6.57502 7.0608 6.56166 7.14144C6.55553 7.19275 6.55745 7.24469 6.56731 7.29541C6.58715 7.40288 6.63523 7.50917 6.68499 7.60227L6.9011 8.00645C7.02137 8.23443 7.14307 8.46107 7.26782 8.68699C7.3483 8.83437 7.41529 8.96048 7.47803 9.06501C7.48993 9.08469 7.50339 9.10584 7.51358 9.12405C7.58993 9.24973 7.65126 9.32883 7.71345 9.38555C7.75371 9.42437 7.80198 9.45395 7.85486 9.47219C7.91046 9.49059 7.96929 9.49709 8.02755 9.49133C8.05718 9.48781 8.08659 9.48272 8.11569 9.47608C8.14435 9.4684 8.17257 9.45923 8.20027 9.44859C8.23017 9.43733 8.25921 9.42395 8.28715 9.40848C8.45121 9.31656 8.60243 9.20341 8.73691 9.07195C8.89819 8.91333 9.0407 8.74035 9.15155 8.54232C9.16694 8.51432 9.1803 8.48523 9.19147 8.45528C9.20193 8.42757 9.21094 8.39936 9.21854 8.37072C9.22507 8.34163 9.23009 8.31221 9.23355 8.28259C9.23905 8.22443 9.23225 8.16576 9.21361 8.1104C9.19529 8.05736 9.16553 8.00896 9.12646 7.96867Z" fill="currentColor"/>
</g>
</g>
<defs>
<filter x="0.576519" y="0.0454723" filterUnits="userSpaceOnUse" color-interpolation-filters="sRGB">
<feFlood flood-opacity="0" result="BackgroundImageFix"/>
<feColorMatrix in="SourceAlpha" type="matrix" values="0 0 0 0 0 0 0 0 0 0 0 0 0 0 0 0 0 0 127 0" result="hardAlpha"/>
<feOffset dy="0.529412"/>
<feGaussianBlur stdDeviation="1.05882"/>
<feColorMatrix type="matrix" values="0 0 0 0 0.804167 0 0 0 0 0 0 0 0 0 0 0 0 0 0.55 0"/>
<feBlend mode="normal" in2="BackgroundImageFix" result="effect1_dropShadow_87743_36112"/>
<feBlend mode="normal" in="SourceGraphic" in2="effect1_dropShadow_87743_36112" result="shape"/>
<feColorMatrix in="SourceAlpha" type="matrix" values="0 0 0 0 0 0 0 0 0 0 0 0 0 0 0 0 0 0 127 0" result="hardAlpha"/>
<feOffset dy="0.688235"/>
<feGaussianBlur stdDeviation="0.661765"/>
<feComposite in2="hardAlpha" operator="arithmetic" k2="-1" k3="1"/>
<feColorMatrix type="matrix" values="0 0 0 0 1 0 0 0 0 0 0 0 0 0 0.18 0 0 0 0.25 0"/>
<feBlend mode="normal" in2="shape" result="effect2_innerShadow_87743_36112"/>
</filter>
<radialGradient cx="0" cy="0" r="1" gradientUnits="userSpaceOnUse" gradientTransform="translate(6 -1.39765) rotate(90) scale(14.3294)">
<stop stop-color="#FF78A1"/>
<stop offset="0.512574" stop-color="#FE375C"/>
<stop offset="1" stop-color="#FF0000"/>
</radialGradient>
</defs>
</svg>
