<svg viewBox="0 0 6.66683 9.99999" xmlns="http://www.w3.org/2000/svg">
<g>
<path d="M1.66682 9.99999C2.58682 9.99999 3.33349 9.25332 3.33349 8.33332V6.66666H1.66682C0.746819 6.66666 0.000152588 7.41332 0.000152588 8.33332C0.000152588 9.25332 0.746819 9.99999 1.66682 9.99999Z" fill="currentColor"/>
<path d="M0.000152588 5.00001C0.000152588 4.08001 0.746819 3.33334 1.66682 3.33334H3.33349V6.66668H1.66682C0.746819 6.66668 0.000152588 5.92001 0.000152588 5.00001Z" fill="currentColor"/>
<path d="M0 1.66667C0 0.746667 0.746667 0 1.66667 0H3.33333V3.33333H1.66667C0.746667 3.33333 0 2.58667 0 1.66667Z" fill="currentColor"/>
<path d="M3.3335 0H5.00016C5.92016 0 6.66683 0.746667 6.66683 1.66667C6.66683 2.58667 5.92016 3.33333 5.00016 3.33333H3.3335V0Z" fill="currentColor"/>
<path d="M6.66683 5.00001C6.66683 5.92001 5.92016 6.66668 5.00016 6.66668C4.08016 6.66668 3.3335 5.92001 3.3335 5.00001C3.3335 4.08001 4.08016 3.33334 5.00016 3.33334C5.92016 3.33334 6.66683 4.08001 6.66683 5.00001Z" fill="currentColor"/>
</g>
</svg>
