<svg viewBox="0 0 16 16" xmlns="http://www.w3.org/2000/svg">
<path d="M12.1482 3H3.76798V3.41754L4.20794 3.45929C4.54315 3.52192 4.77361 3.64718 4.92026 3.83507C5.06692 4.04384 5.15072 4.37787 5.17167 4.83716C5.33927 7.09186 5.33927 9.20042 5.17167 11.142C5.12977 11.6013 5.04596 11.9353 4.92026 12.144C4.77361 12.3528 4.54315 12.4781 4.20794 12.5198L3.76798 12.5825V13H9.17323V12.5825L8.60757 12.5407C8.27236 12.499 8.0419 12.3528 7.89525 12.1649C7.74859 11.9562 7.66479 11.6221 7.64384 11.1628C7.58099 10.3278 7.53909 9.36743 7.53909 8.30271L8.67042 8.32359C9.27798 8.34447 9.697 8.80376 9.9065 9.72234H10.3255V6.31942H9.9065C9.697 7.21712 9.29894 7.67641 8.67042 7.69729L7.53909 7.71816C7.53909 5.83925 7.58099 4.50313 7.64384 3.68894H9.29894C10.4722 3.68894 11.2683 4.4405 11.7292 5.94363L12.232 5.79749L12.1482 3Z" fill="currentColor"/>
</svg>
