<svg viewBox="0 0 12 12.0073" xmlns="http://www.w3.org/2000/svg">
<path d="M2.35397 7.98487L4.71524 6.66L4.75495 6.54494L4.71524 6.48092H4.60018L4.20555 6.45661L2.85637 6.42015L1.68627 6.37153L0.552637 6.31076L0.267405 6.24998L0 5.89749L0.0275511 5.72166L0.267405 5.5604L0.61098 5.59038L1.37025 5.64225L2.50956 5.72085L3.33608 5.76947L4.56047 5.89668H4.75495L4.7825 5.81808L4.71605 5.76947L4.66419 5.72085L3.48518 4.92187L2.20893 4.07752L1.54041 3.59133L1.17901 3.34499L0.996691 3.11405L0.918091 2.61004L1.24627 2.24863L1.68708 2.27861L1.79972 2.3086L2.2462 2.65217L3.19995 3.39037L4.44541 4.30765L4.62773 4.45918L4.70066 4.40732L4.70957 4.37086L4.62773 4.23391L3.9503 3.00952L3.2275 1.76406L2.9058 1.24789L2.82072 0.938348C2.79074 0.811129 2.76886 0.704167 2.76886 0.573705L3.14241 0.0664467L3.34904 0L3.84739 0.0664467L4.05726 0.248768L4.3668 0.956985L4.86839 2.07198L5.6463 3.58809L5.874 4.03781L5.99554 4.45432L6.04092 4.58154H6.11952V4.50861L6.18354 3.65453L6.30184 2.60598L6.41691 1.2568L6.45661 0.876765L6.64461 0.421365L7.01817 0.175029L7.30988 0.314404L7.54973 0.657978L7.51651 0.880005L7.3739 1.80701L7.09433 3.2591L6.91201 4.23148H7.01817L7.13971 4.10993L7.63158 3.45682L8.4581 2.42366L8.82274 2.01364L9.24816 1.56067L9.52124 1.34513H10.0374L10.4174 1.90992L10.2473 2.49335L9.71571 3.16753L9.2749 3.73881L8.64285 4.58964L8.24823 5.27031L8.28469 5.3246L8.37869 5.31569L9.80647 5.01182L10.5779 4.87244L11.4984 4.71443L11.9149 4.90891L11.9603 5.10662L11.7966 5.51097L10.8121 5.75407L9.65737 5.98501L7.93788 6.39179L7.91681 6.40719L7.94112 6.43717L8.71578 6.5101L9.0472 6.52792H9.85833L11.3688 6.64056L11.7634 6.90148L12 7.22075L11.9603 7.46384L11.3526 7.77338L10.5325 7.5789L8.61854 7.12351L7.96219 6.95982H7.87143V7.01411L8.41839 7.54892L9.42076 8.45405L10.6759 9.62091L10.74 9.90938L10.5787 10.1371L10.4085 10.1128L9.30569 9.283L8.88028 8.90945L7.91681 8.09832H7.85279V8.1834L8.07482 8.50834L9.24735 10.2708L9.30812 10.8113L9.22304 10.9871L8.91917 11.0933L8.58532 11.0325L7.89898 10.069L7.19076 8.984L6.61949 8.01161L6.5498 8.05132L6.21271 11.6824L6.0547 11.8679L5.69005 12.0073L5.38618 11.7764L5.22493 11.4028L5.38618 10.6646L5.58066 9.70113L5.73867 8.93538L5.88129 7.98406L5.96637 7.66804L5.9607 7.64697L5.89101 7.65589L5.17388 8.64042L4.08319 10.1144L3.2202 11.0382L3.01357 11.12L2.65541 10.9344L2.68864 10.603L2.88878 10.3081L4.08319 8.78871L4.80357 7.84712L5.26869 7.3034L5.26545 7.2248H5.2379L2.0655 9.28462L1.50071 9.35755L1.25761 9.12985L1.2876 8.7563L1.40266 8.63475L2.35641 7.97839L2.35316 7.98163L2.35397 7.98487Z" fill="currentColor"/>
</svg>
