<svg viewBox="0 0 36 36.0219" xmlns="http://www.w3.org/2000/svg">
<path d="M7.06192 23.9546L14.1457 19.98L14.2648 19.6348L14.1457 19.4428H13.8005L12.6167 19.3698L8.56911 19.2605L5.05882 19.1146L1.65791 18.9323L0.802216 18.75L0 17.6925L0.0826534 17.165L0.802216 16.6812L1.83294 16.7712L4.11074 16.9267L7.52867 17.1625L10.0082 17.3084L13.6814 17.6901H14.2648L14.3475 17.4542L14.1482 17.3084L13.9926 17.1625L10.4555 14.7656L6.62678 12.2326L4.62124 10.774L3.53704 10.035L2.99007 9.34215L2.75427 7.8301L3.73881 6.7459L5.06125 6.83584L5.39915 6.92579L6.73861 7.95652L9.59984 10.1711L13.3362 12.923L13.8832 13.3775L14.102 13.222L14.1287 13.1126L13.8832 12.7017L11.8509 9.02857L9.68249 5.29219L8.7174 3.74367L8.46215 2.81505C8.37221 2.43339 8.30657 2.1125 8.30657 1.72112L9.42724 0.19934L10.0471 0L11.5422 0.19934L12.1718 0.746305L13.1004 2.87096L14.6052 6.21595L16.9389 10.7643L17.622 12.1134L17.9866 13.363L18.1228 13.7446H18.3586V13.5258L18.5506 10.9636L18.9055 7.81795L19.2507 3.77041L19.3698 2.63029L19.9338 1.2641L21.0545 0.525087L21.9296 0.943211L22.6492 1.97393L22.5495 2.64002L22.1217 5.42103L21.283 9.7773L20.736 12.6944H21.0545L21.4191 12.3298L22.8947 10.3705L25.3743 7.27098L26.4682 6.04092L27.7445 4.68202L28.5637 4.03539H30.1122L31.2523 5.72976L30.7418 7.48005L29.1471 9.5026L27.8247 11.2164L25.9286 13.7689L24.7447 15.8109L24.8541 15.9738L25.1361 15.9471L29.4194 15.0355L31.7337 14.6173L34.4952 14.1433L35.7448 14.7267L35.8809 15.3199L35.3898 16.5329L32.4362 17.2622L28.9721 17.955L23.8136 19.1754L23.7504 19.2216L23.8234 19.3115L26.1473 19.5303L27.1416 19.5838H29.575L34.1063 19.9217L35.2902 20.7044L36 21.6622L35.8809 22.3915L34.0577 23.3201L31.5975 22.7367L25.8556 21.3705L23.8866 20.8795H23.6143V21.0423L25.2552 22.6468L28.2623 25.3621L32.0278 28.8627L32.2199 29.7281L31.7361 30.4112L31.2256 30.3383L27.9171 27.849L26.6408 26.7283L23.7504 24.295H23.5584V24.5502L24.2245 25.525L27.7421 30.8123L27.9244 32.4338L27.6691 32.9613L26.7575 33.2798L25.756 33.0974L23.6969 30.207L21.5723 26.952L19.8585 24.0348L19.6494 24.154L18.6381 35.0471L18.1641 35.6038L17.0702 36.0219L16.1586 35.3291L15.6748 34.2084L16.1586 31.9938L16.742 29.1034L17.216 26.8061L17.6439 23.9522L17.8991 23.0041L17.8821 22.9409L17.673 22.9677L15.5216 25.9213L12.2496 30.3432L9.66061 33.1145L9.04072 33.36L7.96624 32.8033L8.06591 31.809L8.66635 30.9242L12.2496 26.3661L14.4107 23.5414L15.8061 21.9102L15.7963 21.6744H15.7137L6.1965 27.8539L4.50213 28.0727L3.77284 27.3896L3.86279 26.2689L4.20798 25.9042L7.06922 23.9352L7.05949 23.9449L7.06192 23.9546Z" fill="currentColor"/>
</svg>
