<svg viewBox="0 0 10.2204 11" xmlns="http://www.w3.org/2000/svg">
<g>
<path d="M9.50339 8.90782C9.42628 9.48048 9.04095 9.97602 8.50141 10.1962C8.23708 10.3062 7.95086 10.3393 7.66454 10.3062C7.38932 10.2732 7.11399 10.1851 6.82777 10.0201C6.43134 9.79969 6.0349 9.45848 5.57247 8.95193C6.29923 8.06006 6.73955 7.24519 6.90477 6.51865C6.98188 6.17721 6.99288 5.86888 6.95988 5.58255C6.91588 5.30734 6.81677 5.05401 6.66256 4.83379C6.32123 4.33836 5.74868 4.05203 5.11003 4.05203C4.47138 4.05203 3.89883 4.34936 3.55751 4.83379C3.40329 5.05401 3.30429 5.30734 3.26018 5.58255C3.21618 5.86888 3.22718 6.18821 3.31529 6.51865C3.4804 7.24519 3.93183 8.07106 4.6476 8.96282C4.19616 9.46948 3.78872 9.8108 3.39229 10.031C3.10607 10.1962 2.83074 10.2843 2.55553 10.3172C2.2582 10.3503 1.97187 10.3062 1.71865 10.2072C1.17911 9.98702 0.793784 9.49137 0.716675 8.91882C0.683675 8.6436 0.705675 8.36839 0.815784 8.06006C0.848783 7.94984 0.903893 7.83995 0.958892 7.70773C1.036 7.53163 1.12411 7.3443 1.21211 7.15708L1.22322 7.13519C1.98287 5.49445 2.79774 3.82081 3.64562 2.19129L3.67862 2.12507C3.76672 1.96007 3.85472 1.78396 3.94294 1.61874C4.03094 1.44253 4.13005 1.27731 4.25116 1.13409C4.48238 0.869761 4.7907 0.726653 5.13203 0.726653C5.47336 0.726653 5.78168 0.869761 6.0129 1.13409C6.13401 1.27731 6.23312 1.44253 6.32123 1.61874C6.40934 1.78396 6.49734 1.96007 6.58545 2.12507L6.61856 2.19129C7.45532 3.83181 8.27019 5.50545 9.02995 7.14619V7.15708C9.11806 7.3333 9.19506 7.53163 9.28317 7.70773C9.33828 7.83995 9.39328 7.94984 9.42628 8.06006C9.51439 8.34628 9.54739 8.62171 9.50339 8.90782ZM5.11003 8.39028C4.51549 7.64162 4.13005 6.93686 3.99794 6.34243C3.94294 6.0891 3.93183 5.86888 3.96494 5.67066C3.98694 5.49445 4.05305 5.34023 4.14105 5.20801C4.35027 4.91101 4.70259 4.72346 5.11003 4.72346C5.51747 4.72346 5.88079 4.89979 6.07901 5.20801C6.16701 5.34023 6.23312 5.49445 6.25512 5.67066C6.28812 5.86888 6.27712 6.1001 6.22212 6.34243C6.09001 6.92597 5.70457 7.63062 5.11003 8.39028ZM10.0759 7.81773C10.0209 7.68562 9.96582 7.54252 9.91082 7.42141C9.82271 7.2233 9.7346 7.03597 9.6575 6.85975L9.6465 6.84886C8.88684 5.19712 8.07197 3.52349 7.2131 1.87207L7.1801 1.80585C7.09199 1.64063 7.00388 1.46442 6.91588 1.28831C6.80566 1.08998 6.69556 0.880981 6.51945 0.682653C6.16701 0.242218 5.66058 0 5.12103 0C4.57049 0 4.07505 0.242218 3.71161 0.660763C3.54651 0.858871 3.4254 1.06809 3.31529 1.26642C3.22718 1.44253 3.13907 1.61874 3.05096 1.78396L3.01796 1.84985C2.1702 3.50149 1.34433 5.17523 0.584566 6.82686L0.573566 6.84886C0.496457 7.02497 0.408348 7.21208 0.320239 7.41041C0.265239 7.53163 0.21013 7.66373 0.15513 7.80684C0.0119118 8.21417 -0.0320877 8.5996 0.0229117 8.99593C0.144131 9.8218 0.694675 10.5156 1.45444 10.8238C1.74065 10.945 2.03798 11 2.34631 11C2.43442 11 2.54453 10.989 2.63264 10.9779C2.99596 10.9338 3.37029 10.8129 3.73361 10.6036C4.18516 10.3503 4.6146 9.98702 5.09903 9.45848C5.58347 9.98702 6.0239 10.3503 6.46434 10.6036C6.82777 10.8129 7.2021 10.9338 7.56543 10.9779C7.65354 10.989 7.76364 11 7.85175 11C8.16008 11 8.4683 10.945 8.74362 10.8238C9.51439 10.5156 10.0539 9.8108 10.175 8.99593C10.2631 8.61049 10.219 8.22528 10.0759 7.81773Z" fill="currentColor"/>
</g>
</svg>
