<svg viewBox="0 0 15.9998 16.0005" xmlns="http://www.w3.org/2000/svg">
<g>
<path d="M7.82013e-05 14.3296H15.9998V0H7.82013e-05V14.3296Z" fill="currentColor"/>
<path d="M0 14.3301H15.9996V16.0005H0.000154336L0 14.3301Z" fill="currentColor"/>
<path d="M4.2701 3.77093L1.94677 10.74H3.62892L5.207 5.81401L5.99795 8.27672H4.97478L4.56618 9.68253H6.44944L6.78903 10.74H8.51927L6.19621 3.77093H4.2701ZM11.1626 3.77093H8.74753V10.74H10.4177V5.17679H11.0907C11.8716 5.17679 12.3162 5.54918 12.3162 6.22209C12.3162 6.88295 11.8716 7.26747 11.0907 7.26747H10.9826V8.67328H11.1626C12.965 8.67328 14.0224 7.76603 14.0224 6.22209C14.0224 4.64806 12.965 3.77093 11.1626 3.77093Z" fill="currentColor"/>
</g>
</svg>
