<svg viewBox="0 0 16 16" xmlns="http://www.w3.org/2000/svg">
<g>
<rect fill="#EC1C2E"/>
<path d="M6.94453 4.90803C6.36792 4.89932 5.85616 5.3655 5.85616 6.04015V9.07814C5.85675 9.18749 5.77507 9.28449 5.65616 9.28449H4.70652C2.65159 9.28694 2.83522 6.65745 4.58434 6.65498C5.36193 6.65388 5.63371 6.65498 5.63371 6.65498V5.91825H4.54704C3.86611 5.91935 3.35061 6.17866 3.00385 6.56525C2.65709 6.95186 2.47956 7.46671 2.47984 7.97837C2.48011 8.47095 2.64812 8.98217 2.99905 9.36962C3.34999 9.75707 3.88359 10.022 4.62106 10.022H6.41348C6.51711 10.022 6.60495 9.93427 6.60495 9.83191V6.12031C6.60382 5.92622 6.70449 5.77018 6.86635 5.71853H6.86638C7.0234 5.66857 7.19585 5.73364 7.29979 5.88148L7.30025 5.88214L7.30066 5.88283C7.55255 6.29559 8.18197 7.30813 8.75049 8.22088C9.03475 8.67725 9.30381 9.10871 9.50289 9.42784C9.60243 9.58741 9.68449 9.71891 9.7422 9.8114C9.79945 9.90316 9.83127 9.95414 9.83482 9.95991C9.87675 10.0192 9.92952 10.0414 9.97348 10.0276H9.9735L9.97355 10.0275C9.99849 10.0198 10.0181 10.0022 10.0328 9.97331C10.0475 9.9444 10.0562 9.90424 10.0562 9.85601V6.12084C10.0556 5.92737 10.1556 5.771 10.318 5.71964C10.4741 5.66961 10.6471 5.73468 10.75 5.88268L10.7504 5.88326L10.7507 5.88387C11.0032 6.29636 11.6329 7.30892 12.2015 8.22166C12.7699 9.13389 13.278 9.94771 13.286 9.96039C13.286 9.96041 13.286 9.96044 13.286 9.96046C13.3271 10.0193 13.3832 10.0428 13.4301 10.0281C13.4555 10.0201 13.4757 10.0021 13.4908 9.97318C13.506 9.94424 13.515 9.90437 13.515 9.85657V4.93104V4.93078H12.7717V7.80711C12.7717 7.80711 12.3114 7.02654 11.5266 5.67932C10.7589 4.35952 9.31007 4.90502 9.30949 6.04068V7.80658C9.30949 7.80658 8.86022 7.02545 8.07604 5.67823C7.76394 5.14228 7.33905 4.91399 6.94453 4.90803ZM4.68134 4.93078C0.409845 4.93025 0.450367 11.0158 4.73887 11.0186H6.41455C7.13569 11.0191 7.59876 10.5914 7.59819 9.80312V8.26168C7.59819 8.26168 8.538 9.81987 8.90679 10.4298C9.53425 11.4668 11.0526 11.2629 11.0488 9.96752V8.26277C11.0488 8.26277 11.9886 9.82038 12.3579 10.4311C12.9854 11.4679 14.5039 11.2637 14.5 9.96803V4.93078H13.7578V9.85651V9.85657C13.7583 10.0893 13.6278 10.2194 13.5035 10.2587L13.5034 10.2588C13.3518 10.3071 13.1868 10.2424 13.0842 10.0955L13.0839 10.095L13.0836 10.0945C13.0623 10.0606 11.051 6.83962 10.5481 6.01672C10.5063 5.95747 10.4452 5.93313 10.391 5.95027C10.3347 5.9683 10.2989 6.0279 10.2989 6.12074V9.8554V9.85545C10.2995 10.0892 10.1712 10.2189 10.0474 10.2587L10.0474 10.2588L10.0473 10.2588C9.89786 10.3057 9.73551 10.2412 9.63357 10.0943L9.63332 10.094L9.63309 10.0936C9.62903 10.0873 9.59658 10.0354 9.53854 9.94251C9.4805 9.84963 9.39817 9.7178 9.29839 9.55795C9.09883 9.23823 8.8295 8.80641 8.54513 8.34994C7.97665 7.43742 7.34856 6.42699 7.09746 6.01562C7.05578 5.95647 6.99411 5.93256 6.93978 5.94976V5.94973C6.88285 5.9678 6.84671 6.02739 6.84723 6.1195V6.11957V9.83189C6.84723 10.0701 6.65192 10.2643 6.41348 10.2643H4.62103C3.8055 10.2643 3.20834 9.96822 2.81657 9.53398C2.42481 9.09973 2.23815 8.52858 2.23759 7.97837C2.23703 7.40748 2.43474 6.83282 2.82282 6.39999C3.21089 5.96715 3.78982 5.6771 4.54649 5.676H4.54651H5.63371V4.93078H4.68134Z" fill="currentColor"/>
</g>
</svg>
