<svg viewBox="0 0 48 48" xmlns="http://www.w3.org/2000/svg">
<g>
<path d="M39.579 0H8.42105C3.77023 0 0 3.77023 0 8.42105V39.579C0 44.2298 3.77023 48 8.42105 48H39.579C44.2298 48 48 44.2298 48 39.579V8.42105C48 3.77023 44.2298 0 39.579 0Z" fill="currentColor"/>
<path d="M48 33.0341V37.3935C47.7262 37.4199 47.445 37.4334 47.1562 37.4334C42.0028 37.4334 39.1015 33.141 38.9764 27.7698C38.9727 27.5622 38.9741 27.3558 38.9787 27.1509C38.9815 27.0231 38.9866 26.8957 38.993 26.7687C38.9963 26.7009 38.9995 26.6372 39.0046 26.5661C39.0096 26.495 39.0147 26.424 39.0207 26.3529C39.2063 23.9814 39.9697 21.8712 41.2297 20.3098C42.0125 19.3405 42.9531 18.602 44.0198 18.1082C44.9568 17.6365 46.2736 17.3761 47.347 17.3761H47.3934C47.5969 17.3761 47.7989 17.3829 48 17.3963V18.5957C47.7867 18.5372 47.5584 18.5059 47.3156 18.5019C45.1446 18.5466 43.8509 21.147 43.6898 24.7499H48V25.7653H43.5924L43.591 25.7663C43.3923 29.2767 45.3137 32.2435 48 33.0341Z" fill="currentColor"/>
<path d="M39.1929 11.4668L39.2308 11.4585V11.1654H31.5007L24.323 28.0352L17.1454 11.1654H8.81527V11.4585L8.85267 11.4668C10.2636 11.7853 10.98 12.2602 10.98 13.973V34.0252C10.98 35.738 10.2608 36.213 8.84991 36.5315L8.8125 36.5398V36.8338H14.4642V36.5407L14.4269 36.5324C13.0159 36.2139 12.2995 35.739 12.2995 34.0262V15.1362L21.52 36.8338H22.0429L31.532 14.531V34.5214C31.4111 35.8742 30.7013 36.2919 29.4237 36.5804L29.3858 36.5892V36.88H39.2308V36.5892L39.1929 36.5804C37.914 36.2919 37.187 35.8742 37.0661 34.5214L37.0596 13.973H37.0661C37.0661 12.2602 37.7824 11.7853 39.1929 11.4668Z" fill="currentColor"/>
</g>
</svg>
