<svg viewBox="0 0 33 33" xmlns="http://www.w3.org/2000/svg">
<g>
<path d="M16.5 0C7.425 0 0 7.425 0 16.5C0 25.575 7.425 33 16.5 33C25.575 33 33 25.575 33 16.5C33 7.425 25.575 0 16.5 0Z" fill="currentColor"/>
<path d="M16.5 0C7.425 0 0 7.425 0 16.5C0 25.575 7.425 33 16.5 33C25.575 33 33 25.575 33 16.5C33 7.425 25.575 0 16.5 0ZM8.1125 22.55C7.5625 22.6875 7.0125 22.275 6.875 21.725C6.7375 21.175 7.15 20.625 7.7 20.4875C14.025 19.1125 19.3875 19.6625 23.7875 22.275C24.3375 22.55 24.475 23.2375 24.0625 23.65C23.7875 24.2 23.1 24.3375 22.6875 23.925C18.8375 21.725 13.8875 21.175 8.1125 22.55ZM26.125 19.25C25.7125 19.8 25.025 20.075 24.3375 19.6625C19.9375 16.9125 13.2 16.0875 7.8375 17.7375C7.15 17.875 6.4625 17.6 6.1875 16.9125C6.05 16.225 6.325 15.5375 7.0125 15.2625C13.0625 13.475 20.4875 14.3 25.575 17.4625C26.2625 17.875 26.4 18.7 26.125 19.25ZM26.2625 14.575C20.9 11.4125 12.1 11.1375 7.15 12.7875C6.325 12.925 5.3625 12.5125 5.225 11.6875C4.95 10.8625 5.3625 10.0375 6.1875 9.7625C11.9625 7.975 21.725 8.3875 27.775 11.9625C28.4625 12.375 28.7375 13.3375 28.325 14.025C27.9125 14.85 26.95 15.125 26.2625 14.575Z" fill="currentColor"/>
</g>
</svg>
