<svg viewBox="0 0 12 10.5" xmlns="http://www.w3.org/2000/svg">
<g>
<path d="M8.75187 0.742293C8.60141 0.298549 8.18493 0 7.71638 0L7.04098 0C6.51515 1.30668e-10 6.06379 0.374284 5.96647 0.891024L5.26799 4.59961L5.61525 3.41162C5.75153 2.94542 6.17902 2.625 6.66473 2.625L8.82382 2.625L9.75719 3.84644L10.5882 2.625L10.174 2.625C9.70548 2.625 9.28901 2.32645 9.13855 1.88271L8.75187 0.742293Z" fill="url(#paint0_radial_87743_36106)"/>
<path d="M3.37736 9.75272C3.5263 10.199 3.94404 10.5 4.41453 10.5H5.5142C6.11103 10.5 6.5976 10.0214 6.60745 9.42464L6.6623 6.10107L6.3733 7.08868C6.23692 7.55473 5.80951 7.875 5.32391 7.875L3.15647 7.875L2.23371 7.06099L1.55278 7.875H1.96294C2.43343 7.875 2.85117 8.17598 3.0001 8.62227L3.37736 9.75272Z" fill="url(#paint1_radial_87743_36106)"/>
<g>
<path d="M7.50032 0H3.12566C1.87576 0 1.12582 1.65176 0.625859 3.30353C0.0335355 5.26044 -0.741533 7.87764 1.50079 7.87764H3.51768C4.00645 7.87764 4.43552 7.55453 4.56979 7.08456C4.89097 5.96043 5.49231 3.86462 5.96096 2.28302C6.19071 1.50769 6.38208 0.84182 6.67577 0.427158C6.84043 0.194683 7.11486 0 7.50032 0Z" fill="url(#paint2_radial_87743_36106)"/>
<path d="M7.50032 0H3.12566C1.87576 0 1.12582 1.65176 0.625859 3.30353C0.0335355 5.26044 -0.741533 7.87764 1.50079 7.87764H3.51768C4.00645 7.87764 4.43552 7.55453 4.56979 7.08456C4.89097 5.96043 5.49231 3.86462 5.96096 2.28302C6.19071 1.50769 6.38208 0.84182 6.67577 0.427158C6.84043 0.194683 7.11486 0 7.50032 0Z" fill="url(#paint3_linear_87743_36106)"/>
</g>
<g>
<path d="M4.49968 10.5H8.87434C10.1242 10.5 10.8742 8.84842 11.3741 7.19684C11.9665 5.24014 12.7415 2.62324 10.4992 2.62324H8.48229C7.99354 2.62324 7.56447 2.94634 7.43019 3.41628C7.10901 4.5403 6.50769 6.63584 6.03904 8.21723C5.80929 8.99247 5.61792 9.65827 5.32423 10.0729C5.15957 10.3053 4.88514 10.5 4.49968 10.5Z" fill="url(#paint4_radial_87743_36106)"/>
<path d="M4.49968 10.5H8.87434C10.1242 10.5 10.8742 8.84842 11.3741 7.19684C11.9665 5.24014 12.7415 2.62324 10.4992 2.62324H8.48229C7.99354 2.62324 7.56447 2.94634 7.43019 3.41628C7.10901 4.5403 6.50769 6.63584 6.03904 8.21723C5.80929 8.99247 5.61792 9.65827 5.32423 10.0729C5.15957 10.3053 4.88514 10.5 4.49968 10.5Z" fill="url(#paint5_linear_87743_36106)"/>
</g>
</g>
<defs>
<radialGradient cx="0" cy="0" r="1" gradientTransform="matrix(-3.01495 -3.75357 -3.25517 3.14837 9.81349 4.62967)" gradientUnits="userSpaceOnUse">
<stop offset="0.0955758" stop-color="#00AEFF"/>
<stop offset="0.773185" stop-color="#2253CE"/>
<stop offset="1" stop-color="#0736C4"/>
</radialGradient>
<radialGradient cx="0" cy="0" r="1" gradientTransform="matrix(2.67167 3.3174 3.15384 -2.70773 2.47976 7.54954)" gradientUnits="userSpaceOnUse">
<stop stop-color="#FFB657"/>
<stop offset="0.633728" stop-color="#FF5F3D"/>
<stop offset="0.923392" stop-color="#C02B3C"/>
</radialGradient>
<radialGradient cx="0" cy="0" r="1" gradientTransform="matrix(-0.396333 -6.97998 39.2084 -2.22592 3.01725 7.87485)" gradientUnits="userSpaceOnUse">
<stop offset="0.03" stop-color="#FFC800"/>
<stop offset="0.31" stop-color="#98BD42"/>
<stop offset="0.49" stop-color="#52B471"/>
<stop offset="0.843838" stop-color="#0D91E1"/>
</radialGradient>
<linearGradient x1="3.40932" y1="-5.17638e-09" x2="3.7501" y2="7.87764" gradientUnits="userSpaceOnUse">
<stop stop-color="#3DCBFF"/>
<stop offset="0.246674" stop-color="#0588F7" stop-opacity="0"/>
</linearGradient>
<radialGradient cx="0" cy="0" r="1" gradientTransform="matrix(-3.45601 9.87946 -11.7621 -4.3603 10.7239 1.85204)" gradientUnits="userSpaceOnUse">
<stop offset="0.0661714" stop-color="#8C48FF"/>
<stop offset="0.5" stop-color="#F2598A"/>
<stop offset="0.895833" stop-color="#FFB152"/>
</radialGradient>
<linearGradient x1="11.0695" y1="2.14234" x2="11.0651" y2="4.28769" gradientUnits="userSpaceOnUse">
<stop offset="0.0581535" stop-color="#F8ADFA"/>
<stop offset="0.708063" stop-color="#A86EDD" stop-opacity="0"/>
</linearGradient>
</defs>
</svg>
