<svg viewBox="0 0 11 11" xmlns="http://www.w3.org/2000/svg">
<g>
<path d="M5.50022 10.7791C8.41628 10.7791 10.7802 8.4152 10.7802 5.49914C10.7802 2.58308 8.41628 0.219141 5.50022 0.219141C2.58415 0.219141 0.220215 2.58308 0.220215 5.49914C0.220215 8.4152 2.58415 10.7791 5.50022 10.7791Z" fill="currentColor"/>
<path fill-rule="evenodd" clip-rule="evenodd" d="M5.5 0C2.46367 0 0 2.46367 0 5.5C0 8.53633 2.46367 11 5.5 11C8.53037 11 11 8.53633 11 5.5C11 2.46367 8.53037 0 5.5 0ZM9.13286 2.53525C9.78904 3.3346 10.1828 4.35467 10.1947 5.45824C10.0396 5.42841 8.48861 5.11226 6.92571 5.30911C6.88992 5.23157 6.86008 5.14804 6.8243 5.06453C6.72885 4.83785 6.62147 4.60521 6.5141 4.38449C8.24404 3.68059 9.03145 2.66649 9.13286 2.53525ZM5.5 0.81128C6.69306 0.81128 7.78471 1.25868 8.61388 1.99241C8.53037 2.11171 7.82049 3.0602 6.15022 3.68655C5.38069 2.27278 4.52765 1.11551 4.39642 0.936551C4.74837 0.853037 5.11822 0.81128 5.5 0.81128ZM3.50163 1.25271C3.6269 1.41974 4.46204 2.58298 5.24349 3.96692C3.04826 4.55151 1.10955 4.53959 0.900759 4.53959C1.20498 3.08406 2.18926 1.8731 3.50163 1.25271ZM0.799349 5.50596C0.799349 5.45824 0.799349 5.41053 0.799349 5.3628C1.00217 5.36876 3.28092 5.39859 5.62527 4.69469C5.76247 4.95716 5.88774 5.22559 6.00705 5.49404C5.94739 5.51194 5.88178 5.52983 5.82212 5.54772C3.40022 6.32918 2.11171 8.46475 2.00434 8.64371C1.25868 7.81453 0.799349 6.71096 0.799349 5.50596ZM5.5 10.2007C4.41432 10.2007 3.41215 9.8308 2.61876 9.21041C2.70228 9.03742 3.65673 7.2001 6.30531 6.27549C6.31724 6.26953 6.32321 6.26953 6.33514 6.26355C6.99729 7.97559 7.26573 9.41323 7.33731 9.82484C6.77061 10.0694 6.15022 10.2007 5.5 10.2007ZM8.11877 9.39534C8.07104 9.109 7.82051 7.73698 7.20608 6.04881C8.67951 5.81616 9.968 6.19794 10.1291 6.25163C9.92625 7.55802 9.17462 8.68547 8.11877 9.39534Z" fill="currentColor"/>
</g>
</svg>
