<svg viewBox="0 0 9.89786 5.22157" xmlns="http://www.w3.org/2000/svg">
<g>
<path d="M1.14808 0.000122388V2.00312H3.26215V0.000122388H4.41023V5.22157H3.26215V2.96911H1.14808V5.22157H0V0.000122388H1.14808Z" fill="currentColor"/>
<path d="M5.52524 0.000123812V5.22157H8.0545C8.28538 5.2209 8.5152 5.1903 8.73822 5.13054C8.95064 5.07594 9.15144 4.9834 9.33095 4.8574C9.50441 4.73546 9.64614 4.57375 9.74428 4.3858C9.85067 4.17391 9.90321 3.93906 9.89725 3.70204C9.90581 3.40507 9.82284 3.11264 9.6596 2.86441C9.48392 2.62327 9.22789 2.45279 8.93764 2.38371C9.14969 2.28983 9.33267 2.14079 9.46752 1.95213C9.59421 1.75689 9.65778 1.5274 9.64961 1.2948C9.65626 1.08352 9.61518 0.873451 9.52941 0.680241C9.45334 0.519438 9.33582 0.381797 9.18892 0.281471C9.02994 0.175882 8.85175 0.102562 8.6645 0.0656809C8.44071 0.0201075 8.21275 -0.00186483 7.98438 0.000123812H5.52524ZM6.67243 0.892392H7.74765C7.84685 0.891964 7.94588 0.900488 8.04355 0.917862C8.13246 0.932627 8.21792 0.963485 8.29576 1.00892C8.36959 1.05277 8.43028 1.11566 8.47146 1.19101C8.51885 1.2835 8.54144 1.38671 8.53702 1.49055C8.53702 1.71027 8.47116 1.86899 8.33945 1.96672C8.19185 2.06928 8.01462 2.12046 7.83507 2.11238L6.67243 2.11331V0.892392ZM7.99402 2.89429C8.18373 2.89828 8.3681 2.95785 8.52429 3.06562C8.67421 3.18033 8.74946 3.37155 8.75007 3.63923C8.75451 3.75535 8.7311 3.87085 8.68179 3.97608C8.6379 4.06056 8.57338 4.13259 8.49422 4.18548C8.41072 4.23848 8.31812 4.27553 8.2211 4.29474C8.11535 4.31651 8.00767 4.32749 7.8997 4.32752L6.67243 4.32934V2.89538H7.92338C7.94691 2.89416 7.97047 2.89379 7.99402 2.89429Z" fill="currentColor"/>
</g>
</svg>
