<svg viewBox="0 0 13.8738 13.75" xmlns="http://www.w3.org/2000/svg">
<g>
<path d="M5.32123 5.00498V3.69872C5.32123 3.58871 5.36253 3.50618 5.45873 3.45121L8.08506 1.93874C8.44255 1.7325 8.86882 1.6363 9.30876 1.6363C10.9587 1.6363 12.0038 2.91507 12.0038 4.27627C12.0038 4.3725 12.0038 4.48251 11.99 4.59252L9.26749 2.99749C9.10251 2.90126 8.93745 2.90126 8.77247 2.99749L5.32123 5.00498ZM11.4537 10.0925V6.9712C11.4537 6.77863 11.3712 6.64116 11.2062 6.54493L7.75499 4.53744L8.88249 3.89115C8.97872 3.83622 9.06125 3.83622 9.15748 3.89115L11.7838 5.40365C12.5401 5.8437 13.0488 6.77863 13.0488 7.6861C13.0488 8.73107 12.4301 9.69359 11.4537 10.0924V10.0925ZM4.50999 7.34253L3.38249 6.68257C3.28629 6.62761 3.245 6.54508 3.245 6.43506V3.41009C3.245 1.93885 4.3725 0.825026 5.89878 0.825026C6.47636 0.825026 7.01249 1.0176 7.46636 1.36131L4.75761 2.92889C4.59267 3.02509 4.51013 3.16258 4.51013 3.35513V7.34265L4.50999 7.34253ZM6.9369 8.74499L5.32123 7.83752V5.91259L6.9369 5.00512L8.55245 5.91259V7.83752L6.9369 8.74499ZM7.97502 12.9251C7.39747 12.9251 6.86133 12.7325 6.40747 12.3888L9.11618 10.8212C9.28116 10.725 9.36369 10.5875 9.36369 10.395V6.40747L10.505 7.06743C10.6012 7.12236 10.6425 7.2049 10.6425 7.31491V10.3399C10.6425 11.8111 9.50119 12.9249 7.97502 12.9249V12.9251ZM4.71623 9.85882L2.0899 8.34632C1.3336 7.90627 0.824912 6.97134 0.824912 6.06387C0.824912 5.00512 1.45742 4.05638 2.43361 3.6576V6.79258C2.43361 6.98513 2.51617 7.12262 2.68112 7.21882L6.11869 9.21253L4.99119 9.85882C4.89499 9.91376 4.81243 9.91376 4.71623 9.85882ZM4.56507 12.1138C3.0113 12.1138 1.87002 10.9451 1.87002 9.5013C1.87002 9.39129 1.88381 9.28127 1.89747 9.17126L4.60622 10.7388C4.77117 10.835 4.93626 10.835 5.10121 10.7388L8.55245 8.74514V10.0514C8.55245 10.1614 8.51118 10.2439 8.41495 10.2989L5.78865 11.8114C5.43113 12.0176 5.00486 12.1138 4.56493 12.1138H4.56507ZM7.97502 13.75C9.63879 13.75 11.0275 12.5675 11.3438 11C12.8838 10.6012 13.8738 9.15745 13.8738 7.68624C13.8738 6.72369 13.4614 5.78877 12.7188 5.11499C12.7876 4.82622 12.8289 4.53744 12.8289 4.24881C12.8289 2.28259 11.2338 0.811242 9.39129 0.811242C9.02013 0.811242 8.6626 0.866177 8.30508 0.990003C7.68624 0.384974 6.83373 0 5.89878 0C4.23503 0 2.84636 1.18243 2.52999 2.74998C0.990003 3.14877 0 4.59252 0 6.06373C0 7.02628 0.412456 7.9612 1.15498 8.63498C1.08623 8.92375 1.04497 9.21253 1.04497 9.50116C1.04497 11.4674 2.64 12.9387 4.48251 12.9387C4.8537 12.9387 5.21122 12.8838 5.56874 12.76C6.18744 13.365 7.03995 13.75 7.97502 13.75Z" fill="currentColor"/>
</g>
</svg>
