<svg preserveAspectRatio="none" width="100%" height="100%" overflow="visible" style="display: block;" viewBox="0 0 20 20" fill="none" xmlns="http://www.w3.org/2000/svg">
<g id="Frame">
<rect width="20" height="20" fill="black"/>
<path id="Vector" d="M15.1147 4.97305C15.1147 3.49461 13.7164 3.125 12.6125 3.125V3.34677C13.2748 3.34677 13.79 3.56853 13.79 4.08599C13.785 4.19448 13.7576 4.30074 13.7094 4.398C13.6613 4.49526 13.5936 4.58139 13.5105 4.65092C13.4274 4.72045 13.3309 4.77186 13.2269 4.80186C13.123 4.83187 13.014 4.83982 12.9069 4.82521C12.075 4.73593 11.2584 4.5371 10.4782 4.23383C9.65024 3.92046 8.78371 3.72151 7.9024 3.64245C7.58271 3.62965 7.26369 3.681 6.96398 3.7935C6.66428 3.90599 6.38992 4.07738 6.15693 4.29763C5.92395 4.51788 5.73702 4.78258 5.60708 5.07625C5.47714 5.36992 5.4068 5.68666 5.40016 6.00796C5.39544 6.36013 5.49889 6.70521 5.69642 6.99622C5.89396 7.28722 6.17598 7.51001 6.50409 7.63424L6.57769 7.4864C6.43982 7.42052 6.32437 7.31523 6.24582 7.18373C6.16727 7.05223 6.12911 6.90037 6.13611 6.74718C6.16668 6.50269 6.29202 6.28017 6.48492 6.12793C6.67782 5.97569 6.92272 5.90602 7.16645 5.93404C8.09889 6.03691 9.01416 6.26053 9.88947 6.59933C10.783 6.85737 11.6927 7.05494 12.6125 7.19071V9.48229L11.5086 10.4433V10.5172L12.6125 11.4782V14.6568C12.0534 14.9766 11.4153 15.1304 10.7726 15.1004C10.2369 15.1287 9.70159 15.0372 9.20528 14.8327C8.70896 14.6282 8.26398 14.3157 7.9024 13.9176L10.9198 12.4392V7.26463L7.24004 8.89092C7.65189 8.00141 8.31799 7.25515 9.15352 6.74718L9.07992 6.59933C7.92619 6.88067 6.8941 7.52954 6.13797 8.44892C5.38184 9.36831 4.94227 10.5088 4.885 11.7C4.88878 13.0712 5.43276 14.3851 6.39806 15.3547C7.36337 16.3243 8.67152 16.8707 10.0367 16.8745C10.6709 16.8838 11.3006 16.7664 11.8893 16.5291C12.478 16.2918 13.0138 15.9394 13.4657 15.4924C13.9177 15.0453 14.2766 14.5125 14.5218 13.9249C14.767 13.3373 14.8935 12.7067 14.8939 12.0696H14.7468C14.3594 13.0133 13.691 13.8137 12.8333 14.3611V11.3303L14.0108 10.3694V10.2954L12.9069 9.33445V7.11679C13.1944 7.1312 13.4818 7.08618 13.7513 6.98451C14.0207 6.88285 14.2666 6.7267 14.4735 6.52574C14.6805 6.32478 14.8442 6.08329 14.9545 5.81621C15.0648 5.54913 15.1193 5.26215 15.1147 4.97305ZM8.71195 13.1045L7.8288 13.548C7.24693 12.7323 6.96119 11.7408 7.01926 10.739C7.01511 10.2133 7.08954 9.69005 7.24004 9.1866L8.78554 8.52131L8.71195 13.1045Z" fill="var(--fill-0, white)"/>
</g>
</svg>
