<svg preserveAspectRatio="none" width="100%" height="100%" overflow="visible" style="display: block;" viewBox="0 0 15.0004 11.1282" fill="none" xmlns="http://www.w3.org/2000/svg">
<g id="Group">
<g id="g314">
<path id="path316" fill-rule="evenodd" clip-rule="evenodd" d="M5.56641 8.11575C5.03314 8.86231 3.96547 9.89025 2.94772 9.89025C2.26469 9.89025 1.94359 9.46818 1.94359 9.12327C1.94359 8.65581 2.33844 8.34153 3.35278 7.68914C5.36672 6.39003 6.93248 5.50051 6.93248 3.78047C6.93248 1.98894 5.00478 1.3479 4.43861 0H4.40684C3.15082 1.81875 0.958748 2.18182 0.0658076 1.37399L0 1.42165C0.110057 2.24082 0.604749 3.70445 1.79496 3.70445C2.88532 3.70445 4.32855 2.25557 5.21468 1.88683C5.34062 1.83237 5.45749 1.86527 5.54485 1.96965C5.65491 2.10921 5.72639 2.32819 5.72639 2.67878C5.72639 5.09659 0.713672 5.78529 0.713672 7.71864C0.713672 8.17361 1.13121 8.99392 1.71667 9.71439C2.47913 10.655 3.25634 11.0748 4.09822 11.0748C5.40303 11.0748 6.05543 10.0979 6.60118 10.0979C6.82923 10.0979 6.98014 10.1864 7.12196 10.3793L7.26039 10.2624C6.93816 9.92202 6.57281 9.53059 6.24831 9.11192L6.19952 9.08015C5.66172 8.87706 5.72639 8.35401 5.56641 8.11915" fill="var(--fill-0, white)"/>
</g>
<g id="g318">
<path id="path320" fill-rule="evenodd" clip-rule="evenodd" d="M5.39435 2.64468C5.39435 4.79587 0.319223 5.46415 0.319223 7.72085L0.264762 7.71405C-0.098314 5.1839 4.88944 4.53265 5.33762 2.6288L5.39435 2.64468Z" fill="var(--fill-0, white)"/>
</g>
<g id="g322">
<path id="path324" fill-rule="evenodd" clip-rule="evenodd" d="M5.68752 8.016C5.6705 8.311 5.75446 8.6162 5.97571 8.85106C6.231 9.12223 6.59861 9.24363 7.20563 9.24363C8.3323 9.24363 10.3167 8.39722 12.0595 8.39722C13.5753 8.39722 14.6112 9.8756 15.0004 10.6607L14.8359 11.1282L14.8087 11.1225C14.7202 10.4735 14.1551 9.67024 12.9161 9.67024C11.7373 9.67024 9.41245 10.5734 8.20069 10.5734C6.44658 10.5734 5.60696 9.31625 5.45379 8.26675L5.65915 7.98764L5.68752 8.016Z" fill="var(--fill-0, white)"/>
</g>
<path id="path326" fill-rule="evenodd" clip-rule="evenodd" d="M11.3838 8.67873H11.7594V1.10419H11.3838V8.67873Z" fill="var(--fill-0, white)"/>
<g id="g328">
<path id="path330" fill-rule="evenodd" clip-rule="evenodd" d="M8.66962 8.61181L8.86137 8.49608C8.05466 7.89928 7.41587 6.77604 7.41587 5.38162C7.41587 3.05911 8.76719 1.13143 10.9445 1.13143C12.2017 1.13143 12.9891 1.77588 13.3783 2.40785L13.401 2.40104L13.4429 1.8485C12.8314 1.29822 11.5198 0.329277 9.87344 0.329277C7.31489 0.329277 5.76274 2.08336 5.76274 4.39112C5.76274 6.54685 7.26043 7.88454 8.66962 8.61181Z" fill="var(--fill-0, white)"/>
</g>
<g id="g332">
<path id="path334" fill-rule="evenodd" clip-rule="evenodd" d="M10.7343 8.69567L9.76758 8.16355C9.17191 7.83679 9.04597 7.48733 9.04597 6.82586C9.04597 6.2302 9.21275 5.22155 9.21275 4.41712C9.21275 3.59227 9.0437 3.33585 8.34251 3.03859L8.46051 2.81848C8.92229 3.02838 9.71425 3.42549 10.2316 3.75452C10.6571 4.02569 10.7275 4.17545 10.7275 4.60319V7.20822C10.7275 8.05576 10.7479 8.31672 10.909 8.54137L10.7343 8.69567Z" fill="var(--fill-0, white)"/>
</g>
</g>
</svg>
