<svg preserveAspectRatio="none" width="100%" height="100%" overflow="visible" style="display: block;" viewBox="0 0 16.2505 5.31128" fill="none" xmlns="http://www.w3.org/2000/svg">
<g id="Group">
<path id="Vector" d="M5.42946 5.31128V0.000135183H0V5.31128H5.42946Z" fill="var(--fill-0, #D62021)"/>
<path id="Vector_2" d="M10.884 5.31128V0.000135183H5.42895V5.31128H10.884Z" fill="var(--fill-0, #000005)"/>
<path id="Vector_3" d="M16.25 5.31128V0.000135183H10.8845V5.31128H16.25Z" fill="var(--fill-0, #237BBD)"/>
<g id="Group_2">
<path id="Vector_4" d="M3.28236 4.09672V2.48835C3.28236 2.25173 3.2376 2.07906 3.14487 1.96714C3.05214 1.85523 2.90505 1.80407 2.69721 1.80407C2.58849 1.80727 2.48617 1.83604 2.39024 1.88401C2.29112 1.92877 2.20159 1.99912 2.13444 2.08545V4.09992H1.48533V1.30205H1.95538L2.07688 1.56425C2.25275 1.35961 2.51495 1.25728 2.86348 1.25728C3.19603 1.25728 3.45823 1.35641 3.65008 1.55466C3.84194 1.75291 3.93786 2.03109 3.93786 2.38602V4.09992L3.28236 4.09672Z" fill="var(--fill-0, white)"/>
<path id="Vector_5" d="M8.10425 4.15235C8.52953 4.15235 8.86847 4.02765 9.11468 3.78143C9.3609 3.53522 9.4856 3.18349 9.4856 2.72624C9.4856 1.74459 9.04114 1.25536 8.14902 1.25536C7.92519 1.24897 7.70776 1.3321 7.54788 1.48878V1.30332H6.89558V4.83983H7.54468V4.03084C7.72055 4.11398 7.9124 4.15555 8.10425 4.15235ZM7.96036 1.81174C8.26094 1.81174 8.47517 1.87889 8.60627 2.01318C8.73737 2.14748 8.80132 2.3809 8.80132 2.71025C8.80132 3.02041 8.73417 3.24424 8.60627 3.38813C8.47517 3.53202 8.26094 3.60237 7.96036 3.60237C7.81008 3.60557 7.66299 3.55441 7.54788 3.45848V1.994C7.6534 1.87889 7.80368 1.81493 7.96036 1.81174Z" fill="var(--fill-0, white)"/>
<path id="Vector_6" d="M14.3325 1.91278C14.2173 1.83924 14.0862 1.80087 13.9519 1.80407C13.8017 1.80407 13.6674 1.87122 13.5523 2.00871C13.4339 2.1494 13.37 2.32847 13.3764 2.51073V4.09672H12.7241V1.30205H13.3764V1.57065C13.5586 1.3628 13.7985 1.25728 14.1022 1.25728C14.3229 1.25728 14.4923 1.29246 14.6106 1.35961L14.3325 1.91278Z" fill="var(--fill-0, white)"/>
</g>
</g>
</svg>
