<svg preserveAspectRatio="none" width="100%" height="100%" overflow="visible" style="display: block;" viewBox="0 0 20 20" fill="none" xmlns="http://www.w3.org/2000/svg">
<g id="Frame">
<rect width="20" height="20" fill="#1D9BF0"/>
<path id="Logo" d="M14.9733 7.4892C14.9809 7.59721 14.9809 7.70621 14.9809 7.81522C14.9809 11.1523 12.4011 15 7.68376 15C6.28908 15.002 4.92336 14.6083 3.75002 13.8659C3.95227 13.8897 4.15575 13.9017 4.35943 13.9019C5.51454 13.9033 6.6365 13.5218 7.54461 12.8189C7.00936 12.8092 6.4906 12.6349 6.06096 12.3205C5.63132 12.0061 5.31231 11.5672 5.14861 11.0653C5.53283 11.1384 5.92896 11.1237 6.30649 11.0223C5.72614 10.9069 5.20421 10.5973 4.82916 10.1462C4.45412 9.69512 4.24905 9.13021 4.24872 8.54724V8.51524C4.60545 8.71074 5.00461 8.81911 5.41269 8.83125C4.87002 8.47388 4.48603 7.92635 4.33886 7.30009C4.19168 6.67382 4.29238 6.01588 4.62046 5.46013C5.26437 6.24021 6.0677 6.87824 6.9783 7.33282C7.88889 7.78739 8.8864 8.04834 9.90607 8.09873C9.77855 7.55742 9.83575 6.98982 10.0688 6.48374C10.3019 5.97767 10.6979 5.56132 11.1954 5.2991C11.693 5.03689 12.2645 4.94344 12.8215 5.03319C13.3784 5.12295 13.8898 5.39092 14.2765 5.79564C14.8508 5.68408 15.4014 5.47675 15.9047 5.18261C15.7133 5.76734 15.3126 6.26366 14.7773 6.57917C15.2856 6.52 15.782 6.38618 16.25 6.18215C15.9065 6.68886 15.4742 7.13143 14.9733 7.4892V7.4892Z" fill="var(--fill-0, white)"/>
</g>
</svg>
