<svg preserveAspectRatio="none" width="100%" height="100%" overflow="visible" style="display: block;" viewBox="0 0 20 20" fill="none" xmlns="http://www.w3.org/2000/svg">
<g id="Frame">
<rect width="20" height="20" fill="#EC1C2E"/>
<path id="Path" d="M8.68066 6.13504C7.9599 6.12415 7.3202 6.70688 7.3202 7.55019V11.3477C7.32093 11.4844 7.21884 11.6056 7.0702 11.6056H5.88315C3.31449 11.6087 3.54402 8.32181 5.73043 8.31873C6.70241 8.31735 7.04214 8.31873 7.04214 8.31873V7.39781H5.68381C4.83264 7.39919 4.18826 7.72332 3.75482 8.20657C3.32136 8.68982 3.09946 9.33339 3.0998 9.97296C3.10014 10.5887 3.31015 11.2277 3.74882 11.712C4.18749 12.1963 4.85448 12.5275 5.77632 12.5275H8.01685C8.14639 12.5275 8.25619 12.4178 8.25619 12.2899V7.65039C8.25477 7.40777 8.38061 7.21272 8.58294 7.14816H8.58297C8.77924 7.08571 8.99481 7.16704 9.12474 7.35186L9.12531 7.35268L9.12582 7.35354C9.44069 7.86948 10.2275 9.13516 10.9381 10.2761C11.2934 10.8466 11.6298 11.3859 11.8786 11.7848C12.003 11.9843 12.1056 12.1486 12.1777 12.2642C12.2493 12.379 12.2891 12.4427 12.2935 12.4499C12.3459 12.5239 12.4119 12.5518 12.4668 12.5345H12.4669L12.4669 12.5344C12.4981 12.5247 12.5226 12.5028 12.541 12.4666C12.5593 12.4305 12.5702 12.3803 12.5702 12.32V7.65105C12.5695 7.40921 12.6945 7.21375 12.8975 7.14956C13.0926 7.08701 13.3088 7.16835 13.4375 7.35335L13.438 7.35408L13.4384 7.35484C13.754 7.87046 14.5411 9.13615 15.2519 10.2771C15.9623 11.4174 16.5975 12.4346 16.6075 12.4505C16.6075 12.4505 16.6075 12.4505 16.6075 12.4506C16.6589 12.5242 16.729 12.5536 16.7876 12.5351C16.8193 12.5251 16.8447 12.5027 16.8636 12.4665C16.8824 12.4303 16.8937 12.3805 16.8937 12.3207V6.1638V6.16348H15.9646V9.75889C15.9646 9.75889 15.3892 8.78318 14.4083 7.09916C13.4486 5.4494 11.6376 6.13127 11.6369 7.55085V9.75822C11.6369 9.75822 11.0753 8.78181 10.095 7.09779C9.70492 6.42785 9.17381 6.14249 8.68066 6.13504ZM5.85167 6.16348C0.512306 6.16281 0.562959 13.7698 5.92359 13.7732H8.01819C8.91961 13.7739 9.49845 13.2393 9.49773 12.2539V10.3271C9.49773 10.3271 10.6725 12.2748 11.1335 13.0372C11.9178 14.3335 13.8158 14.0787 13.811 12.4594V10.3285C13.811 10.3285 14.9857 12.2755 15.4474 13.0389C16.2317 14.3348 18.1298 14.0797 18.125 12.46V6.16348H17.1972V12.3206V12.3207C17.1979 12.6117 17.0348 12.7743 16.8794 12.8234L16.8793 12.8234C16.6897 12.8839 16.4835 12.803 16.3553 12.6193L16.3549 12.6187L16.3544 12.6181C16.3279 12.5757 13.8137 8.54952 13.1851 7.52089C13.1329 7.44684 13.0565 7.41641 12.9888 7.43783C12.9184 7.46038 12.8736 7.53487 12.8736 7.65093V12.3192V12.3193C12.8744 12.6115 12.714 12.7736 12.5593 12.8234L12.5592 12.8234L12.5591 12.8235C12.3723 12.8822 12.1694 12.8015 12.042 12.6179L12.0417 12.6175L12.0414 12.617C12.0363 12.6091 11.9957 12.5442 11.9232 12.4281C11.8506 12.312 11.7477 12.1473 11.623 11.9474C11.3735 11.5478 11.0369 11.008 10.6814 10.4374C9.97082 9.29677 9.1857 8.03374 8.87182 7.51953C8.81973 7.44559 8.74263 7.4157 8.67473 7.4372V7.43717C8.60356 7.45975 8.55839 7.53423 8.55904 7.64937V7.64947V12.2899C8.55904 12.5877 8.3149 12.8303 8.01685 12.8303H5.77629C4.75688 12.8303 4.01042 12.4603 3.52071 11.9175C3.03101 11.3747 2.79768 10.6607 2.79699 9.97296C2.79629 9.25935 3.04343 8.54103 3.52852 7.99998C4.01361 7.45894 4.73728 7.09638 5.68311 7.095H5.68314H7.04214V6.16348H5.85167Z" fill="var(--fill-0, white)"/>
</g>
</svg>
