<svg preserveAspectRatio="none" width="100%" height="100%" overflow="visible" style="display: block;" viewBox="0 0 13.3427 13.75" fill="none" xmlns="http://www.w3.org/2000/svg">
<g id="Group">
<path id="Vector" d="M11.7033 11.3189C6.02813 14.0199 2.50603 11.7601 0.251424 10.3875C0.11191 10.301 -0.125215 10.4078 0.0805236 10.6441C0.831646 11.5548 3.29323 13.75 6.50632 13.75C9.72162 13.75 11.6344 11.9956 11.8737 11.6895C12.1114 11.3861 11.9435 11.2187 11.7033 11.3189H11.7033ZM13.2972 10.4387C13.1448 10.2403 12.3705 10.2033 11.8832 10.2631C11.3951 10.3213 10.6626 10.6195 10.7263 10.7986C10.7589 10.8657 10.8257 10.8356 11.1609 10.8055C11.4971 10.7719 12.4389 10.6531 12.6352 10.9096C12.8324 11.1679 12.3348 12.3985 12.2439 12.597C12.1561 12.7954 12.2775 12.8466 12.4424 12.7144C12.605 12.5823 12.8995 12.2401 13.0971 11.7559C13.2933 11.269 13.4131 10.5898 13.2972 10.4387Z" fill="var(--fill-0, #FF9900)"/>
<path id="Vector_2" fill-rule="evenodd" clip-rule="evenodd" d="M7.88739 5.80772C7.88739 6.5164 7.9053 7.10741 7.5471 7.73676C7.25799 8.24849 6.80002 8.56316 6.28835 8.56316C5.58986 8.56316 5.18307 8.03099 5.18307 7.24557C5.18307 5.69511 6.57228 5.41371 7.88739 5.41371V5.80772ZM9.72179 10.2415C9.60153 10.349 9.42755 10.3567 9.29197 10.285C8.68819 9.78358 8.5807 9.55077 8.24812 9.07231C7.25033 10.0906 6.54419 10.395 5.24962 10.395C3.71966 10.395 2.52739 9.45094 2.52739 7.56025C2.52739 6.08405 3.32824 5.07854 4.46668 4.58736C5.45428 4.15237 6.8333 4.07563 7.88739 3.95542V3.72002C7.88739 3.28762 7.92061 2.77594 7.66736 2.40243C7.44474 2.06726 7.02005 1.92909 6.64649 1.92909C5.95318 1.92909 5.33402 2.2847 5.18307 3.02153C5.15233 3.18531 5.03212 3.34651 4.8684 3.35417L3.10303 3.16488C2.95467 3.13155 2.79094 3.01134 2.83188 2.7836C3.23866 0.644775 5.17024 0 6.89974 0C7.78498 0 8.94138 0.2354 9.63987 0.905737C10.5251 1.73209 10.4407 2.83478 10.4407 4.0347V6.86947C10.4407 7.72144 10.7937 8.09495 11.1263 8.55551C11.244 8.71923 11.2696 8.91629 11.1212 9.03903C10.7502 9.34859 10.0901 9.92428 9.72686 10.2467L9.72173 10.2415" fill="var(--fill-0, black)"/>
<path id="Vector_3" d="M11.7033 11.3189C6.02813 14.0199 2.50603 11.7601 0.251424 10.3875C0.11191 10.301 -0.125215 10.4078 0.0805236 10.6441C0.831646 11.5548 3.29323 13.75 6.50632 13.75C9.72162 13.75 11.6344 11.9956 11.8737 11.6895C12.1114 11.3861 11.9435 11.2187 11.7033 11.3189H11.7033ZM13.2972 10.4387C13.1448 10.2403 12.3705 10.2033 11.8832 10.2631C11.3951 10.3213 10.6626 10.6195 10.7263 10.7986C10.7589 10.8657 10.8257 10.8356 11.1609 10.8055C11.4971 10.7719 12.4389 10.6531 12.6352 10.9096C12.8324 11.1679 12.3348 12.3985 12.2439 12.597C12.1561 12.7954 12.2775 12.8466 12.4424 12.7144C12.605 12.5823 12.8995 12.2401 13.0971 11.7559C13.2933 11.269 13.4131 10.5898 13.2972 10.4387Z" fill="var(--fill-0, #FF9900)"/>
<path id="Vector_4" fill-rule="evenodd" clip-rule="evenodd" d="M7.88739 5.80772C7.88739 6.5164 7.9053 7.10741 7.5471 7.73676C7.25799 8.24849 6.80002 8.56316 6.28835 8.56316C5.58986 8.56316 5.18307 8.03099 5.18307 7.24557C5.18307 5.69511 6.57228 5.41371 7.88739 5.41371V5.80772ZM9.72179 10.2415C9.60153 10.349 9.42755 10.3567 9.29197 10.285C8.68819 9.78358 8.5807 9.55077 8.24812 9.07231C7.25033 10.0906 6.54419 10.395 5.24962 10.395C3.71966 10.395 2.52739 9.45094 2.52739 7.56025C2.52739 6.08405 3.32824 5.07854 4.46668 4.58736C5.45428 4.15237 6.8333 4.07563 7.88739 3.95542V3.72002C7.88739 3.28762 7.92061 2.77594 7.66736 2.40243C7.44474 2.06726 7.02005 1.92909 6.64649 1.92909C5.95318 1.92909 5.33402 2.2847 5.18307 3.02153C5.15233 3.18531 5.03212 3.34651 4.8684 3.35417L3.10303 3.16488C2.95467 3.13155 2.79094 3.01134 2.83188 2.7836C3.23866 0.644775 5.17024 0 6.89974 0C7.78498 0 8.94138 0.2354 9.63987 0.905737C10.5251 1.73209 10.4407 2.83478 10.4407 4.0347V6.86947C10.4407 7.72144 10.7937 8.09495 11.1263 8.55551C11.244 8.71923 11.2696 8.91629 11.1212 9.03903C10.7502 9.34859 10.0901 9.92428 9.72686 10.2467L9.72173 10.2415" fill="var(--fill-0, black)"/>
</g>
</svg>
