<svg preserveAspectRatio="none" width="100%" height="100%" overflow="visible" style="display: block;" viewBox="0 0 20 20" fill="none" xmlns="http://www.w3.org/2000/svg">
<g id="Frame">
<rect width="20" height="20" fill="white"/>
<path id="Vector" d="M15.1853 3.75H4.70997V4.27192L5.25993 4.32411C5.67894 4.4024 5.96701 4.55898 6.15033 4.79384C6.33364 5.0548 6.4384 5.47234 6.46459 6.04645C6.67409 8.86482 6.67409 11.5005 6.46459 13.9275C6.41221 14.5016 6.30746 14.9191 6.15033 15.1801C5.96701 15.441 5.67894 15.5976 5.25993 15.6498L4.70997 15.7281V16.25H11.4665V15.7281L10.7595 15.6759C10.3404 15.6237 10.0524 15.441 9.86906 15.2062C9.68574 14.9452 9.58099 14.5277 9.5548 13.9535C9.47623 12.9097 9.42386 11.7093 9.42386 10.3784L10.838 10.4045C11.5975 10.4306 12.1212 11.0047 12.3831 12.1529H12.9069V7.89927H12.3831C12.1212 9.0214 11.6237 9.59551 10.838 9.62161L9.42386 9.6477C9.42386 7.29906 9.47623 5.62891 9.5548 4.61117H11.6237C13.0902 4.61117 14.0854 5.55063 14.6615 7.42954L15.29 7.24687L15.1853 3.75Z" fill="var(--fill-0, black)"/>
</g>
</svg>
