<svg preserveAspectRatio="none" width="100%" height="100%" overflow="visible" style="display: block;" viewBox="0 0 20 20" fill="none" xmlns="http://www.w3.org/2000/svg">
<g id="Frame">
<rect width="20" height="20" fill="#006EDC"/>
<path id="&#240;&#159;&#142;&#168; Color" d="M6.61631 16.1957H4.04502V7.95249H6.61631V16.1957ZM13.1564 7.74839C15.758 7.74847 16.2383 9.45437 16.2384 11.6742V16.1957H13.669V11.971C13.6603 11.0558 13.5554 10.0015 12.3351 10.0013C10.9976 10.0013 10.7931 11.044 10.7931 12.1195V16.1957H8.22764V7.95249H10.6905V9.07944H10.7257C11.0676 8.43126 11.9064 7.74839 13.1564 7.74839ZM5.33018 3.85483C6.15157 3.85483 6.82036 4.52023 6.82042 5.34018C6.82042 6.16109 6.1516 6.82651 5.33018 6.82651C4.50528 6.82632 3.83995 6.16097 3.83995 5.34018C3.84 4.52035 4.50531 3.85502 5.33018 3.85483Z" fill="var(--fill-0, white)"/>
</g>
</svg>
