<svg viewBox="0 0 36 31.5" xmlns="http://www.w3.org/2000/svg">
<g>
<path d="M26.2556 2.22688C25.8042 0.895647 24.5548 -1.52831e-10 23.1491 0L21.1229 2.20496e-10C19.5455 3.92003e-10 18.1914 1.12285 17.8994 2.67307L15.804 13.7988L16.8458 10.2349C17.2546 8.83625 18.5371 7.875 19.9942 7.875L26.4714 7.875L29.2716 11.5393L31.7645 7.875L30.5221 7.875C29.1164 7.875 27.867 6.97935 27.4156 5.64812L26.2556 2.22688Z" fill="url(#paint0_radial_87743_35906)"/>
<path d="M10.1321 29.2582C10.5789 30.5971 11.8321 31.5 13.2436 31.5H16.5426C18.3331 31.5 19.7928 30.0642 19.8223 28.2739L19.9869 18.3032L19.1199 21.266C18.7108 22.6642 17.4285 23.625 15.9717 23.625L9.46941 23.625L6.70114 21.183L4.65834 23.625H5.88881C7.30028 23.625 8.5535 24.5279 9.00031 25.8668L10.1321 29.2582Z" fill="url(#paint1_radial_87743_35906)"/>
<g>
<path d="M22.501 0H9.37699C5.62728 0 3.37746 4.95529 1.87758 9.91058C0.100607 15.7813 -2.2246 23.6329 4.50237 23.6329H10.553C12.0194 23.6329 13.3066 22.6636 13.7094 21.2537C14.6729 17.8813 16.4769 11.5938 17.8829 6.84906C18.5721 4.52308 19.1462 2.52546 20.0273 1.28148C20.5213 0.584048 21.3446 0 22.501 0Z" fill="url(#paint2_radial_87743_35906)"/>
<path d="M22.501 0H9.37699C5.62728 0 3.37746 4.95529 1.87758 9.91058C0.100607 15.7813 -2.2246 23.6329 4.50237 23.6329H10.553C12.0194 23.6329 13.3066 22.6636 13.7094 21.2537C14.6729 17.8813 16.4769 11.5938 17.8829 6.84906C18.5721 4.52308 19.1462 2.52546 20.0273 1.28148C20.5213 0.584048 21.3446 0 22.501 0Z" fill="url(#paint3_linear_87743_35906)"/>
</g>
<g>
<path d="M13.499 31.5H26.623C30.3727 31.5 32.6225 26.5452 34.1224 21.5905C35.8994 15.7204 38.2246 7.86971 31.4976 7.86971H25.4469C23.9806 7.86971 22.6934 8.83901 22.2906 10.2489C21.327 13.6209 19.5231 19.9075 18.1171 24.6517C17.4279 26.9774 16.8538 28.9748 15.9727 30.2187C15.4787 30.916 14.6554 31.5 13.499 31.5Z" fill="url(#paint4_radial_87743_35906)"/>
<path d="M13.499 31.5H26.623C30.3727 31.5 32.6225 26.5452 34.1224 21.5905C35.8994 15.7204 38.2246 7.86971 31.4976 7.86971H25.4469C23.9806 7.86971 22.6934 8.83901 22.2906 10.2489C21.327 13.6209 19.5231 19.9075 18.1171 24.6517C17.4279 26.9774 16.8538 28.9748 15.9727 30.2187C15.4787 30.916 14.6554 31.5 13.499 31.5Z" fill="url(#paint5_linear_87743_35906)"/>
</g>
</g>
<defs>
<radialGradient cx="0" cy="0" r="1" gradientTransform="matrix(-9.04485 -11.2607 -9.7655 9.44512 29.4405 13.889)" gradientUnits="userSpaceOnUse">
<stop offset="0.0955758" stop-color="#00AEFF"/>
<stop offset="0.773185" stop-color="#2253CE"/>
<stop offset="1" stop-color="#0736C4"/>
</radialGradient>
<radialGradient cx="0" cy="0" r="1" gradientTransform="matrix(8.015 9.95221 9.46151 -8.1232 7.43927 22.6486)" gradientUnits="userSpaceOnUse">
<stop stop-color="#FFB657"/>
<stop offset="0.633728" stop-color="#FF5F3D"/>
<stop offset="0.923392" stop-color="#C02B3C"/>
</radialGradient>
<radialGradient cx="0" cy="0" r="1" gradientTransform="matrix(-1.189 -20.9399 117.625 -6.67776 9.05176 23.6246)" gradientUnits="userSpaceOnUse">
<stop offset="0.03" stop-color="#FFC800"/>
<stop offset="0.31" stop-color="#98BD42"/>
<stop offset="0.49" stop-color="#52B471"/>
<stop offset="0.843838" stop-color="#0D91E1"/>
</radialGradient>
<linearGradient x1="10.228" y1="-1.55291e-08" x2="11.2503" y2="23.6329" gradientUnits="userSpaceOnUse">
<stop stop-color="#3DCBFF"/>
<stop offset="0.246674" stop-color="#0588F7" stop-opacity="0"/>
</linearGradient>
<radialGradient cx="0" cy="0" r="1" gradientTransform="matrix(-10.368 29.6384 -35.2864 -13.0809 32.1718 5.55613)" gradientUnits="userSpaceOnUse">
<stop offset="0.0661714" stop-color="#8C48FF"/>
<stop offset="0.5" stop-color="#F2598A"/>
<stop offset="0.895833" stop-color="#FFB152"/>
</radialGradient>
<linearGradient x1="33.2086" y1="6.42702" x2="33.1952" y2="12.8631" gradientUnits="userSpaceOnUse">
<stop offset="0.0581535" stop-color="#F8ADFA"/>
<stop offset="0.708063" stop-color="#A86EDD" stop-opacity="0"/>
</linearGradient>
</defs>
</svg>
