<svg viewBox="0 0 16 16" xmlns="http://www.w3.org/2000/svg">
<g>
<rect fill="#1D9BF0"/>
<path d="M11.9786 5.99136C11.9847 6.07777 11.9847 6.16497 11.9847 6.25217C11.9847 8.92188 9.92087 12 6.147 12C5.03126 12.0016 3.93869 11.6866 3.00002 11.0928C3.16181 11.1117 3.3246 11.1213 3.48754 11.1216C4.41164 11.1226 5.3092 10.8174 6.03569 10.2551C5.60749 10.2474 5.19248 10.108 4.84877 9.8564C4.50505 9.60484 4.24985 9.25375 4.11889 8.85227C4.42626 8.91075 4.74317 8.89898 5.04519 8.81787C4.58091 8.72548 4.16336 8.47786 3.86333 8.11698C3.5633 7.7561 3.39924 7.30417 3.39898 6.83779V6.81219C3.68436 6.96859 4.00369 7.05529 4.33015 7.065C3.89602 6.7791 3.58883 6.34108 3.47109 5.84007C3.35335 5.33906 3.4339 4.8127 3.69637 4.3681C4.2115 4.99217 4.85416 5.5026 5.58264 5.86625C6.31111 6.22991 7.10912 6.43867 7.92485 6.47898C7.82284 6.04594 7.8686 5.59186 8.05506 5.18699C8.24152 4.78213 8.55829 4.44905 8.95636 4.23928C9.35443 4.02952 9.81161 3.95475 10.2572 4.02656C10.7027 4.09836 11.1119 4.31273 11.4212 4.63651C11.8806 4.54726 12.3211 4.3814 12.7237 4.14609C12.5707 4.61387 12.2501 5.01093 11.8218 5.26333C12.2285 5.216 12.6256 5.10894 13 4.94572C12.7252 5.35109 12.3793 5.70514 11.9786 5.99136V5.99136Z" fill="currentColor"/>
</g>
</svg>
