<svg viewBox="0 0 11 11" xmlns="http://www.w3.org/2000/svg">
<g>
<path d="M5.5 0C2.475 0 0 2.475 0 5.5C0 8.525 2.475 11 5.5 11C8.525 11 11 8.525 11 5.5C11 2.475 8.525 0 5.5 0Z" fill="currentColor"/>
<path d="M5.5 0C2.475 0 0 2.475 0 5.5C0 8.525 2.475 11 5.5 11C8.525 11 11 8.525 11 5.5C11 2.475 8.525 0 5.5 0ZM2.70417 7.51667C2.52083 7.5625 2.3375 7.425 2.29167 7.24167C2.24583 7.05833 2.38333 6.875 2.56667 6.82917C4.675 6.37083 6.4625 6.55417 7.92917 7.425C8.1125 7.51667 8.15833 7.74583 8.02083 7.88333C7.92917 8.06667 7.7 8.1125 7.5625 7.975C6.27917 7.24167 4.62917 7.05833 2.70417 7.51667ZM8.70833 6.41667C8.57083 6.6 8.34167 6.69167 8.1125 6.55417C6.64583 5.6375 4.4 5.3625 2.6125 5.9125C2.38333 5.95833 2.15417 5.86667 2.0625 5.6375C2.01667 5.40833 2.10833 5.17917 2.3375 5.0875C4.35417 4.49167 6.82917 4.76667 8.525 5.82083C8.75417 5.95833 8.8 6.23333 8.70833 6.41667ZM8.75417 4.85833C6.96667 3.80417 4.03333 3.7125 2.38333 4.2625C2.10833 4.30833 1.7875 4.17083 1.74167 3.89583C1.65 3.62083 1.7875 3.34583 2.0625 3.25417C3.9875 2.65833 7.24167 2.79583 9.25833 3.9875C9.4875 4.125 9.57917 4.44583 9.44167 4.675C9.30417 4.95 8.98333 5.04167 8.75417 4.85833Z" fill="currentColor"/>
</g>
</svg>
