<svg viewBox="0 0 10.6741 11" xmlns="http://www.w3.org/2000/svg">
<g>
<path d="M9.36268 9.05515C4.82251 11.2159 2.00483 9.40806 0.20114 8.31003C0.0895282 8.24083 -0.100172 8.32621 0.0644188 8.51526C0.665317 9.24386 2.63459 11 5.20506 11C7.7773 11 9.30754 9.59647 9.49897 9.35163C9.6891 9.10887 9.5548 8.97495 9.36264 9.05515H9.36268ZM10.6378 8.35097C10.5159 8.1922 9.8964 8.16261 9.50656 8.2105C9.11612 8.257 8.53006 8.49563 8.58101 8.63891C8.60716 8.69258 8.66052 8.6685 8.92875 8.64439C9.1977 8.61755 9.95115 8.52246 10.1081 8.7277C10.2659 8.93435 9.86784 9.91879 9.79515 10.0776C9.72491 10.2363 9.82198 10.2773 9.95391 10.1715C10.084 10.0658 10.3196 9.79208 10.4777 9.4047C10.6347 9.0152 10.7304 8.47186 10.6378 8.35097Z" fill="currentColor"/>
<path fill-rule="evenodd" clip-rule="evenodd" d="M6.30992 4.64617C6.30992 5.21312 6.32424 5.68592 6.03768 6.18941C5.80639 6.59879 5.44002 6.85053 5.03068 6.85053C4.47189 6.85053 4.14646 6.4248 4.14646 5.79646C4.14646 4.55609 5.25783 4.33097 6.30992 4.33097V4.64617ZM7.77743 8.19323C7.68122 8.27917 7.54204 8.28534 7.43358 8.22801C6.95055 7.82686 6.86456 7.64061 6.5985 7.25785C5.80026 8.07248 5.23535 8.31602 4.1997 8.31602C2.97572 8.31602 2.02191 7.56075 2.02191 6.0482C2.02191 4.86724 2.66259 4.06284 3.57334 3.66989C4.36342 3.32189 5.46664 3.2605 6.30992 3.16434V2.97602C6.30992 2.63009 6.33649 2.22075 6.13389 1.92194C5.9558 1.65381 5.61604 1.54327 5.31719 1.54327C4.76254 1.54327 4.26722 1.82776 4.14646 2.41723C4.12187 2.54825 4.0257 2.67721 3.89472 2.68333L2.48243 2.5319C2.36374 2.50524 2.23276 2.40907 2.2655 2.22688C2.59093 0.51582 4.13619 0 5.51979 0C6.22799 0 7.15311 0.18832 7.7119 0.72459C8.42009 1.38567 8.35253 2.26782 8.35253 3.22776V5.49558C8.35253 6.17715 8.63499 6.47596 8.90105 6.84441C8.99519 6.97539 9.01568 7.13303 8.89695 7.23123C8.60017 7.47887 8.0721 7.93942 7.78149 8.19733L7.77739 8.19323" fill="currentColor"/>
<path d="M9.36268 9.05515C4.82251 11.2159 2.00483 9.40806 0.20114 8.31003C0.0895282 8.24083 -0.100172 8.32621 0.0644188 8.51526C0.665317 9.24386 2.63459 11 5.20506 11C7.7773 11 9.30754 9.59647 9.49897 9.35163C9.6891 9.10887 9.5548 8.97495 9.36264 9.05515H9.36268ZM10.6378 8.35097C10.5159 8.1922 9.8964 8.16261 9.50656 8.2105C9.11612 8.257 8.53006 8.49563 8.58101 8.63891C8.60716 8.69258 8.66052 8.6685 8.92875 8.64439C9.1977 8.61755 9.95115 8.52246 10.1081 8.7277C10.2659 8.93435 9.86784 9.91879 9.79515 10.0776C9.72491 10.2363 9.82198 10.2773 9.95391 10.1715C10.084 10.0658 10.3196 9.79208 10.4777 9.4047C10.6347 9.0152 10.7304 8.47186 10.6378 8.35097Z" fill="currentColor"/>
<path fill-rule="evenodd" clip-rule="evenodd" d="M6.30992 4.64617C6.30992 5.21312 6.32424 5.68592 6.03768 6.18941C5.80639 6.59879 5.44002 6.85053 5.03068 6.85053C4.47189 6.85053 4.14646 6.4248 4.14646 5.79646C4.14646 4.55609 5.25783 4.33097 6.30992 4.33097V4.64617ZM7.77743 8.19323C7.68122 8.27917 7.54204 8.28534 7.43358 8.22801C6.95055 7.82686 6.86456 7.64061 6.5985 7.25785C5.80026 8.07248 5.23535 8.31602 4.1997 8.31602C2.97572 8.31602 2.02191 7.56075 2.02191 6.0482C2.02191 4.86724 2.66259 4.06284 3.57334 3.66989C4.36342 3.32189 5.46664 3.2605 6.30992 3.16434V2.97602C6.30992 2.63009 6.33649 2.22075 6.13389 1.92194C5.9558 1.65381 5.61604 1.54327 5.31719 1.54327C4.76254 1.54327 4.26722 1.82776 4.14646 2.41723C4.12187 2.54825 4.0257 2.67721 3.89472 2.68333L2.48243 2.5319C2.36374 2.50524 2.23276 2.40907 2.2655 2.22688C2.59093 0.51582 4.13619 0 5.51979 0C6.22799 0 7.15311 0.18832 7.7119 0.72459C8.42009 1.38567 8.35253 2.26782 8.35253 3.22776V5.49558C8.35253 6.17715 8.63499 6.47596 8.90105 6.84441C8.99519 6.97539 9.01568 7.13303 8.89695 7.23123C8.60017 7.47887 8.0721 7.93942 7.78149 8.19733L7.77739 8.19323" fill="currentColor"/>
</g>
</svg>
