<svg viewBox="0 0 10.2857 10.2857" xmlns="http://www.w3.org/2000/svg">
<g>
<path fill-rule="evenodd" clip-rule="evenodd" d="M5.14284 6.85713C6.08962 6.85713 6.85713 6.08962 6.85713 5.14284C6.85713 4.19607 6.08962 3.42856 5.14284 3.42856C4.19607 3.42856 3.42856 4.19607 3.42856 5.14284C3.42856 6.08962 4.19607 6.85713 5.14284 6.85713ZM5.14284 7.8857C6.65768 7.8857 7.8857 6.65768 7.8857 5.14284C7.8857 3.628 6.65768 2.39999 5.14284 2.39999C3.628 2.39999 2.39999 3.628 2.39999 5.14284C2.39999 6.65768 3.628 7.8857 5.14284 7.8857Z" fill="currentColor"/>
<circle cx="7.8857" cy="2.4" r="0.685714" fill="currentColor"/>
<path fill-rule="evenodd" clip-rule="evenodd" d="M5.11252 1.5936e-07H5.1732C6.11168 -7.2793e-06 6.85789 -1.31658e-05 7.45223 0.0643798C8.06259 0.130508 8.57349 0.269458 9.01374 0.589319C9.2757 0.779645 9.50607 1.01002 9.6964 1.27198C10.0163 1.71223 10.1552 2.22312 10.2213 2.83348C10.2857 3.42783 10.2857 4.17404 10.2857 5.11253V5.17319C10.2857 6.11168 10.2857 6.85789 10.2213 7.45223C10.1552 8.06259 10.0163 8.57349 9.6964 9.01374C9.50607 9.2757 9.2757 9.50607 9.01374 9.6964C8.57349 10.0163 8.06259 10.1552 7.45223 10.2213C6.85789 10.2857 6.11168 10.2857 5.17319 10.2857H5.11253C4.17404 10.2857 3.42783 10.2857 2.83348 10.2213C2.22312 10.1552 1.71223 10.0163 1.27198 9.6964C1.01002 9.50607 0.779645 9.2757 0.589319 9.01374C0.269458 8.57349 0.130508 8.06259 0.0643798 7.45223C-1.31658e-05 6.85789 -7.2793e-06 6.11168 1.5936e-07 5.1732V5.11252C-7.2793e-06 4.17403 -1.31658e-05 3.42782 0.0643798 2.83348C0.130508 2.22312 0.269458 1.71223 0.589319 1.27198C0.779645 1.01002 1.01002 0.779645 1.27198 0.589319C1.71223 0.269458 2.22312 0.130508 2.83348 0.0643798C3.42782 -1.31658e-05 4.17403 -7.2793e-06 5.11252 1.5936e-07ZM2.94427 1.08697C2.42143 1.14361 2.11225 1.25021 1.87656 1.42145C1.70192 1.54833 1.54833 1.70192 1.42145 1.87656C1.25021 2.11225 1.14361 2.42143 1.08697 2.94427C1.02928 3.47674 1.02857 4.16718 1.02857 5.14286C1.02857 6.11853 1.02928 6.80897 1.08697 7.34144C1.14361 7.86429 1.25021 8.17347 1.42145 8.40916C1.54833 8.5838 1.70192 8.73738 1.87656 8.86426C2.11225 9.0355 2.42143 9.1421 2.94427 9.19875C3.47674 9.25644 4.16718 9.25714 5.14286 9.25714C6.11853 9.25714 6.80897 9.25644 7.34144 9.19875C7.86429 9.1421 8.17347 9.0355 8.40916 8.86426C8.5838 8.73738 8.73738 8.5838 8.86426 8.40916C9.0355 8.17347 9.1421 7.86429 9.19875 7.34144C9.25644 6.80897 9.25714 6.11853 9.25714 5.14286C9.25714 4.16718 9.25644 3.47674 9.19875 2.94427C9.1421 2.42143 9.0355 2.11225 8.86426 1.87656C8.73738 1.70192 8.5838 1.54833 8.40916 1.42145C8.17347 1.25021 7.86429 1.14361 7.34144 1.08697C6.80897 1.02928 6.11853 1.02857 5.14286 1.02857C4.16718 1.02857 3.47674 1.02928 2.94427 1.08697Z" fill="currentColor"/>
</g>
</svg>
