<svg viewBox="0 0 20 20" xmlns="http://www.w3.org/2000/svg">
<g>
<rect fill="#004022"/>
<path d="M13.0149 3.75075C12.5007 3.73972 11.8893 3.8506 11.1968 4.0788C11.0929 4.11521 11.0108 4.17272 10.9368 4.24549C10.2324 4.90623 9.54719 5.60669 8.89948 6.33087L8.84979 6.38584C8.83602 6.40141 8.83434 6.42461 8.84447 6.44259C8.85497 6.46079 8.87546 6.47019 8.89594 6.46565L8.9687 6.45058C10.0125 6.2276 11.0664 6.05644 12.1001 5.94342C12.1681 5.93593 12.2384 5.95921 12.2891 6.00548C12.3399 6.05222 12.3694 6.11889 12.3681 6.18813C12.351 7.21329 12.3876 8.24351 12.479 9.25059L12.4852 9.3162C12.4875 9.33631 12.5013 9.35251 12.5216 9.35787C12.5252 9.35878 12.5286 9.35969 12.5331 9.35969C12.5484 9.35991 12.5638 9.3527 12.5731 9.3393L12.6112 9.28522C13.1936 8.45484 13.8277 7.64761 14.4942 6.8842C14.5688 6.79926 14.5884 6.74584 14.6024 6.66874C14.8122 5.32681 14.4884 4.33436 14.1987 4.0833C13.9471 3.86533 13.582 3.76298 13.015 3.75081L13.0149 3.75075ZM11.416 6.46919L11.3521 6.47804C10.3548 6.61528 9.34521 6.80541 8.35111 7.04283C8.25257 7.07034 8.1893 7.13433 8.17542 7.14922C7.43144 8.03953 6.72677 8.97659 6.08043 9.93682C6.04812 9.98538 6.04494 10.1017 6.04494 10.1017C6.04494 10.1017 6.2071 11.3525 6.44425 12.274C5.85662 13.9626 5.33241 16.1876 5.33241 16.1876C5.32832 16.2021 5.33105 16.2171 5.3395 16.2293C5.34836 16.2415 5.3624 16.2492 5.37766 16.2497H5.71219C5.73336 16.25 5.75181 16.2372 5.75922 16.2178L5.7823 16.1548C6.12368 15.2244 6.51279 14.3059 6.94293 13.4107C7.04307 13.2021 7.25438 12.7812 7.25438 12.7812C7.28909 12.7128 7.45122 12.4021 7.48775 12.3325L7.49397 12.3201C8.57706 10.2786 9.89739 8.35292 11.4169 6.59686L11.4586 6.54899C11.4714 6.53373 11.4741 6.51162 11.4648 6.49402C11.4548 6.47627 11.4354 6.46655 11.416 6.46918L11.416 6.46919ZM11.8756 6.85399C11.8568 6.84695 11.8352 6.85172 11.8224 6.86729L11.7807 6.91605C10.0089 8.96353 8.51988 11.2361 7.35464 13.6705L7.3271 13.7272C7.31825 13.7452 7.32165 13.7669 7.3351 13.7813C7.34432 13.7908 7.3565 13.7962 7.36972 13.7964C7.37563 13.7966 7.38321 13.7955 7.38926 13.7928L7.44782 13.7679C8.44294 13.356 9.4595 12.999 10.4692 12.7075C10.5296 12.69 10.5799 12.6481 10.6085 12.5922C11.0512 11.7302 12.0788 10.0618 12.0788 10.0618C12.1052 10.0241 12.0992 9.96778 12.0992 9.96778C12.0992 9.96778 11.9187 7.9721 11.9075 6.96207L11.9066 6.89823C11.9057 6.87821 11.894 6.8606 11.8756 6.85388L11.8756 6.85399ZM9.2482 13.5561L9.16568 13.5845C8.63074 13.7621 7.83932 14.0351 7.12925 14.3612C7.09122 14.379 7.06625 14.4286 7.06625 14.4286C7.05303 14.4589 7.03699 14.4969 7.01833 14.5394L7.01561 14.5447C6.93607 14.7256 6.82568 14.9979 6.77869 15.1086L6.7423 15.1964C6.73662 15.2103 6.74003 15.2258 6.75116 15.2363C6.75775 15.2425 6.76534 15.2457 6.7751 15.246C6.7801 15.246 6.78583 15.2451 6.7911 15.2424L6.87716 15.2016C7.07141 15.1093 7.31764 14.9695 7.5755 14.847L7.58435 14.8425C8.07469 14.61 8.62808 14.3477 8.9615 14.189C8.9615 14.1888 9.01516 14.1601 9.04225 14.1065L9.29159 13.6065C9.29817 13.5934 9.29627 13.5777 9.28705 13.5666C9.27692 13.5557 9.26187 13.5514 9.24802 13.5559L9.2482 13.5561Z" fill="currentColor"/>
</g>
</svg>
