<svg viewBox="0 0 11 11" xmlns="http://www.w3.org/2000/svg">
<g>
<path d="M11 5.49971C11 8.53744 8.53757 11 5.5 11C2.46243 11 2.23547e-07 8.53744 2.23547e-07 5.49971C2.23547e-07 2.75436 2.01127 0.478878 4.64063 0.0662469V3.90979H3.24414V5.49971H4.64063V6.7115C4.64063 8.09001 5.46174 8.85145 6.71806 8.85145C7.3198 8.85145 7.94922 8.74402 7.94922 8.74402V7.39044H7.25568C6.57245 7.39044 6.35938 6.96645 6.35938 6.53148V5.49971H7.88477L7.64092 3.90979H6.35938V0.0662469C8.98873 0.478878 11 2.75436 11 5.49971Z" fill="currentColor"/>
<path d="M7.64092 3.91036L7.88477 5.50029H6.35938V6.53205C6.35938 6.96703 6.57245 7.39101 7.25568 7.39101H7.94922V8.74459C7.94922 8.74459 7.3198 8.85202 6.71806 8.85202C5.46174 8.85202 4.64063 8.09058 4.64063 6.71207V5.50029H3.24414V3.91036H4.64063V0.066819C4.92064 0.0228829 5.20764 0 5.5 0C5.79236 0 6.07936 0.0228829 6.35938 0.066819V3.91036H7.64092Z" fill="currentColor"/>
</g>
</svg>
