<svg viewBox="0 0 11 11.2351" xmlns="http://www.w3.org/2000/svg">
<g>
<path d="M10.8944 4.57535H5.61716V6.73512H8.64947C8.60072 7.04077 8.49127 7.34146 8.33098 7.61564C8.14734 7.92977 7.9203 8.16892 7.6876 8.35105C6.99054 8.8966 6.17787 9.00816 5.61348 9.00816C4.18775 9.00816 2.96956 8.067 2.49797 6.78813C2.47894 6.74172 2.4663 6.69378 2.45091 6.64639C2.3467 6.32091 2.28976 5.97618 2.28976 5.6179C2.28976 5.24501 2.35142 4.88807 2.46384 4.55096C2.9073 3.22138 4.15295 2.22832 5.61451 2.22832C5.90848 2.22832 6.19157 2.26406 6.46004 2.33535C7.07357 2.49826 7.50756 2.81912 7.77349 3.07292L9.37808 1.46794C8.40202 0.553874 7.12962 1.382e-09 5.61184 1.382e-09C4.39847 -2.66736e-05 3.27823 0.386103 2.36023 1.03868C1.61577 1.56789 1.0052 2.27645 0.593141 3.09936C0.209867 3.86237 0 4.70792 0 5.61705C0 6.52622 0.210187 7.38056 0.593463 8.13652V8.14161C0.998296 8.94415 1.5903 9.63515 2.30982 10.1619C2.9384 10.6222 4.06549 11.2351 5.61184 11.2351C6.5011 11.2351 7.28923 11.0713 7.98429 10.7644C8.4857 10.5431 8.92995 10.2543 9.33217 9.88321C9.86363 9.39286 10.2798 8.78635 10.5639 8.08854C10.848 7.39073 11 6.60164 11 5.74612C11 5.34769 10.9608 4.94306 10.8944 4.57531V4.57535Z" fill="currentColor"/>
</g>
</svg>
