<svg viewBox="0 0 13.8021 14.6806" xmlns="http://www.w3.org/2000/svg">
<g>
<g filter="url(#filter0_f_87743_35822)">
<path d="M2.16909 8.54862C2.17492 9.44344 2.42456 10.3667 2.80244 11.112V11.1171C3.07547 11.6584 3.44863 12.0859 3.87365 12.5095L6.44066 11.5529C5.95499 11.3009 5.88088 11.1465 5.53274 10.8648C5.17697 10.4984 4.91182 10.0777 4.74669 9.58449H4.74003L4.74669 9.57936C4.63805 9.25365 4.62733 8.90792 4.62333 8.54862H2.16909Z" fill="url(#paint0_radial_87743_35822)"/>
</g>
<g filter="url(#filter1_f_87743_35822)">
<path d="M7.86722 2.85256C7.6135 3.76297 7.71051 4.64792 7.86722 5.16283C8.16021 5.16305 8.44246 5.19872 8.71008 5.26978C9.32362 5.4327 9.75757 5.75357 10.0235 6.00737L11.6692 4.36138C10.6943 3.44841 9.52103 2.854 7.86722 2.85256Z" fill="url(#paint1_radial_87743_35822)"/>
</g>
<g filter="url(#filter2_f_87743_35822)">
<path d="M7.86172 2.84536C6.6172 2.84533 5.46821 3.24137 4.52665 3.9107C4.17705 4.15922 3.85622 4.4463 3.57055 4.76555C3.49571 5.48265 4.13078 6.36405 5.38841 6.35676C5.99861 5.63179 6.90107 5.16274 7.90552 5.16274C7.90644 5.16274 7.90733 5.16282 7.90825 5.16282L7.86723 2.84552C7.86537 2.84552 7.86358 2.84536 7.86172 2.84536Z" fill="url(#paint2_radial_87743_35822)"/>
</g>
<g filter="url(#filter3_f_87743_35822)">
<path d="M11.9693 8.8081L10.8585 9.58753C10.8098 9.89319 10.7002 10.1939 10.54 10.468C10.3563 10.7822 10.1293 11.0213 9.89659 11.2035C9.20098 11.7479 8.39046 11.86 7.82621 11.8605C7.24301 12.875 7.14076 13.3831 7.86723 14.202C8.76616 14.2013 9.5631 14.0355 10.266 13.7252C10.7742 13.5008 11.2244 13.2082 11.632 12.8321C12.1706 12.3352 12.5925 11.7205 12.8804 11.0134C13.1683 10.3062 13.3222 9.50654 13.3222 8.63955L11.9693 8.8081Z" fill="url(#paint3_radial_87743_35822)"/>
</g>
<g filter="url(#filter4_f_87743_35822)">
<path d="M7.78518 7.38671V9.71059H13.1296C13.1766 9.39233 13.3321 8.98049 13.3321 8.63955C13.3321 8.24112 13.2929 7.75446 13.2265 7.38671H7.78518Z" fill="currentColor"/>
</g>
<g filter="url(#filter5_f_87743_35822)">
<path d="M3.59605 4.6835C3.26625 5.05206 2.98449 5.46459 2.76109 5.91074C2.37783 6.67374 2.16797 7.60134 2.16797 8.51047C2.16797 8.52329 2.16901 8.53582 2.16909 8.54861C2.33883 8.88101 4.51371 8.81736 4.62333 8.54861C4.62319 8.53607 4.62181 8.52384 4.62181 8.51127C4.62181 8.13839 4.68349 7.86355 4.79591 7.52643C4.9346 7.11061 5.15176 6.72769 5.42944 6.39777C5.49239 6.31569 5.6603 6.13923 5.70928 6.03339C5.72794 5.99307 5.6754 5.97044 5.67247 5.95625C5.66918 5.94038 5.59874 5.95314 5.58296 5.94132C5.53285 5.90378 5.43363 5.88418 5.37338 5.86676C5.2446 5.82951 5.03118 5.74738 4.91263 5.66225C4.53793 5.39313 3.95316 5.07167 3.59605 4.6835Z" fill="url(#paint4_radial_87743_35822)"/>
</g>
<g filter="url(#filter6_f_87743_35822)">
<path d="M4.92067 5.95785C5.78958 6.49544 6.03946 5.68649 6.61717 5.43336L5.61223 3.30485C5.24256 3.46354 4.89329 3.6607 4.56923 3.89107C4.08527 4.2351 3.65789 4.65492 3.30485 5.13268L4.92067 5.95785Z" fill="url(#paint5_radial_87743_35822)"/>
</g>
<g filter="url(#filter7_f_87743_35822)">
<path d="M5.27433 11.3884C4.10793 11.8185 3.92532 11.8339 3.81796 12.5722C4.02313 12.7767 4.24357 12.9659 4.47783 13.1374C5.10641 13.5976 6.31552 14.2105 7.86186 14.2105C7.86368 14.2105 7.86541 14.2104 7.86723 14.2104V11.8194C7.86606 11.8194 7.86471 11.8195 7.86354 11.8195C7.28449 11.8195 6.82177 11.6642 6.34734 11.394C6.23036 11.3274 6.01814 11.5063 5.91026 11.4263C5.76147 11.3161 5.40338 11.5213 5.27433 11.3884Z" fill="url(#paint6_radial_87743_35822)"/>
</g>
<g opacity="0.5" filter="url(#filter8_f_87743_35822)">
<path d="M7.18412 11.7441V14.169C7.40048 14.1948 7.62565 14.2105 7.86186 14.2105C8.09865 14.2105 8.32773 14.1981 8.55033 14.1753V11.7605C8.30087 11.804 8.06593 11.8195 7.86354 11.8195C7.63045 11.8195 7.40376 11.7918 7.18412 11.7441Z" fill="url(#paint7_linear_87743_35822)"/>
</g>
</g>
<defs>
<filter x="1.69901" y="8.07854" filterUnits="userSpaceOnUse" color-interpolation-filters="sRGB">
<feFlood flood-opacity="0" result="BackgroundImageFix"/>
<feBlend mode="normal" in="SourceGraphic" in2="BackgroundImageFix" result="shape"/>
<feGaussianBlur stdDeviation="0.23504" result="effect1_foregroundBlur_87743_35822"/>
</filter>
<filter x="7.24114" y="2.38248" filterUnits="userSpaceOnUse" color-interpolation-filters="sRGB">
<feFlood flood-opacity="0" result="BackgroundImageFix"/>
<feBlend mode="normal" in="SourceGraphic" in2="BackgroundImageFix" result="shape"/>
<feGaussianBlur stdDeviation="0.23504" result="effect1_foregroundBlur_87743_35822"/>
</filter>
<filter x="3.09454" y="2.37528" filterUnits="userSpaceOnUse" color-interpolation-filters="sRGB">
<feFlood flood-opacity="0" result="BackgroundImageFix"/>
<feBlend mode="normal" in="SourceGraphic" in2="BackgroundImageFix" result="shape"/>
<feGaussianBlur stdDeviation="0.23504" result="effect1_foregroundBlur_87743_35822"/>
</filter>
<filter x="6.88525" y="8.16947" filterUnits="userSpaceOnUse" color-interpolation-filters="sRGB">
<feFlood flood-opacity="0" result="BackgroundImageFix"/>
<feBlend mode="normal" in="SourceGraphic" in2="BackgroundImageFix" result="shape"/>
<feGaussianBlur stdDeviation="0.23504" result="effect1_foregroundBlur_87743_35822"/>
</filter>
<filter x="7.3151" y="6.91663" filterUnits="userSpaceOnUse" color-interpolation-filters="sRGB">
<feFlood flood-opacity="0" result="BackgroundImageFix"/>
<feBlend mode="normal" in="SourceGraphic" in2="BackgroundImageFix" result="shape"/>
<feGaussianBlur stdDeviation="0.23504" result="effect1_foregroundBlur_87743_35822"/>
</filter>
<filter x="1.69789" y="4.21342" filterUnits="userSpaceOnUse" color-interpolation-filters="sRGB">
<feFlood flood-opacity="0" result="BackgroundImageFix"/>
<feBlend mode="normal" in="SourceGraphic" in2="BackgroundImageFix" result="shape"/>
<feGaussianBlur stdDeviation="0.23504" result="effect1_foregroundBlur_87743_35822"/>
</filter>
<filter x="0" y="0" filterUnits="userSpaceOnUse" color-interpolation-filters="sRGB">
<feFlood flood-opacity="0" result="BackgroundImageFix"/>
<feBlend mode="normal" in="SourceGraphic" in2="BackgroundImageFix" result="shape"/>
<feGaussianBlur stdDeviation="1.65243" result="effect1_foregroundBlur_87743_35822"/>
</filter>
<filter x="3.34788" y="10.9088" filterUnits="userSpaceOnUse" color-interpolation-filters="sRGB">
<feFlood flood-opacity="0" result="BackgroundImageFix"/>
<feBlend mode="normal" in="SourceGraphic" in2="BackgroundImageFix" result="shape"/>
<feGaussianBlur stdDeviation="0.23504" result="effect1_foregroundBlur_87743_35822"/>
</filter>
<filter x="6.71404" y="11.274" filterUnits="userSpaceOnUse" color-interpolation-filters="sRGB">
<feFlood flood-opacity="0" result="BackgroundImageFix"/>
<feBlend mode="normal" in="SourceGraphic" in2="BackgroundImageFix" result="shape"/>
<feGaussianBlur stdDeviation="0.23504" result="effect1_foregroundBlur_87743_35822"/>
</filter>
<radialGradient cx="0" cy="0" r="1" gradientUnits="userSpaceOnUse" gradientTransform="translate(6.38927 12.4252) rotate(-92.3395) scale(5.59969 8.22527)">
<stop offset="0.141612" stop-color="#1ABD4D"/>
<stop offset="0.247515" stop-color="#6EC30D"/>
<stop offset="0.311547" stop-color="#8AC502"/>
<stop offset="0.366013" stop-color="#A2C600"/>
<stop offset="0.445673" stop-color="#C8C903"/>
<stop offset="0.540305" stop-color="#EBCB03"/>
<stop offset="0.615636" stop-color="#F7CD07"/>
<stop offset="0.699345" stop-color="#FDCD04"/>
<stop offset="0.771242" stop-color="#FDCE05"/>
<stop offset="0.860566" stop-color="#FFCE0A"/>
</radialGradient>
<radialGradient cx="0" cy="0" r="1" gradientTransform="matrix(3.88193 -9.52906e-06 -5.45621e-06 5.01331 11.5152 5.88828)" gradientUnits="userSpaceOnUse">
<stop offset="0.408458" stop-color="#FB4E5A"/>
<stop offset="1" stop-color="#FF4540"/>
</radialGradient>
<radialGradient cx="0" cy="0" r="1" gradientUnits="userSpaceOnUse" gradientTransform="translate(9.39526 2.11966) rotate(151.02) scale(6.21736 8.43692)">
<stop offset="0.231273" stop-color="#FF4541"/>
<stop offset="0.311547" stop-color="#FF4540"/>
<stop offset="0.457516" stop-color="#FF4640"/>
<stop offset="0.540305" stop-color="#FF473F"/>
<stop offset="0.699346" stop-color="#FF5138"/>
<stop offset="0.771242" stop-color="#FF5B33"/>
<stop offset="0.860566" stop-color="#FF6C29"/>
<stop offset="1" stop-color="#FF8C18"/>
</radialGradient>
<radialGradient cx="0" cy="0" r="1" gradientUnits="userSpaceOnUse" gradientTransform="translate(7.94809 13.4748) rotate(-127.454) scale(16.2196 5.98704)">
<stop offset="0.131546" stop-color="#0CBA65"/>
<stop offset="0.209784" stop-color="#0BB86D"/>
<stop offset="0.297297" stop-color="#09B479"/>
<stop offset="0.396257" stop-color="#08AD93"/>
<stop offset="0.477124" stop-color="#0AA6A9"/>
<stop offset="0.568425" stop-color="#0D9CC6"/>
<stop offset="0.667385" stop-color="#1893DD"/>
<stop offset="0.768727" stop-color="#258BF1"/>
<stop offset="0.858506" stop-color="#3086FF"/>
</radialGradient>
<radialGradient cx="0" cy="0" r="1" gradientUnits="userSpaceOnUse" gradientTransform="translate(7.38522 3.90647) rotate(96.6178) scale(6.05682 8.3746)">
<stop offset="0.366013" stop-color="#FF4E3A"/>
<stop offset="0.457516" stop-color="#FF8A1B"/>
<stop offset="0.540305" stop-color="#FFA312"/>
<stop offset="0.615636" stop-color="#FFB60C"/>
<stop offset="0.771242" stop-color="#FFCD0A"/>
<stop offset="0.860566" stop-color="#FECF0A"/>
<stop offset="0.915033" stop-color="#FECF08"/>
<stop offset="1" stop-color="#FDCD01"/>
</radialGradient>
<radialGradient cx="0" cy="0" r="1" gradientUnits="userSpaceOnUse" gradientTransform="translate(6.40361 3.84407) rotate(132.119) scale(3.00837 8.48524)">
<stop offset="0.315904" stop-color="#FF4C3C"/>
<stop offset="0.603818" stop-color="#FF692C"/>
<stop offset="0.726837" stop-color="#FF7825"/>
<stop offset="0.884534" stop-color="#FF8D1B"/>
<stop offset="1" stop-color="#FF9F13"/>
</radialGradient>
<radialGradient cx="0" cy="0" r="1" gradientUnits="userSpaceOnUse" gradientTransform="translate(9.39527 14.9021) rotate(-151.02) scale(6.21736 8.43692)">
<stop offset="0.231273" stop-color="#0FBC5F"/>
<stop offset="0.311547" stop-color="#0FBC5F"/>
<stop offset="0.366013" stop-color="#0FBC5E"/>
<stop offset="0.457516" stop-color="#0FBC5D"/>
<stop offset="0.540305" stop-color="#12BC58"/>
<stop offset="0.699346" stop-color="#28BF3C"/>
<stop offset="0.771242" stop-color="#38C02B"/>
<stop offset="0.860566" stop-color="#52C218"/>
<stop offset="0.915033" stop-color="#67C30F"/>
<stop offset="1" stop-color="#86C504"/>
</radialGradient>
<linearGradient x1="7.18412" y1="12.9773" x2="8.55033" y2="12.9773" gradientUnits="userSpaceOnUse">
<stop stop-color="#0FBC5C"/>
<stop offset="1" stop-color="#0CBA65"/>
</linearGradient>
</defs>
</svg>
