<svg viewBox="0 0 10.9819 11" xmlns="http://www.w3.org/2000/svg">
<g>
<path d="M5.49548 0C2.46053 0 0 2.46053 0 5.49548C0 7.82484 1.44737 9.81497 3.49178 10.6155C3.44202 10.1813 3.40132 9.51192 3.50987 9.03701C3.60938 8.60732 4.15214 6.3051 4.15214 6.3051C4.15214 6.3051 3.98931 5.97492 3.98931 5.49095C3.98931 4.72656 4.43257 4.15666 4.98438 4.15666C5.45477 4.15666 5.68092 4.50946 5.68092 4.9301C5.68092 5.40049 5.3824 6.10609 5.2241 6.76192C5.09293 7.30921 5.5 7.75699 6.03824 7.75699C7.01521 7.75699 7.76604 6.72574 7.76604 5.24219C7.76604 3.92599 6.82072 3.00781 5.46834 3.00781C3.90337 3.00781 2.9852 4.17928 2.9852 5.39145C2.9852 5.86184 3.16612 6.36842 3.39227 6.64433C3.4375 6.6986 3.44202 6.74835 3.42845 6.80263C3.38775 6.97451 3.29276 7.34992 3.27467 7.42681C3.25206 7.52632 3.19326 7.54893 3.08923 7.49918C2.40173 7.17804 1.97204 6.17845 1.97204 5.36883C1.97204 3.63651 3.22944 2.04441 5.60403 2.04441C7.50822 2.04441 8.99178 3.40132 8.99178 5.21957C8.99178 7.11472 7.7977 8.63898 6.14227 8.63898C5.58594 8.63898 5.06127 8.34951 4.88487 8.00576C4.88487 8.00576 4.60896 9.0551 4.54112 9.31291C4.419 9.79235 4.08429 10.3894 3.85814 10.7558C4.37377 10.9141 4.91653 11 5.48643 11C8.52138 11 10.9819 8.53947 10.9819 5.50452C10.991 2.46053 8.53043 0 5.49548 0Z" fill="currentColor"/>
</g>
</svg>
