<svg viewBox="0 0 13 4.24892" xmlns="http://www.w3.org/2000/svg">
<g>
<path d="M4.34357 4.24892V1.70294e-08H0V4.24892H4.34357Z" fill="currentColor"/>
<path d="M8.70719 4.24892V0H4.34316V4.24892H8.70719Z" fill="currentColor"/>
<path d="M13 4.24892V0H8.70762V4.24892H13Z" fill="currentColor"/>
<g>
<path d="M2.62589 3.27727V1.99057C2.62589 1.80127 2.59008 1.66314 2.51589 1.57361C2.44171 1.48408 2.32404 1.44315 2.15777 1.44315C2.07079 1.4457 1.98894 1.46873 1.9122 1.5071C1.8329 1.54291 1.76127 1.59919 1.70755 1.66825V3.27983H1.18827V1.04153H1.5643L1.66151 1.25129C1.8022 1.08758 2.01196 1.00572 2.29079 1.00572C2.55682 1.00572 2.76658 1.08502 2.92007 1.24362C3.07355 1.40222 3.15029 1.62477 3.15029 1.90871V3.27983L2.62589 3.27727Z" fill="currentColor"/>
<path d="M6.4834 3.32177C6.82362 3.32177 7.09478 3.22201 7.29175 3.02504C7.48872 2.82807 7.58848 2.54668 7.58848 2.18088C7.58848 1.39556 7.23291 1.00418 6.51922 1.00418C6.34015 0.999065 6.16621 1.06557 6.0383 1.19092V1.04255H5.51646V3.87175H6.03575V3.22457C6.17644 3.29108 6.32992 3.32433 6.4834 3.32177ZM6.36829 1.44928C6.60875 1.44928 6.78014 1.503 6.88502 1.61044C6.9899 1.71788 7.04106 1.90461 7.04106 2.16809C7.04106 2.41622 6.98734 2.59529 6.88502 2.7104C6.78014 2.82551 6.60875 2.88179 6.36829 2.88179C6.24806 2.88435 6.13039 2.84342 6.0383 2.76668V1.59509C6.12272 1.503 6.24295 1.45184 6.36829 1.44928Z" fill="currentColor"/>
<path d="M11.466 1.53012C11.3739 1.47128 11.269 1.44059 11.1616 1.44315C11.0413 1.44315 10.9339 1.49687 10.8418 1.60686C10.7472 1.71942 10.696 1.86267 10.7011 2.00848V3.27727H10.1793V1.04153H10.7011V1.25641C10.8469 1.09014 11.0388 1.00572 11.2818 1.00572C11.4583 1.00572 11.5939 1.03386 11.6885 1.08758L11.466 1.53012Z" fill="currentColor"/>
</g>
</g>
</svg>
