<svg viewBox="0 0 11 9.17981" xmlns="http://www.w3.org/2000/svg">
<g>
<path d="M10.1478 6.94859C10.2079 6.94472 10.2639 6.97927 10.2874 7.03474C10.311 7.09022 10.2969 7.15451 10.2523 7.19506C9.56152 7.82332 8.69304 8.33789 7.80932 8.76311C7.92691 8.84471 8.04126 8.89614 8.17908 8.89614C8.39533 8.89614 8.55383 8.76961 8.75762 8.59842C8.94782 8.43866 9.1833 8.23425 9.51862 8.23425C9.85395 8.23425 10.0894 8.43866 10.2796 8.59842C10.4834 8.76961 10.6419 8.89614 10.8582 8.89614C10.9365 8.89614 11 8.95964 11 9.03798C11 9.11631 10.9365 9.17981 10.8582 9.17981C10.5228 9.17981 10.2874 8.9754 10.0972 8.81564C9.89338 8.64446 9.73487 8.51792 9.51862 8.51792C9.30238 8.51792 9.14387 8.64446 8.94009 8.81564C8.74989 8.9754 8.51441 9.17981 8.17908 9.17981C7.87654 9.17981 7.65531 9.01337 7.47525 8.8635C7.45389 8.85337 7.43499 8.83787 7.42071 8.81784C7.41984 8.8171 7.41895 8.81637 7.41808 8.81564C7.21429 8.64446 7.05579 8.51792 6.83954 8.51792C6.62329 8.51792 6.46479 8.64446 6.261 8.81564C6.07081 8.9754 5.83533 9.17981 5.5 9.17981C5.16467 9.17981 4.92919 8.9754 4.739 8.81564C4.53521 8.64446 4.37671 8.51792 4.16046 8.51792C3.94421 8.51792 3.78571 8.64446 3.58192 8.81564C3.39172 8.9754 3.15625 9.17981 2.82092 9.17981C2.81527 9.17981 2.80963 9.17947 2.80402 9.17879C2.36816 9.12649 2.08552 8.91561 1.87897 8.72972C1.76966 8.63133 1.69981 8.55811 1.62382 8.49685C1.55881 8.44443 1.51885 8.42709 1.49098 8.42395C1.4349 8.43477 1.37914 8.45255 1.32363 8.47583C1.31294 8.48732 1.30019 8.49725 1.28549 8.50493C1.26734 8.51442 1.24807 8.51954 1.22887 8.52077C1.08881 8.59437 0.949855 8.69775 0.810373 8.80691C0.700596 8.89282 0.587943 8.984 0.484106 9.05183C0.383741 9.11738 0.264973 9.17981 0.141834 9.17981C0.0635012 9.17981 0 9.11631 0 9.03798C0 8.95964 0.0635012 8.89614 0.141834 8.89614C0.176288 8.89614 0.234813 8.87583 0.328976 8.81433C0.419667 8.75509 0.518782 8.67489 0.635543 8.58351C0.750101 8.49386 0.880752 8.39381 1.02372 8.3104L0.733193 7.7547C0.710958 7.71217 0.711732 7.66128 0.735255 7.61945C0.758783 7.57762 0.801879 7.55053 0.849772 7.54744L10.1478 6.94859ZM1.08559 7.81651L1.28023 8.18876C1.33795 8.16821 1.39708 8.15209 1.45741 8.14174L1.46337 8.14085C1.46934 8.14009 1.47535 8.1397 1.48138 8.1397C1.61079 8.1397 1.71714 8.2077 1.80186 8.276C1.88346 8.3418 1.98106 8.43997 2.06873 8.51887C2.25463 8.68618 2.48195 8.85213 2.82918 8.89607C3.04122 8.89288 3.19827 8.76742 3.39946 8.59842C3.58965 8.43866 3.82513 8.23425 4.16046 8.23425C4.49579 8.23425 4.73127 8.43866 4.92146 8.59842C5.12525 8.76961 5.28375 8.89614 5.5 8.89614C5.71625 8.89614 5.87475 8.76961 6.07854 8.59842C6.26873 8.43866 6.50421 8.23425 6.83954 8.23425C7.15286 8.23425 7.379 8.41272 7.56248 8.56647C8.34094 8.19977 9.10214 7.76886 9.73972 7.25911L1.08559 7.81651ZM1.51174 0.0484579C1.55218 0.00223144 1.61778 -0.0127229 1.67426 0.0114297C2.7072 0.4532 3.92538 1.28538 4.95053 2.41289C5.97607 3.54082 6.81504 4.97174 7.07575 6.61243C7.08377 6.6629 7.06401 6.71379 7.02404 6.74563C6.98406 6.77747 6.93003 6.78533 6.88263 6.76622C4.59319 5.84303 2.86115 6.33585 1.65514 7.08002C1.59662 7.11613 1.52062 7.10506 1.47483 7.05375C1.42905 7.00244 1.42667 6.92567 1.46919 6.87162C3.30363 4.53994 2.48982 1.88119 1.49664 0.214454C1.4652 0.161691 1.4713 0.0946844 1.51174 0.0484579ZM4.43309 1.19736C4.46356 1.13444 4.53535 1.1031 4.60221 1.12354C5.42906 1.37637 6.39885 2.10331 7.25207 3.07129C8.10789 4.04222 8.86111 5.27208 9.24474 6.55139C9.26034 6.6034 9.24487 6.65974 9.20492 6.6965C9.16496 6.73326 9.10752 6.74399 9.05699 6.72413C8.84144 6.63939 8.67741 6.56452 8.49094 6.52457C8.31184 6.48619 8.11182 6.48104 7.84226 6.5499C7.76734 6.56903 7.6909 6.52463 7.6704 6.45008C7.11361 4.42469 6.12271 2.51198 4.48006 1.37583C4.42256 1.33605 4.40262 1.2603 4.43309 1.19736ZM1.958 0.456676C2.80134 2.05099 3.40224 4.38181 2.04991 6.53946C3.23207 5.96582 4.79875 5.69247 6.75185 6.41179C6.46081 4.94052 5.68717 3.64473 4.74066 2.60371C3.87106 1.64729 2.86056 0.911576 1.958 0.456676ZM5.58651 1.94145C6.71785 3.09424 7.45167 4.64354 7.90753 6.24484C8.15534 6.19785 8.36039 6.20648 8.55038 6.24719C8.66518 6.27179 8.77452 6.30848 8.88139 6.34906C8.49042 5.21775 7.80943 4.13261 7.03927 3.25886C6.56812 2.72434 6.06822 2.27411 5.58651 1.94145Z" fill="currentColor"/>
</g>
</svg>
