<svg viewBox="0 0 11 7.72341" xmlns="http://www.w3.org/2000/svg">
<g>
<path d="M10.7701 6.51737C10.6436 6.99211 10.2709 7.36595 9.79763 7.49282C8.93981 7.72341 5.5 7.72341 5.5 7.72341C5.5 7.72341 2.06021 7.72341 1.20237 7.49282C0.7291 7.36595 0.356348 6.99211 0.229858 6.51737C0 5.65694 0 3.8617 0 3.8617C0 3.8617 0 2.06649 0.229858 1.20598C0.356348 0.731294 0.7291 0.35746 1.20237 0.230529C2.06021 0 5.5 0 5.5 0C5.5 0 8.93981 0 9.79763 0.230529C10.2709 0.35746 10.6436 0.731294 10.7701 1.20598C11 2.06649 11 3.8617 11 3.8617C11 3.8617 11 5.65694 10.7701 6.51737Z" fill="currentColor"/>
<path d="M4.37526 2.23169L7.25026 3.86155L4.37526 5.49156V2.23169Z" fill="currentColor"/>
</g>
</svg>
