<svg viewBox="0 0 16.3089 17.407" xmlns="http://www.w3.org/2000/svg">
<g>
<g filter="url(#filter0_f_87743_36039)">
<path d="M1.88515 9.85956C1.89244 10.9781 2.20449 12.1321 2.67683 13.0638V13.0702C3.01812 13.7467 3.48457 14.2812 4.01584 14.8107L7.22461 13.6149C6.61753 13.2999 6.52489 13.1069 6.08972 12.7547C5.64501 12.2967 5.31356 11.7709 5.10715 11.1544H5.09883L5.10715 11.148C4.97135 10.7409 4.95796 10.3087 4.95295 9.85956H1.88515Z" fill="url(#paint0_radial_87743_36039)"/>
</g>
<g filter="url(#filter1_f_87743_36039)">
<path d="M9.00782 2.73949C8.69066 3.8775 8.81193 4.98369 9.00782 5.62732C9.37405 5.6276 9.72686 5.67219 10.0614 5.76102C10.8283 5.96466 11.3707 6.36575 11.7032 6.683L13.7602 4.62551C12.5416 3.4843 11.0751 2.74128 9.00782 2.73949Z" fill="url(#paint1_radial_87743_36039)"/>
</g>
<g filter="url(#filter2_f_87743_36039)">
<path d="M9.00094 2.73048C7.44529 2.73045 6.00905 3.2255 4.8321 4.06216C4.3951 4.37281 3.99407 4.73167 3.63698 5.13072C3.54343 6.02711 4.33726 7.12885 5.90931 7.11973C6.67205 6.21353 7.80013 5.62721 9.05569 5.62721C9.05684 5.62721 9.05795 5.62731 9.0591 5.62731L9.00782 2.73069C9.0055 2.73069 9.00326 2.73048 9.00094 2.73048Z" fill="url(#paint2_radial_87743_36039)"/>
</g>
<g filter="url(#filter3_f_87743_36039)">
<path d="M14.1355 10.1839L12.7469 11.1582C12.686 11.5403 12.5491 11.9161 12.3487 12.2588C12.1192 12.6515 11.8354 12.9505 11.5445 13.1781C10.675 13.8587 9.66186 13.9988 8.95655 13.9994C8.22755 15.2675 8.09974 15.9027 9.00783 16.9262C10.1315 16.9254 11.1277 16.7182 12.0063 16.3303C12.6415 16.0498 13.2043 15.684 13.7138 15.2139C14.387 14.5928 14.9144 13.8244 15.2742 12.9405C15.6341 12.0565 15.8266 11.057 15.8266 9.97322L14.1355 10.1839Z" fill="url(#paint3_radial_87743_36039)"/>
</g>
<g filter="url(#filter4_f_87743_36039)">
<path d="M8.90526 8.40718V11.312H15.5858C15.6445 10.9142 15.8389 10.3994 15.8389 9.97322C15.8389 9.47519 15.7899 8.86687 15.7069 8.40718H8.90526Z" fill="currentColor"/>
</g>
<g filter="url(#filter5_f_87743_36039)">
<path d="M3.66886 5.02816C3.2566 5.48887 2.9044 6.00453 2.62515 6.56221C2.14607 7.51596 1.88375 8.67547 1.88375 9.81188C1.88375 9.82789 1.88505 9.84356 1.88515 9.85955C2.09732 10.2751 4.81592 10.1955 4.95295 9.85955C4.95278 9.84387 4.95105 9.82859 4.95105 9.81288C4.95105 9.34678 5.02815 9.00322 5.16868 8.58183C5.34204 8.06205 5.61349 7.5834 5.96059 7.171C6.03928 7.0684 6.24916 6.84783 6.31039 6.71552C6.33372 6.66513 6.26804 6.63684 6.26437 6.6191C6.26026 6.59926 6.17221 6.61522 6.15248 6.60044C6.08985 6.55352 5.96583 6.52901 5.89051 6.50724C5.72954 6.46068 5.46276 6.35802 5.31458 6.25159C4.84619 5.9152 4.11524 5.51338 3.66886 5.02816Z" fill="url(#paint4_radial_87743_36039)"/>
</g>
<g filter="url(#filter6_f_87743_36039)">
<path d="M5.32462 6.6211C6.41076 7.29309 6.72312 6.2819 7.44525 5.96548L6.18908 3.30485C5.72699 3.50322 5.29041 3.74967 4.88532 4.03762C4.28037 4.46767 3.74615 4.99244 3.30485 5.58964L5.32462 6.6211Z" fill="url(#paint5_radial_87743_36039)"/>
</g>
<g filter="url(#filter7_f_87743_36039)">
<path d="M5.7667 13.4093C4.3087 13.9469 4.08044 13.9662 3.94623 14.8891C4.2027 15.1447 4.47825 15.3812 4.77107 15.5955C5.55679 16.1708 7.06818 16.937 9.00111 16.937C9.00338 16.937 9.00555 16.9368 9.00782 16.9368V13.9481C9.00636 13.9481 9.00468 13.9482 9.00322 13.9482C8.2794 13.9482 7.701 13.754 7.10796 13.4163C6.96174 13.3331 6.69646 13.5566 6.56161 13.4567C6.37562 13.3189 5.92802 13.5755 5.7667 13.4093Z" fill="url(#paint6_radial_87743_36039)"/>
</g>
<g opacity="0.5" filter="url(#filter8_f_87743_36039)">
<path d="M8.15394 13.8539V16.885C8.42439 16.9173 8.70585 16.937 9.00111 16.937C9.2971 16.937 9.58345 16.9214 9.8617 16.8929V13.8744C9.54988 13.9288 9.2562 13.9482 9.00321 13.9482C8.71185 13.9482 8.42849 13.9135 8.15394 13.8539Z" fill="url(#paint7_linear_87743_36039)"/>
</g>
</g>
<defs>
<filter x="1.41507" y="9.38948" filterUnits="userSpaceOnUse" color-interpolation-filters="sRGB">
<feFlood flood-opacity="0" result="BackgroundImageFix"/>
<feBlend mode="normal" in="SourceGraphic" in2="BackgroundImageFix" result="shape"/>
<feGaussianBlur stdDeviation="0.23504" result="effect1_foregroundBlur_87743_36039"/>
</filter>
<filter x="8.34273" y="2.26941" filterUnits="userSpaceOnUse" color-interpolation-filters="sRGB">
<feFlood flood-opacity="0" result="BackgroundImageFix"/>
<feBlend mode="normal" in="SourceGraphic" in2="BackgroundImageFix" result="shape"/>
<feGaussianBlur stdDeviation="0.23504" result="effect1_foregroundBlur_87743_36039"/>
</filter>
<filter x="3.15948" y="2.2604" filterUnits="userSpaceOnUse" color-interpolation-filters="sRGB">
<feFlood flood-opacity="0" result="BackgroundImageFix"/>
<feBlend mode="normal" in="SourceGraphic" in2="BackgroundImageFix" result="shape"/>
<feGaussianBlur stdDeviation="0.23504" result="effect1_foregroundBlur_87743_36039"/>
</filter>
<filter x="7.89787" y="9.50314" filterUnits="userSpaceOnUse" color-interpolation-filters="sRGB">
<feFlood flood-opacity="0" result="BackgroundImageFix"/>
<feBlend mode="normal" in="SourceGraphic" in2="BackgroundImageFix" result="shape"/>
<feGaussianBlur stdDeviation="0.23504" result="effect1_foregroundBlur_87743_36039"/>
</filter>
<filter x="8.43519" y="7.9371" filterUnits="userSpaceOnUse" color-interpolation-filters="sRGB">
<feFlood flood-opacity="0" result="BackgroundImageFix"/>
<feBlend mode="normal" in="SourceGraphic" in2="BackgroundImageFix" result="shape"/>
<feGaussianBlur stdDeviation="0.23504" result="effect1_foregroundBlur_87743_36039"/>
</filter>
<filter x="1.41367" y="4.55808" filterUnits="userSpaceOnUse" color-interpolation-filters="sRGB">
<feFlood flood-opacity="0" result="BackgroundImageFix"/>
<feBlend mode="normal" in="SourceGraphic" in2="BackgroundImageFix" result="shape"/>
<feGaussianBlur stdDeviation="0.23504" result="effect1_foregroundBlur_87743_36039"/>
</filter>
<filter x="0" y="0" filterUnits="userSpaceOnUse" color-interpolation-filters="sRGB">
<feFlood flood-opacity="0" result="BackgroundImageFix"/>
<feBlend mode="normal" in="SourceGraphic" in2="BackgroundImageFix" result="shape"/>
<feGaussianBlur stdDeviation="1.65243" result="effect1_foregroundBlur_87743_36039"/>
</filter>
<filter x="3.47615" y="12.9273" filterUnits="userSpaceOnUse" color-interpolation-filters="sRGB">
<feFlood flood-opacity="0" result="BackgroundImageFix"/>
<feBlend mode="normal" in="SourceGraphic" in2="BackgroundImageFix" result="shape"/>
<feGaussianBlur stdDeviation="0.23504" result="effect1_foregroundBlur_87743_36039"/>
</filter>
<filter x="7.68386" y="13.3839" filterUnits="userSpaceOnUse" color-interpolation-filters="sRGB">
<feFlood flood-opacity="0" result="BackgroundImageFix"/>
<feBlend mode="normal" in="SourceGraphic" in2="BackgroundImageFix" result="shape"/>
<feGaussianBlur stdDeviation="0.23504" result="effect1_foregroundBlur_87743_36039"/>
</filter>
<radialGradient cx="0" cy="0" r="1" gradientUnits="userSpaceOnUse" gradientTransform="translate(7.16037 14.7053) rotate(-92.3395) scale(6.99962 10.2816)">
<stop offset="0.141612" stop-color="#1ABD4D"/>
<stop offset="0.247515" stop-color="#6EC30D"/>
<stop offset="0.311547" stop-color="#8AC502"/>
<stop offset="0.366013" stop-color="#A2C600"/>
<stop offset="0.445673" stop-color="#C8C903"/>
<stop offset="0.540305" stop-color="#EBCB03"/>
<stop offset="0.615636" stop-color="#F7CD07"/>
<stop offset="0.699345" stop-color="#FDCD04"/>
<stop offset="0.771242" stop-color="#FDCE05"/>
<stop offset="0.860566" stop-color="#FFCE0A"/>
</radialGradient>
<radialGradient cx="0" cy="0" r="1" gradientTransform="matrix(4.85241 -1.19113e-05 -6.82026e-06 6.26663 13.5678 6.53413)" gradientUnits="userSpaceOnUse">
<stop offset="0.408458" stop-color="#FB4E5A"/>
<stop offset="1" stop-color="#FF4540"/>
</radialGradient>
<radialGradient cx="0" cy="0" r="1" gradientUnits="userSpaceOnUse" gradientTransform="translate(10.9179 1.82337) rotate(151.02) scale(7.77171 10.5461)">
<stop offset="0.231273" stop-color="#FF4541"/>
<stop offset="0.311547" stop-color="#FF4540"/>
<stop offset="0.457516" stop-color="#FF4640"/>
<stop offset="0.540305" stop-color="#FF473F"/>
<stop offset="0.699346" stop-color="#FF5138"/>
<stop offset="0.771242" stop-color="#FF5B33"/>
<stop offset="0.860566" stop-color="#FF6C29"/>
<stop offset="1" stop-color="#FF8C18"/>
</radialGradient>
<radialGradient cx="0" cy="0" r="1" gradientUnits="userSpaceOnUse" gradientTransform="translate(9.1089 16.0173) rotate(-127.454) scale(20.2744 7.4838)">
<stop offset="0.131546" stop-color="#0CBA65"/>
<stop offset="0.209784" stop-color="#0BB86D"/>
<stop offset="0.297297" stop-color="#09B479"/>
<stop offset="0.396257" stop-color="#08AD93"/>
<stop offset="0.477124" stop-color="#0AA6A9"/>
<stop offset="0.568425" stop-color="#0D9CC6"/>
<stop offset="0.667385" stop-color="#1893DD"/>
<stop offset="0.768727" stop-color="#258BF1"/>
<stop offset="0.858506" stop-color="#3086FF"/>
</radialGradient>
<radialGradient cx="0" cy="0" r="1" gradientUnits="userSpaceOnUse" gradientTransform="translate(8.40531 4.05687) rotate(96.6178) scale(7.57102 10.4683)">
<stop offset="0.366013" stop-color="#FF4E3A"/>
<stop offset="0.457516" stop-color="#FF8A1B"/>
<stop offset="0.540305" stop-color="#FFA312"/>
<stop offset="0.615636" stop-color="#FFB60C"/>
<stop offset="0.771242" stop-color="#FFCD0A"/>
<stop offset="0.860566" stop-color="#FECF0A"/>
<stop offset="0.915033" stop-color="#FECF08"/>
<stop offset="1" stop-color="#FDCD01"/>
</radialGradient>
<radialGradient cx="0" cy="0" r="1" gradientUnits="userSpaceOnUse" gradientTransform="translate(7.1783 3.97887) rotate(132.119) scale(3.76046 10.6065)">
<stop offset="0.315904" stop-color="#FF4C3C"/>
<stop offset="0.603818" stop-color="#FF692C"/>
<stop offset="0.726837" stop-color="#FF7825"/>
<stop offset="0.884534" stop-color="#FF8D1B"/>
<stop offset="1" stop-color="#FF9F13"/>
</radialGradient>
<radialGradient cx="0" cy="0" r="1" gradientUnits="userSpaceOnUse" gradientTransform="translate(10.9179 17.8014) rotate(-151.02) scale(7.77171 10.5461)">
<stop offset="0.231273" stop-color="#0FBC5F"/>
<stop offset="0.311547" stop-color="#0FBC5F"/>
<stop offset="0.366013" stop-color="#0FBC5E"/>
<stop offset="0.457516" stop-color="#0FBC5D"/>
<stop offset="0.540305" stop-color="#12BC58"/>
<stop offset="0.699346" stop-color="#28BF3C"/>
<stop offset="0.771242" stop-color="#38C02B"/>
<stop offset="0.860566" stop-color="#52C218"/>
<stop offset="0.915033" stop-color="#67C30F"/>
<stop offset="1" stop-color="#86C504"/>
</radialGradient>
<linearGradient x1="8.15394" y1="15.3955" x2="9.8617" y2="15.3955" gradientUnits="userSpaceOnUse">
<stop stop-color="#0FBC5C"/>
<stop offset="1" stop-color="#0CBA65"/>
</linearGradient>
</defs>
</svg>
