<svg viewBox="0 0 10.5283 11" xmlns="http://www.w3.org/2000/svg">
<g>
<path d="M0.661857 0.474552L6.74837 0.0249907C7.49603 -0.039138 7.68808 0.00409111 8.15821 0.345855L10.1011 1.71456C10.4215 1.94995 10.5282 2.01408 10.5282 2.27038V9.77696C10.5282 10.2474 10.3574 10.5257 9.75934 10.5682L2.69132 10.9963C2.24253 11.0175 2.0288 10.9534 1.79374 10.6539L0.362993 8.79336C0.106368 8.45094 0 8.19464 0 7.89501V1.22254C0 0.837875 0.170827 0.517121 0.661857 0.474552Z" fill="currentColor"/>
<path fill-rule="evenodd" clip-rule="evenodd" d="M6.74837 0.0251007L0.661857 0.474662C0.170827 0.517121 0 0.837985 0 1.22254V7.89501C0 8.19453 0.106368 8.45083 0.362993 8.79336L1.79374 10.6538C2.0288 10.9533 2.24253 11.0175 2.69132 10.9962L9.75945 10.5683C10.3571 10.5257 10.5283 10.2474 10.5283 9.77707V2.27049C10.5283 2.02739 10.4323 1.95732 10.1496 1.74987L8.15821 0.345854C7.68819 0.0040911 7.49603 -0.039138 6.74837 0.0249907V0.0251007ZM2.85115 2.14762C2.27399 2.18645 2.14309 2.19525 1.8153 1.92872L0.981951 1.26588C0.897253 1.18008 0.939822 1.07305 1.15322 1.05171L7.00434 0.624149C7.4957 0.58125 7.75155 0.752517 7.94372 0.902114L8.94723 1.6292C8.99013 1.65087 9.09683 1.7788 8.96846 1.7788L2.92594 2.14256L2.85115 2.14762ZM2.17829 9.71294V3.34044C2.17829 3.06214 2.26376 2.93377 2.51961 2.91221L9.45982 2.50588C9.69521 2.48465 9.80158 2.63425 9.80158 2.9121V9.24215C9.80158 9.52045 9.75868 9.75584 9.37446 9.77707L2.73312 10.1621C2.34889 10.1833 2.1784 10.0554 2.1784 9.71294H2.17829ZM8.73416 3.68209C8.77673 3.87459 8.73416 4.06708 8.54167 4.08908L8.22157 4.15255V8.85749C7.94361 9.00709 7.68775 9.09255 7.47392 9.09255C7.13215 9.09255 7.04679 8.98553 6.79083 8.66499L4.69757 5.37166V8.55796L5.35976 8.70789C5.35976 8.70789 5.35976 9.09288 4.8255 9.09288L3.35263 9.17835C3.30973 9.09255 3.35263 8.87883 3.50189 8.83626L3.88656 8.72956V4.51664L3.35274 4.47341C3.30984 4.28092 3.41653 4.00295 3.71573 3.98139L5.29607 3.87503L7.47403 7.21093V4.25969L6.91887 4.19589C6.87597 3.96016 7.04679 3.7889 7.26019 3.768L8.73416 3.68209Z" fill="currentColor"/>
</g>
</svg>
