<svg viewBox="0 0 16 16" xmlns="http://www.w3.org/2000/svg">
<g>
<path d="M13.193 0H2.80702C1.25674 0 0 1.25674 0 2.80702V13.193C0 14.7433 1.25674 16 2.80702 16H13.193C14.7433 16 16 14.7433 16 13.193V2.80702C16 1.25674 14.7433 0 13.193 0Z" fill="currentColor"/>
<path d="M16 11.0114V12.4645C15.9087 12.4733 15.815 12.4778 15.7187 12.4778C14.0009 12.4778 13.0338 11.047 12.9921 9.25661C12.9909 9.18739 12.9914 9.11861 12.9929 9.0503C12.9938 9.00769 12.9955 8.96522 12.9977 8.92291C12.9988 8.9003 12.9998 8.87907 13.0015 8.85538C13.0032 8.83168 13.0049 8.80799 13.0069 8.7843C13.0688 7.99382 13.3232 7.29039 13.7432 6.76993C14.0042 6.44683 14.3177 6.20068 14.6733 6.03605C14.9856 5.87882 15.4245 5.79204 15.7823 5.79204H15.7978C15.8656 5.79204 15.933 5.7943 16 5.79877V6.19857C15.9289 6.17908 15.8528 6.16863 15.7719 6.16729C15.0482 6.18221 14.617 7.049 14.5633 8.24997H16V8.58844H14.5308L14.5303 8.58875C14.4641 9.75891 15.1046 10.7478 16 11.0114Z" fill="currentColor"/>
<path d="M13.0643 3.82226L13.0769 3.81949V3.72179H10.5002L8.10767 9.34506L5.71513 3.72179H2.93842V3.81949L2.95089 3.82226C3.4212 3.92842 3.65998 4.08673 3.65998 4.65767V11.3417C3.65998 11.9127 3.42028 12.071 2.94997 12.1772L2.9375 12.1799V12.2779H4.82141V12.1802L4.80895 12.1775C4.33863 12.0713 4.09984 11.913 4.09984 11.3421V5.04539L7.17333 12.2779H7.34764L10.5107 4.84368V11.5071C10.4704 11.9581 10.2338 12.0973 9.80789 12.1935L9.79527 12.1964V12.2933H13.0769V12.1964L13.0643 12.1935C12.638 12.0973 12.3957 11.9581 12.3554 11.5071L12.3532 4.65767H12.3554C12.3554 4.08673 12.5941 3.92842 13.0643 3.82226Z" fill="currentColor"/>
</g>
</svg>
