<svg viewBox="0 0 19.5 20" xmlns="http://www.w3.org/2000/svg">
<path d="M10.5 0.75C10.5 0.335786 10.1642 0 9.75 0C9.33579 0 9 0.335786 9 0.75L9 19.25C9 19.6642 9.33579 20 9.75 20C10.1642 20 10.5 19.6642 10.5 19.25L10.5 0.75ZM2.25 2C1.00736 2 0 3.00736 0 4.25V15.75C0 16.9926 1.00736 18 2.25 18H8V16.5H2.25C1.83579 16.5 1.5 16.1642 1.5 15.75V4.25C1.5 3.83579 1.83579 3.5 2.25 3.5H8V2H2.25ZM17.25 16.5H11.5V18H17.25C18.4926 18 19.5 16.9926 19.5 15.75V4.25C19.5 3.00736 18.4926 2 17.25 2H11.5V3.5H17.25C17.6642 3.5 18 3.83579 18 4.25V15.75C18 16.1642 17.6642 16.5 17.25 16.5Z" fill="currentColor"/>
</svg>
