<svg viewBox="0 0 16 16" xmlns="http://www.w3.org/2000/svg">
<g>
<rect fill="#FFF500"/>
<path d="M7.46739 4.94022H7.65217L7.67391 4.85326H5.34783L5.32609 4.94022H5.66304C5.95652 4.94022 6.19565 5.14674 6.19565 5.54892C6.19565 5.77718 6.09783 6.07066 5.93478 6.42935L4.42391 9.76631L4.05435 5.42935C4.02174 5.09239 4.19565 4.94022 4.57609 4.94022H4.79348L4.81522 4.85326H1.53261L1.5 4.94022H1.70652C1.96739 4.94022 2.06522 5.10326 2.08696 5.40761L2.67391 11.0163H4.05435L6.36956 6.11413C6.72826 5.38587 7.09783 4.94022 7.46739 4.94022ZM7.19565 11.038C6.98913 11.038 6.8587 10.9728 6.8587 10.625C6.8587 10.1902 7.02174 9.33152 7.19565 8.54892C7.21739 8.90761 7.46739 9.26631 7.83696 9.26631C7.92391 9.26631 8 9.25544 8.07609 9.24457C7.72826 10.7337 7.59783 11.038 7.19565 11.038ZM13.7826 8.09239C14.2174 8.09239 14.5 7.7337 14.5 7.32065C14.5 6.97283 14.25 6.71196 13.8913 6.71196C13.25 6.71196 12.9457 7.22283 12.413 8.15761C12.3043 7.57066 12.0326 6.80979 11.3587 6.80979C10.5978 6.80979 9.71739 7.89674 8.91304 8.57066C8.54348 8.88587 8.1413 9.08152 7.81522 9.08152C7.47826 9.08152 7.28261 8.74457 7.28261 8.14674C7.52174 7.16848 7.6413 6.91848 8.01087 6.91848C8.26087 6.91848 8.36957 7.05979 8.36957 7.35326C8.36957 7.66848 8.30435 8.19022 8.16304 8.85326C8.52174 8.74457 9.06522 8.28805 9.52174 7.79892C9.28261 7.22283 8.76087 6.83152 8.02174 6.83152C6.6413 6.83152 5.42391 8.07066 5.42391 9.46196C5.42391 10.4185 6.1087 11.1467 7.17391 11.1467C8.93478 11.1467 9.67391 9.625 9.67391 8.55979C9.67391 8.40761 9.66304 8.29892 9.65217 8.15761C9.92391 7.86413 10.2717 7.58152 10.5543 7.58152C10.8804 7.58152 11.1413 8.39674 11.3913 9.625C11.163 9.875 10.9348 10.3533 10.8261 10.4402C10.7826 10.0054 10.4891 9.7337 10.1087 9.7337C9.67391 9.7337 9.38043 10.1467 9.38043 10.4946C9.38043 10.8859 9.65217 11.1467 10.0109 11.1467C10.7609 11.1467 10.9674 10.4402 11.4348 9.80979C11.5761 10.4837 11.913 11.1467 12.4891 11.1467C13.1739 11.1467 13.8043 10.5598 14.1304 10.1467L14.0652 10.0489C13.8587 10.2554 13.6522 10.3859 13.413 10.3859C12.9891 10.3859 12.6848 9.47283 12.4565 8.36413C12.5978 8.17935 12.8152 7.70109 12.9674 7.52718C13.0652 7.72283 13.2826 8.09239 13.7826 8.09239Z" fill="currentColor"/>
</g>
</svg>
