<svg viewBox="0 0 31.585 33" xmlns="http://www.w3.org/2000/svg">
<g>
<path d="M1.98557 1.42366L20.2451 0.0749721C22.4881 -0.117414 23.0642 0.0122733 24.4746 1.03756L30.3033 5.14367C31.2646 5.84986 31.5847 6.04225 31.5847 6.81113V29.3309C31.5847 30.7423 31.0722 31.5772 29.278 31.7045L8.07395 32.9889C6.72758 33.0526 6.0864 32.8602 5.38121 31.9616L1.08898 26.3801C0.319104 25.3528 0 24.5839 0 23.685V3.66761C0 2.51363 0.51248 1.55136 1.98557 1.42366Z" fill="currentColor"/>
<path fill-rule="evenodd" clip-rule="evenodd" d="M20.2451 0.0753021L1.98557 1.42399C0.51248 1.55136 0 2.51395 0 3.66761V23.685C0 24.5836 0.319104 25.3525 1.08898 26.3801L5.38121 31.9613C6.0864 32.8598 6.72758 33.0526 8.07395 32.9885L29.2784 31.7049C31.0712 31.5771 31.585 30.7423 31.585 29.3312V6.81146C31.585 6.08218 31.2969 5.87197 30.4488 5.2496L24.4746 1.03756C23.0646 0.0122733 22.4881 -0.117414 20.2451 0.0749721V0.0753021ZM8.55344 6.44286C6.82196 6.55935 6.42927 6.58575 5.44589 5.78617L2.94585 3.79763C2.69176 3.54024 2.81947 3.21915 3.45965 3.15513L21.013 1.87245C22.4871 1.74375 23.2547 2.25755 23.8312 2.70634L26.8417 4.8876C26.9704 4.95261 27.2905 5.33639 26.9054 5.33639L8.77783 6.42768L8.55344 6.44286ZM6.53486 29.1388V10.0213C6.53486 9.18643 6.79127 8.80132 7.55883 8.73664L28.3795 7.51765C29.0856 7.45396 29.4047 7.90275 29.4047 8.73631V27.7265C29.4047 28.5613 29.276 29.2675 28.1234 29.3312L8.19935 30.4862C7.04668 30.5499 6.53519 30.1661 6.53519 29.1388H6.53486ZM26.2025 11.0463C26.3302 11.6238 26.2025 12.2012 25.625 12.2672L24.6647 12.4577V26.5725C23.8308 27.0213 23.0633 27.2777 22.4217 27.2777C21.3965 27.2777 21.1404 26.9566 20.3725 25.995L14.0927 16.115V25.6739L16.0793 26.1237C16.0793 26.1237 16.0793 27.2787 14.4765 27.2787L10.0579 27.5351C9.92918 27.2777 10.0579 26.6365 10.5057 26.5088L11.6597 26.1887V13.5499L10.0582 13.4202C9.92951 12.8428 10.2496 12.0089 11.1472 11.9442L15.8882 11.6251L22.4221 21.6328V12.7791L20.7566 12.5877C20.6279 11.8805 21.1404 11.3667 21.7806 11.304L26.2025 11.0463Z" fill="currentColor"/>
</g>
</svg>
