<svg viewBox="0 0 16.0021 15.317" xmlns="http://www.w3.org/2000/svg">
<path d="M7.10433 0.557434C7.47114 -0.185814 8.53099 -0.185809 8.8978 0.557435L10.8282 4.46893L15.1448 5.09617C15.9651 5.21535 16.2926 6.22333 15.699 6.80186L12.5755 9.84654L13.3129 14.1457C13.453 14.9626 12.5956 15.5856 11.8619 15.1999L8.00106 13.1701L4.14018 15.1999C3.40655 15.5856 2.54913 14.9626 2.68924 14.1457L3.4266 9.84654L0.303081 6.80186C-0.290438 6.22332 0.0370772 5.21535 0.857295 5.09617L5.17389 4.46893L7.10433 0.557434ZM8.00106 0.999999L6.07062 4.9115C5.92496 5.20664 5.6434 5.41121 5.31769 5.45854L1.00109 6.08578L4.12461 9.13045C4.3603 9.36019 4.46784 9.69119 4.41221 10.0156L3.67484 14.3147L7.53572 12.285C7.82705 12.1318 8.17508 12.1318 8.4664 12.285L12.3273 14.3147L11.5899 10.0156C11.5343 9.69119 11.6418 9.36019 11.8775 9.13045L15.001 6.08578L10.6844 5.45854C10.3587 5.41121 10.0772 5.20664 9.9315 4.9115L8.00106 0.999999Z" fill="currentColor"/>
</svg>
