<svg viewBox="0 0 48 48" xmlns="http://www.w3.org/2000/svg">
<g>
<rect fill="#004022"/>
<path d="M31.2358 9.0018C30.0017 8.97532 28.5344 9.24143 26.8723 9.78913C26.6229 9.87651 26.4258 10.0145 26.2483 10.1892C24.5578 11.7749 22.9133 13.456 21.3588 15.1941L21.2395 15.326C21.2065 15.3634 21.2024 15.4191 21.2267 15.4622C21.2519 15.5059 21.3011 15.5284 21.3503 15.5176L21.5249 15.4814C24.0301 14.9462 26.5594 14.5355 29.0402 14.2642C29.2036 14.2462 29.372 14.3021 29.4938 14.4132C29.6156 14.5253 29.6867 14.6853 29.6834 14.8515C29.6424 17.3119 29.7303 19.7844 29.9496 22.2014L29.9645 22.3589C29.97 22.4071 30.0032 22.446 30.0518 22.4589C30.0606 22.4611 30.0686 22.4632 30.0796 22.4632C30.1162 22.4638 30.153 22.4465 30.1754 22.4143L30.267 22.2845C31.6647 20.2916 33.1864 18.3543 34.786 16.5221C34.9651 16.3182 35.0122 16.19 35.0458 16.005C35.5494 12.7843 34.7721 10.4025 34.0768 9.79992C33.473 9.27679 32.5968 9.03115 31.2359 9.00194L31.2358 9.0018ZM27.3983 15.5261L27.245 15.5473C24.8515 15.8767 22.4285 16.333 20.0427 16.9028C19.8062 16.9688 19.6543 17.1224 19.621 17.1581C17.8355 19.2949 16.1442 21.5438 14.593 23.8484C14.5155 23.9649 14.5079 24.2442 14.5079 24.2442C14.5079 24.2442 14.897 27.2461 15.4662 29.4576C14.0559 33.5103 12.7978 38.8503 12.7978 38.8503C12.788 38.885 12.7945 38.9212 12.8148 38.9504C12.8361 38.9795 12.8698 38.9982 12.9064 38.9993H13.7093C13.7601 39.0001 13.8043 38.9693 13.8221 38.9227L13.8775 38.7716C14.6968 36.5385 15.6307 34.3341 16.663 32.1856C16.9034 31.6851 17.4105 30.6748 17.4105 30.6748C17.4938 30.5108 17.8829 29.7651 17.9706 29.5981L17.9855 29.5683C20.5849 24.6686 23.7537 20.047 27.4005 15.8325L27.5006 15.7176C27.5314 15.681 27.5379 15.6279 27.5155 15.5856C27.4915 15.543 27.4449 15.5197 27.3984 15.526L27.3983 15.5261ZM28.5014 16.4496C28.4564 16.4327 28.4045 16.4441 28.3737 16.4815L28.2736 16.5985C24.0213 21.5125 20.4477 26.9666 17.6511 32.8092L17.585 32.9453C17.5638 32.9885 17.572 33.0405 17.6042 33.0751C17.6264 33.098 17.6556 33.111 17.6873 33.1113C17.7015 33.1119 17.7197 33.1091 17.7342 33.1026L17.8748 33.043C20.2631 32.0543 22.7028 31.1977 25.126 30.498C25.2711 30.4559 25.3918 30.3554 25.4604 30.2214C26.5228 28.1526 28.9891 24.1482 28.9891 24.1482C29.0525 24.0579 29.0381 23.9227 29.0381 23.9227C29.0381 23.9227 28.6049 19.133 28.5781 16.709L28.5759 16.5558C28.5737 16.5077 28.5456 16.4654 28.5014 16.4493L28.5014 16.4496ZM22.1957 32.5346L21.9976 32.6027C20.7138 33.029 18.8144 33.6842 17.1102 34.4668C17.0189 34.5096 16.959 34.6285 16.959 34.6285C16.9273 34.7014 16.8888 34.7925 16.844 34.8945L16.8375 34.9073C16.6466 35.3414 16.3816 35.9949 16.2689 36.2606L16.1815 36.4713C16.1679 36.5047 16.1761 36.5419 16.2028 36.5671C16.2186 36.5821 16.2368 36.5896 16.2602 36.5905C16.2722 36.5905 16.286 36.5883 16.2986 36.5818L16.5052 36.484C16.9714 36.2624 17.5623 35.9267 18.1812 35.6328L18.2025 35.6219C19.3793 35.0641 20.7074 34.4345 21.5076 34.0536C21.5076 34.053 21.6364 33.9842 21.7014 33.8557L22.2998 32.6555C22.3156 32.6242 22.311 32.5866 22.2889 32.5598C22.2646 32.5336 22.2285 32.5233 22.1952 32.5343L22.1957 32.5346Z" fill="currentColor"/>
</g>
</svg>
