<svg viewBox="0 0 11 7.2428" xmlns="http://www.w3.org/2000/svg">
<g>
<path d="M2.57934 0H0V7.2428H2.57934L3.6214 6.20074V4.12115L3.12255 3.6223L3.6214 3.12346V1.04206L2.57934 0ZM1.08642 3.07819V1.08642H2.12848L2.53498 1.49292V2.67259L2.12848 3.07819M2.12848 4.16461L2.53498 4.57111V5.75078L2.12848 6.15728H1.08642V4.16551" fill="currentColor"/>
<path d="M11 7.2428L10.1001 3.88576L10.8642 3.12165V1.04206L9.82213 0H7.24279V7.2428H8.32921V4.16461H9.0888L9.91357 7.2428H11ZM8.32921 1.08642H9.37127L9.77777 1.49292V2.67259L9.37127 3.07909H8.32921V1.08642Z" fill="currentColor"/>
<path d="M4.52676 3.88666V5.16683L6.33746 3.35613V2.07596L4.52676 3.88666Z" fill="currentColor"/>
</g>
</svg>
