<svg viewBox="0 0 13.75 14.0438" xmlns="http://www.w3.org/2000/svg">
<g>
<path d="M13.618 5.71919H7.02145V8.41889H10.8118C10.7509 8.80097 10.6141 9.17683 10.4137 9.51955C10.1842 9.91221 9.90038 10.2112 9.6095 10.4388C8.73818 11.1208 7.72234 11.2602 7.01685 11.2602C5.23469 11.2602 3.71195 10.0837 3.12246 8.48516C3.09867 8.42715 3.08288 8.36722 3.06364 8.30799C2.93338 7.90113 2.8622 7.47023 2.8622 7.02237C2.8622 6.55626 2.93928 6.11009 3.07981 5.68869C3.63412 4.02673 5.19119 2.7854 7.01813 2.7854C7.3856 2.7854 7.73947 2.83007 8.07504 2.91918C8.84197 3.12283 9.38446 3.5239 9.71686 3.84116L11.7226 1.83492C10.5025 0.692342 8.91203 1.7275e-09 7.0148 1.7275e-09C5.49808 -3.3342e-05 4.09779 0.482629 2.95029 1.29834C2.01971 1.95987 1.2565 2.84556 0.741426 3.8742C0.262333 4.82796 0 5.8849 0 7.02131C0 8.15778 0.262734 9.22571 0.741828 10.1706V10.177C1.24787 11.1802 1.98788 12.0439 2.88727 12.7024C3.67299 13.2777 5.08187 14.0438 7.0148 14.0438C8.12637 14.0438 9.11153 13.8391 9.98036 13.4555C10.6071 13.1788 11.1624 12.8179 11.6652 12.354C12.3295 11.7411 12.8498 10.9829 13.2049 10.1107C13.56 9.23842 13.75 8.25204 13.75 7.18265C13.75 6.68461 13.701 6.17883 13.618 5.71914V5.71919Z" fill="currentColor"/>
</g>
</svg>
