<svg viewBox="0 0 16 16" xmlns="http://www.w3.org/2000/svg">
<g>
<rect fill="black"/>
<path d="M12.0918 3.97844C12.0918 2.79569 10.9731 2.5 10.09 2.5V2.67741C10.6199 2.67741 11.032 2.85483 11.032 3.26879C11.028 3.35558 11.006 3.44059 10.9675 3.5184C10.9291 3.59621 10.8749 3.66511 10.8084 3.72074C10.7419 3.77636 10.6647 3.81748 10.5816 3.84149C10.4984 3.86549 10.4112 3.87185 10.3255 3.86016C9.66 3.78874 9.00676 3.62968 8.38258 3.38706C7.72019 3.13636 7.02697 2.97721 6.32192 2.91396C6.06617 2.90372 5.81095 2.9448 5.57119 3.0348C5.33143 3.12479 5.11193 3.2619 4.92555 3.4381C4.73916 3.61431 4.58962 3.82607 4.48567 4.061C4.38171 4.29593 4.32544 4.54933 4.32013 4.80637C4.31635 5.08811 4.39911 5.36417 4.55714 5.59697C4.71517 5.82978 4.94078 6.008 5.20327 6.10739L5.26215 5.98912C5.15185 5.93642 5.0595 5.85219 4.99666 5.74699C4.93381 5.64179 4.90328 5.5203 4.90889 5.39774C4.93334 5.20215 5.03361 5.02414 5.18793 4.90234C5.34226 4.78055 5.53817 4.72482 5.73316 4.74723C6.47911 4.82952 7.21133 5.00842 7.91158 5.27947C8.62637 5.4859 9.35414 5.64395 10.09 5.75257V7.58583L9.20685 8.35462V8.41376L10.09 9.18255V11.7255C9.64269 11.9813 9.13227 12.1044 8.61809 12.0803C8.18951 12.1029 7.76127 12.0298 7.36422 11.8662C6.96717 11.7026 6.61119 11.4525 6.32192 11.1341L8.73584 9.95134V5.81171L5.79203 7.11273C6.12152 6.40113 6.6544 5.80412 7.32281 5.39774L7.26394 5.27947C6.34095 5.50454 5.51528 6.02363 4.91038 6.75914C4.30547 7.49465 3.95382 8.40706 3.908 9.35996C3.91102 10.4569 4.34621 11.5081 5.11845 12.2838C5.89069 13.0594 6.93721 13.4966 8.02933 13.4996C8.53671 13.507 9.0405 13.4131 9.51144 13.2233C9.98237 13.0335 10.4111 12.7515 10.7726 12.3939C11.1341 12.0363 11.4213 11.61 11.6175 11.1399C11.8136 10.6699 11.9148 10.1653 11.9152 9.65565H11.7974C11.4875 10.4106 10.9528 11.051 10.2666 11.4889V9.06427L11.2086 8.29548V8.23635L10.3255 7.46756V5.69343C10.5555 5.70496 10.7854 5.66894 11.001 5.58761C11.2166 5.50628 11.4133 5.38136 11.5788 5.22059C11.7444 5.05983 11.8754 4.86663 11.9636 4.65297C12.0518 4.4393 12.0955 4.20972 12.0918 3.97844ZM6.96956 10.4836L6.26304 10.8384C5.79755 10.1858 5.56895 9.39261 5.61541 8.59117C5.61209 8.17066 5.67163 7.75204 5.79203 7.34928L7.02843 6.81704L6.96956 10.4836Z" fill="currentColor"/>
</g>
</svg>
