<svg viewBox="0 0 13 7.66843" xmlns="http://www.w3.org/2000/svg">
<g>
<path d="M6.49957 0.991687C6.29688 0.485679 5.80316 -0.060807 4.87851 0.0142566C3.70062 0.142312 3.33353 1.27113 3.51155 1.94457C3.04242 1.6269 2.24471 1.4872 1.54842 2.08363C0.64942 2.98483 1.13026 4.20356 1.62449 4.49591C1.07982 4.44546 0.219002 4.81351 0.0285583 5.77625C-0.174033 6.97158 0.737204 7.66843 1.62449 7.66843H11.4637C12.4897 7.66843 13.059 6.7808 12.9951 5.94368C12.8945 4.85115 11.8947 4.43196 11.3494 4.52176C11.805 4.26758 12.4135 3.07346 11.4883 2.13472C10.7538 1.43609 9.81742 1.69027 9.4882 1.995C9.66569 1.41138 9.37467 0.204975 8.18337 0.0141418C8.10102 0.00495086 8.02174 0 7.94617 0C7.03679 0.000114601 6.6279 0.664869 6.49957 0.991687Z" fill="currentColor"/>
<path d="M1.71224 2.27356C1.19275 2.74381 1.00368 3.80932 1.94013 4.4322L5.67596 6.99525L3.86456 2.84537C3.485 1.86608 2.44662 1.65253 1.71224 2.27356Z" fill="currentColor"/>
<path d="M4.92844 0.256951C4.3212 0.269305 3.40934 0.992459 3.81514 2.09671L5.68859 6.51505L6.3469 1.86778C6.49925 0.71304 5.62538 0.180008 4.92844 0.256951Z" fill="currentColor"/>
<path d="M6.63879 1.68994H6.99302C6.99302 1.68994 7.1822 1.68994 7.20794 1.77917C7.06854 1.89302 6.6891 1.90727 6.73946 2.51539L7.33499 6.51381L9.19565 2.08385C9.57624 1.09473 8.77738 0.268662 8.06873 0.243404C8.03566 0.24102 8.00243 0.239095 7.96807 0.239095C7.33201 0.239095 6.60315 0.701349 6.63879 1.68994Z" fill="currentColor"/>
<path d="M9.12107 2.8824L7.36117 6.9825L11.0959 4.40593C11.9568 3.79529 11.818 2.81903 11.3361 2.33649C11.134 2.10937 10.7631 1.93392 10.3701 1.93392C9.9059 1.93383 9.40908 2.18008 9.12107 2.8824Z" fill="currentColor"/>
<path d="M10.6776 4.99121L7.17021 7.44108H11.4888C12.3748 7.44108 12.9442 6.5275 12.691 5.6892C12.5215 5.16228 12.02 4.74864 11.4378 4.74805C11.1928 4.74814 10.9329 4.82196 10.6776 4.99121Z" fill="currentColor"/>
<path d="M1.61198 7.44067H5.86683L2.3586 4.9908C1.54812 4.47005 0.636769 4.77476 0.307773 5.63889C0.028903 6.62813 0.725195 7.44067 1.61198 7.44067Z" fill="currentColor"/>
</g>
</svg>
