<svg viewBox="0 0 11.0991 11" xmlns="http://www.w3.org/2000/svg">
<g>
<path d="M4.25699 4.00398V2.95898C4.25699 2.87097 4.29002 2.80494 4.36698 2.76097L6.46805 1.55099C6.75404 1.386 7.09506 1.30904 7.44701 1.30904C8.76698 1.30904 9.60304 2.33206 9.60304 3.42101C9.60304 3.498 9.60304 3.58601 9.59202 3.67402L7.41399 2.39799C7.28201 2.32101 7.14996 2.32101 7.01798 2.39799L4.25699 4.00398ZM9.16299 8.07401V5.57696C9.16299 5.4229 9.09694 5.31293 8.96498 5.23595L6.20399 3.62996L7.10599 3.11292C7.18297 3.06897 7.249 3.06897 7.32598 3.11292L9.42702 4.32292C10.0321 4.67496 10.439 5.4229 10.439 6.14888C10.439 6.98485 9.94406 7.75487 9.16299 8.07392V8.07401ZM3.60799 5.87403L2.70599 5.34606C2.62903 5.30209 2.596 5.23606 2.596 5.14805V2.72807C2.596 1.55108 3.498 0.660021 4.71902 0.660021C5.18109 0.660021 5.61 0.814079 5.97309 1.08905L3.80609 2.34311C3.67413 2.42007 3.60811 2.53007 3.60811 2.6841V5.87412L3.60799 5.87403ZM5.54952 6.99599L4.25699 6.27002V4.73008L5.54952 4.0041L6.84196 4.73008V6.27002L5.54952 6.99599ZM6.38001 10.34C5.91798 10.34 5.48906 10.186 5.12597 9.91102L7.29295 8.65698C7.42493 8.58002 7.49095 8.47003 7.49095 8.31597V5.12597L8.404 5.65394C8.48096 5.69789 8.514 5.76392 8.514 5.85193V8.27191C8.514 9.44889 7.60095 10.34 6.38001 10.34V10.34ZM3.77299 7.88706L1.67192 6.67706C1.06688 6.32502 0.659929 5.57708 0.659929 4.8511C0.659929 4.0041 1.16594 3.24511 1.94689 2.92608V5.43407C1.94689 5.5881 2.01294 5.6981 2.1449 5.77506L4.89495 7.37002L3.99296 7.88706C3.916 7.93101 3.84995 7.93101 3.77299 7.88706ZM3.65206 9.69105C2.40904 9.69105 1.49602 8.75604 1.49602 7.60104C1.49602 7.51303 1.50704 7.42502 1.51798 7.33701L3.68498 8.59105C3.81694 8.66803 3.94901 8.66803 4.08097 8.59105L6.84196 6.99611V8.04109C6.84196 8.12913 6.80895 8.19515 6.73196 8.2391L4.63092 9.4491C4.34491 9.61407 4.00389 9.69105 3.65194 9.69105H3.65206ZM6.38001 11C7.71104 11 8.82198 10.054 9.07507 8.79999C10.3071 8.48096 11.0991 7.32596 11.0991 6.14899C11.0991 5.37895 10.7691 4.63101 10.1751 4.09199C10.2301 3.86097 10.2631 3.62996 10.2631 3.39905C10.2631 1.82607 8.98706 0.648994 7.51303 0.648994C7.2161 0.648994 6.93008 0.692942 6.64407 0.792002C6.14899 0.307979 5.46699 0 4.71902 0C3.38802 0 2.27708 0.945946 2.02399 2.19999C0.792003 2.51902 0 3.67402 0 4.85098C0 5.62102 0.329965 6.36896 0.923984 6.90798C0.868986 7.139 0.835973 7.37002 0.835973 7.60093C0.835973 9.1739 2.112 10.351 3.58601 10.351C3.88296 10.351 4.16898 10.307 4.45499 10.208C4.94995 10.692 5.63196 11 6.38001 11Z" fill="currentColor"/>
</g>
</svg>
