<svg viewBox="0 0 16 16" xmlns="http://www.w3.org/2000/svg">
<g>
<rect fill="#004022"/>
<path d="M10.4119 3.0006C10.0006 2.99177 9.51147 3.08048 8.95743 3.26304C8.87432 3.29217 8.80861 3.33818 8.74944 3.39639C8.18594 3.92498 7.63775 4.48535 7.11959 5.0647L7.07983 5.10867C7.06882 5.12113 7.06748 5.13969 7.07558 5.15407C7.08398 5.16863 7.10037 5.17615 7.11675 5.17252L7.17496 5.16046C8.01002 4.98208 8.85312 4.84515 9.68008 4.75473C9.73452 4.74874 9.79068 4.76737 9.83128 4.80439C9.87188 4.84177 9.89555 4.89511 9.89446 4.95051C9.88079 5.77063 9.91009 6.59481 9.98319 7.40047L9.98817 7.45296C9.98999 7.46905 10.0011 7.48201 10.0173 7.4863C10.0202 7.48702 10.0229 7.48775 10.0265 7.48775C10.0387 7.48793 10.051 7.48216 10.0585 7.47144L10.089 7.42818C10.5549 6.76387 11.0621 6.11809 11.5953 5.50736C11.655 5.43941 11.6707 5.39667 11.6819 5.335C11.8498 4.26145 11.5907 3.46749 11.3589 3.26664C11.1577 3.09226 10.8656 3.01038 10.412 3.00065L10.4119 3.0006ZM9.13277 5.17535L9.08166 5.18243C8.28383 5.29223 7.47617 5.44433 6.68089 5.63426C6.60205 5.65627 6.55144 5.70746 6.54034 5.71938C5.94515 6.43162 5.38142 7.18127 4.86434 7.94946C4.8385 7.9883 4.83595 8.08139 4.83595 8.08139C4.83595 8.08139 4.96568 9.08204 5.1554 9.81921C4.68529 11.1701 4.26593 12.9501 4.26593 12.9501C4.26266 12.9617 4.26484 12.9737 4.2716 12.9834C4.27869 12.9932 4.28992 12.9994 4.30213 12.9998H4.56975C4.58669 13 4.60145 12.9898 4.60738 12.9742L4.62584 12.9239C4.89894 12.1795 5.21023 11.4447 5.55434 10.7285C5.63445 10.5617 5.8035 10.2249 5.8035 10.2249C5.83127 10.1703 5.96098 9.92169 5.9902 9.86602L5.99518 9.85611C6.86165 8.22286 7.91791 6.68233 9.1335 5.27749L9.16686 5.23919C9.17715 5.22699 9.17929 5.2093 9.17184 5.19521C9.16385 5.18101 9.14829 5.17324 9.1328 5.17535L9.13277 5.17535ZM9.50048 5.48319C9.48547 5.47756 9.46817 5.48137 9.45789 5.49383L9.42452 5.53284C8.00712 7.17082 6.8159 8.98886 5.88371 10.9364L5.86168 10.9818C5.8546 10.9962 5.85732 11.0135 5.86808 11.025C5.87546 11.0327 5.8852 11.037 5.89578 11.0371C5.9005 11.0373 5.90657 11.0364 5.9114 11.0342L5.95825 11.0143C6.75435 10.6848 7.5676 10.3992 8.37535 10.166C8.42368 10.152 8.46395 10.1185 8.48679 10.0738C8.84092 9.38419 9.66305 8.04941 9.66305 8.04941C9.68417 8.0193 9.67936 7.97422 9.67936 7.97422C9.67936 7.97422 9.53496 6.37768 9.52603 5.56965L9.52531 5.51858C9.52458 5.50257 9.51521 5.48848 9.50045 5.4831L9.50048 5.48319ZM7.39856 10.8449L7.33255 10.8676C6.90459 11.0097 6.27146 11.2281 5.7034 11.4889C5.67298 11.5032 5.653 11.5428 5.653 11.5428C5.64243 11.5671 5.62959 11.5975 5.61467 11.6315L5.61249 11.6358C5.54885 11.7805 5.46055 11.9983 5.42295 12.0869L5.39384 12.1571C5.3893 12.1682 5.39203 12.1806 5.40093 12.189C5.4062 12.194 5.41227 12.1965 5.42008 12.1968C5.42408 12.1968 5.42866 12.1961 5.43288 12.1939L5.50173 12.1613C5.65713 12.0875 5.85411 11.9756 6.0604 11.8776L6.06748 11.874C6.45975 11.688 6.90247 11.4782 7.1692 11.3512C7.1692 11.351 7.21213 11.3281 7.2338 11.2852L7.43327 10.8852C7.43854 10.8747 7.43702 10.8622 7.42964 10.8533C7.42153 10.8445 7.4095 10.8411 7.39841 10.8448L7.39856 10.8449Z" fill="currentColor"/>
</g>
</svg>
