<svg preserveAspectRatio="none" width="100%" height="100%" overflow="visible" style="display: block;" viewBox="0 0 12.8571 12.8571" fill="none" xmlns="http://www.w3.org/2000/svg">
<g id="Group">
<path id="Ellipse 1 (Stroke)" fill-rule="evenodd" clip-rule="evenodd" d="M6.42855 8.57141C7.61202 8.57141 8.57141 7.61202 8.57141 6.42855C8.57141 5.24509 7.61202 4.2857 6.42855 4.2857C5.24509 4.2857 4.2857 5.24509 4.2857 6.42855C4.2857 7.61202 5.24509 8.57141 6.42855 8.57141ZM6.42855 9.85712C8.3221 9.85712 9.85712 8.3221 9.85712 6.42855C9.85712 4.53501 8.3221 2.99998 6.42855 2.99998C4.53501 2.99998 2.99998 4.53501 2.99998 6.42855C2.99998 8.3221 4.53501 9.85712 6.42855 9.85712Z" fill="var(--fill-0, white)"/>
<circle id="Ellipse 2" cx="9.85712" cy="2.99999" r="0.857143" fill="var(--fill-0, white)"/>
<path id="Rectangle 2 (Stroke)" fill-rule="evenodd" clip-rule="evenodd" d="M6.39064 1.99199e-07H6.4665C7.63961 -9.09913e-06 8.57236 -1.64573e-05 9.31529 0.0804747C10.0782 0.163135 10.7169 0.336823 11.2672 0.736649C11.5946 0.974557 11.8826 1.26252 12.1205 1.58997C12.5203 2.14029 12.694 2.7789 12.7767 3.54185C12.8572 4.28478 12.8572 5.21755 12.8571 6.39066V6.46648C12.8572 7.6396 12.8572 8.57236 12.7767 9.31529C12.694 10.0782 12.5203 10.7169 12.1205 11.2672C11.8826 11.5946 11.5946 11.8826 11.2672 12.1205C10.7169 12.5203 10.0782 12.694 9.31529 12.7767C8.57236 12.8572 7.6396 12.8572 6.46648 12.8571H6.39066C5.21755 12.8572 4.28478 12.8572 3.54185 12.7767C2.7789 12.694 2.14029 12.5203 1.58997 12.1205C1.26252 11.8826 0.974557 11.5946 0.736649 11.2672C0.336823 10.7169 0.163135 10.0782 0.0804747 9.31529C-1.64573e-05 8.57236 -9.09913e-06 7.63961 1.99199e-07 6.4665V6.39064C-9.09913e-06 5.21754 -1.64573e-05 4.28478 0.0804747 3.54185C0.163135 2.7789 0.336823 2.14029 0.736649 1.58997C0.974556 1.26252 1.26252 0.974556 1.58997 0.736649C2.14029 0.336823 2.7789 0.163135 3.54185 0.0804747C4.28478 -1.64573e-05 5.21754 -9.09913e-06 6.39064 1.99199e-07ZM3.68034 1.35871C3.02679 1.42952 2.64031 1.56277 2.3457 1.77681C2.12739 1.93542 1.93542 2.12739 1.77681 2.3457C1.56277 2.64031 1.42952 3.02679 1.35871 3.68034C1.2866 4.34593 1.28571 5.20898 1.28571 6.42857C1.28571 7.64816 1.2866 8.51122 1.35871 9.1768C1.42952 9.83036 1.56277 10.2168 1.77681 10.5114C1.93542 10.7297 2.12739 10.9217 2.3457 11.0803C2.64031 11.2944 3.02679 11.4276 3.68034 11.4984C4.34593 11.5705 5.20898 11.5714 6.42857 11.5714C7.64816 11.5714 8.51122 11.5705 9.1768 11.4984C9.83036 11.4276 10.2168 11.2944 10.5114 11.0803C10.7297 10.9217 10.9217 10.7297 11.0803 10.5114C11.2944 10.2168 11.4276 9.83036 11.4984 9.1768C11.5705 8.51122 11.5714 7.64816 11.5714 6.42857C11.5714 5.20898 11.5705 4.34593 11.4984 3.68034C11.4276 3.02679 11.2944 2.64031 11.0803 2.3457C10.9217 2.12739 10.7297 1.93542 10.5114 1.77681C10.2168 1.56277 9.83036 1.42952 9.1768 1.35871C8.51122 1.2866 7.64816 1.28571 6.42857 1.28571C5.20898 1.28571 4.34593 1.2866 3.68034 1.35871Z" fill="var(--fill-0, white)"/>
</g>
</svg>
