<svg preserveAspectRatio="none" width="100%" height="100%" overflow="visible" style="display: block;" viewBox="0 0 13.1604 13.75" fill="none" xmlns="http://www.w3.org/2000/svg">
<g id="Group">
<path id="Vector" d="M0.827322 0.59319L8.43546 0.0312384C9.37003 -0.0489226 9.6101 0.00511388 10.1978 0.432318L12.6264 2.1432C13.0269 2.43744 13.1603 2.5176 13.1603 2.83797V12.2212C13.1603 12.8093 12.9468 13.1571 12.1992 13.2102L3.36415 13.7454C2.80316 13.7719 2.536 13.6917 2.24217 13.3173L0.453741 10.9917C0.13296 10.5637 0 10.2433 0 9.86876V1.52817C0 1.04734 0.213533 0.646402 0.827322 0.59319Z" fill="var(--fill-0, white)"/>
<path id="Vector_2" fill-rule="evenodd" clip-rule="evenodd" d="M8.43546 0.0313759L0.827322 0.593327C0.213533 0.646401 0 1.04748 0 1.52817V9.86876C0 10.2432 0.13296 10.5635 0.453741 10.9917L2.24217 13.3172C2.536 13.6916 2.80316 13.7719 3.36415 13.7452L12.1993 13.2104C12.9463 13.1571 13.1604 12.8093 13.1604 12.2213V2.83811C13.1604 2.53424 13.0404 2.44665 12.687 2.18733L10.1978 0.432318C9.61024 0.00511388 9.37003 -0.0489226 8.43546 0.0312384V0.0313759ZM3.56393 2.68452C2.84248 2.73306 2.67886 2.74406 2.26912 2.4109L1.22744 1.58235C1.12157 1.4751 1.17478 1.34131 1.44152 1.31464L8.75542 0.780186C9.36962 0.726562 9.68944 0.940646 9.92965 1.12764L11.184 2.0365C11.2377 2.06359 11.371 2.2235 11.2106 2.2235L3.65743 2.6782L3.56393 2.68452ZM2.72286 12.1412V4.17555C2.72286 3.82768 2.8297 3.66722 3.14951 3.64027L11.8248 3.13235C12.119 3.10582 12.252 3.29281 12.252 3.64013V11.5527C12.252 11.9006 12.1984 12.1948 11.7181 12.2213L3.4164 12.7026C2.93612 12.7291 2.723 12.5692 2.723 12.1412H2.72286ZM10.9177 4.60261C10.9709 4.84323 10.9177 5.08385 10.6771 5.11135L10.277 5.19069V11.0719C9.92951 11.2589 9.60969 11.3657 9.34239 11.3657C8.91519 11.3657 8.80849 11.2319 8.48854 10.8312L5.87196 6.71457V10.6975L6.6997 10.8849C6.6997 10.8849 6.6997 11.3661 6.03187 11.3661L4.19078 11.4729C4.13716 11.3657 4.19078 11.0985 4.37737 11.0453L4.85819 10.912V5.6458L4.19092 5.59177C4.1373 5.35115 4.27067 5.00369 4.64466 4.97674L6.62008 4.84378L9.34253 9.01366V5.32461L8.64858 5.24486C8.59496 4.95021 8.80849 4.73612 9.07524 4.71L10.9177 4.60261Z" fill="var(--fill-0, black)"/>
</g>
</svg>
