<svg preserveAspectRatio="none" width="100%" height="100%" overflow="visible" style="display: block;" viewBox="0 0 16.25 9.58553" fill="none" xmlns="http://www.w3.org/2000/svg">
<g id="Group">
<path id="Path" d="M8.12446 1.23961C7.8711 0.607098 7.25395 -0.0760088 6.09814 0.0178207C4.62578 0.177889 4.16692 1.58891 4.38944 2.43071C3.80303 2.03362 2.80589 1.859 1.93552 2.60453C0.811775 3.73103 1.41283 5.25445 2.03061 5.61988C1.34977 5.55682 0.273753 6.01689 0.0356978 7.22031C-0.217541 8.71448 0.921505 9.58553 2.03061 9.58553H14.3296C15.6122 9.58553 16.3238 8.476 16.2439 7.4296C16.1181 6.06393 14.8684 5.53995 14.1867 5.6522C14.7563 5.33447 15.5169 3.84182 14.3603 2.6684C13.4422 1.79511 12.2718 2.11284 11.8602 2.49374C12.0821 1.76422 11.7183 0.256219 10.2292 0.0176773C10.1263 0.00618857 10.0272 0 9.93272 0C8.79599 0.000143251 8.28487 0.831086 8.12446 1.23961Z" fill="var(--fill-0, white)"/>
<path id="Path_2" d="M2.1403 2.84195C1.49094 3.42976 1.2546 4.76165 2.42516 5.54025L7.09495 8.74406L4.83069 3.55671C4.35625 2.3326 3.05828 2.06567 2.1403 2.84195Z" fill="var(--fill-0, #F37021)"/>
<path id="Path_3" d="M6.16055 0.321189C5.40149 0.336631 4.26167 1.24057 4.76893 2.62088L7.11074 8.14382L7.93363 2.33473C8.12407 0.8913 7.03172 0.22501 6.16055 0.321189Z" fill="var(--fill-0, #CC004C)"/>
<path id="Path_4" d="M8.29849 2.11243H8.74128C8.74128 2.11243 8.97776 2.11243 9.00993 2.22396C8.83568 2.36627 8.36137 2.38409 8.42432 3.14424L9.16874 8.14227L11.4946 2.60481C11.9703 1.36841 10.9717 0.335828 10.0859 0.304255C10.0446 0.301276 10.003 0.298869 9.96009 0.298869C9.16501 0.298869 8.25394 0.876687 8.29849 2.11243Z" fill="var(--fill-0, #6460AA)"/>
<path id="Path_5" d="M11.4013 3.603L9.20146 8.72813L13.8699 5.50741C14.946 4.74411 14.7725 3.52378 14.1701 2.92061C13.9175 2.63672 13.4539 2.4174 12.9627 2.4174C12.3824 2.41728 11.7614 2.7251 11.4013 3.603Z" fill="var(--fill-0, #0089D0)"/>
<path id="Path_6" d="M13.347 6.23901L8.96276 9.30134H14.361C15.4685 9.30134 16.1802 8.15938 15.8638 7.11149C15.6519 6.45285 15.0249 5.9358 14.2973 5.93506C13.991 5.93517 13.6662 6.02746 13.347 6.23901Z" fill="var(--fill-0, #0DB14B)"/>
<path id="Path_7" d="M2.01497 9.30084H7.33354L2.94825 6.2385C1.93515 5.58757 0.795961 5.96844 0.384716 7.04861C0.0361287 8.28516 0.906494 9.30084 2.01497 9.30084Z" fill="var(--fill-0, #FCB711)"/>
</g>
</svg>
