<svg preserveAspectRatio="none" width="100%" height="100%" overflow="visible" style="display: block;" viewBox="0 0 15 12.19" fill="none" xmlns="http://www.w3.org/2000/svg">
<g id="Group">
<path id="Shape" d="M10.9406 1.03142C10.5998 2.56517 10.4594 3.2769 10.1787 4.3796C9.90807 5.44219 9.69755 6.43461 9.33667 6.91579C8.97579 7.40699 8.48459 7.50723 8.15378 7.54733C7.98337 7.56738 7.85305 7.5774 7.48214 7.5774C7.11124 7.5774 6.98092 7.56738 6.81051 7.54733C6.4797 7.50723 5.9885 7.40699 5.62762 6.91579C5.26674 6.43461 5.05622 5.44219 4.79559 4.3796C4.5149 3.26688 4.37456 2.56517 4.03373 1.03142C4.03373 1.03142 3.69289 1.04145 3.54253 1.05147C3.33201 1.0615 3.17162 1.08154 3.00121 1.10159C3.00121 1.10159 3.2017 4.2593 3.29192 5.60258C3.38214 7.00601 3.55255 9.38181 3.70292 11.1762C3.70292 11.1762 3.99363 11.2263 4.4748 11.2464C4.97603 11.2764 5.20659 11.2764 5.20659 11.2764C5.4171 10.4845 5.66772 9.39183 5.95843 8.92068C6.19901 8.53975 6.55989 8.49966 6.77041 8.46958C7.09119 8.42948 7.37188 8.41946 7.49217 8.41946C7.62249 8.41946 7.89315 8.41946 8.21393 8.46958C8.42445 8.49966 8.78533 8.53975 9.02591 8.92068C9.31662 9.39183 9.57726 10.4845 9.77775 11.2764C9.77775 11.2764 9.99829 11.2764 10.4995 11.2464C10.9807 11.2163 11.2714 11.1762 11.2714 11.1762C11.4218 9.38181 11.5922 7.01603 11.6824 5.60258C11.7726 4.26933 11.9731 1.10159 11.9731 1.10159C11.8027 1.08154 11.6323 1.0615 11.4318 1.05147C11.2814 1.04145 10.9406 1.03142 10.9406 1.03142Z" fill="var(--fill-0, black)"/>
<path id="Shape_2" d="M14.9198 2.89707C14.7193 0.892178 13.376 0.47115 12.2032 0.270661C11.6117 0.170416 10.5592 0.0902202 9.88752 0.0601468C9.29607 0.0200488 7.9127 0 7.49167 0C7.07064 0 5.68726 0.0200489 5.09582 0.0601468C4.42418 0.0902202 3.37161 0.170416 2.78017 0.270661C1.6073 0.47115 0.264023 0.892178 0.0635333 2.89707C0.00338662 3.44842 -0.0066378 4.16016 0.00338658 4.92202C0.0234352 6.19512 0.133705 7.0472 0.193852 7.64867C0.23395 8.05968 0.404366 9.28266 0.624904 9.9142C0.925638 10.7863 1.1963 11.0369 1.51708 11.2976C2.0985 11.7687 3.06085 11.9191 3.26134 11.9592C4.34398 12.1497 6.52932 12.1898 7.50169 12.1898C8.46404 12.1898 10.6594 12.1597 11.742 11.9592C11.9425 11.9191 12.9049 11.7788 13.4863 11.2976C13.8071 11.0369 14.0777 10.7863 14.3785 9.9142C14.599 9.28266 14.7694 8.04965 14.8095 7.64867C14.8697 7.05723 14.9799 6.19512 15 4.92202C14.99 4.15013 14.9699 3.43839 14.9198 2.89707ZM14.178 6.2653C14.0577 7.86921 13.9174 8.83156 13.7169 9.52325C13.5364 10.1347 13.3159 10.5357 12.9951 10.8264C12.4538 11.3176 11.712 11.4179 11.2709 11.488C10.3286 11.6284 8.7347 11.6785 7.49167 11.6785C6.23861 11.6785 4.65474 11.6284 3.71244 11.488C3.27136 11.4179 2.52955 11.3176 1.98823 10.8264C1.66745 10.5357 1.44691 10.1247 1.26647 9.52325C1.06598 8.83156 0.915613 7.86921 0.805344 6.2653C0.735172 5.30295 0.745196 3.73913 0.855466 2.89707C1.00583 1.63399 1.62735 1.00245 2.96061 0.771884C3.58212 0.661615 4.42418 0.581419 5.21611 0.541321C5.85768 0.501224 6.90022 0.481175 7.49167 0.481175C8.07309 0.47115 9.12566 0.501224 9.7572 0.541321C10.5491 0.581419 11.3912 0.661615 12.0127 0.771884C13.346 1.01247 13.9675 1.64401 14.1279 2.89707C14.2381 3.7291 14.2482 5.29292 14.178 6.2653Z" fill="var(--fill-0, black)"/>
</g>
</svg>
