<svg preserveAspectRatio="none" width="100%" height="100%" overflow="visible" style="display: block;" viewBox="0 0 20 20" fill="none" xmlns="http://www.w3.org/2000/svg">
<g id="Frame">
<rect width="20" height="20" fill="#FFF500"/>
<path id="Vector" d="M9.33424 6.17528H9.56522L9.59239 6.06658H6.68478L6.65761 6.17528H7.0788C7.44565 6.17528 7.74457 6.43343 7.74457 6.93615C7.74457 7.22147 7.62228 7.58832 7.41848 8.03669L5.52989 12.2079L5.06793 6.78669C5.02717 6.36549 5.24457 6.17528 5.72011 6.17528H5.99185L6.01902 6.06658H1.91576L1.875 6.17528H2.13315C2.45924 6.17528 2.58152 6.37908 2.6087 6.75951L3.34239 13.7704H5.06793L7.96196 7.64267C8.41033 6.73234 8.87228 6.17528 9.33424 6.17528ZM8.99456 13.7976C8.73641 13.7976 8.57337 13.716 8.57337 13.2813C8.57337 12.7378 8.77717 11.6644 8.99456 10.6861C9.02174 11.1345 9.33424 11.5829 9.7962 11.5829C9.90489 11.5829 10 11.5693 10.0951 11.5557C9.66033 13.4171 9.49728 13.7976 8.99456 13.7976ZM17.2283 10.1155C17.7717 10.1155 18.125 9.66712 18.125 9.15082C18.125 8.71604 17.8125 8.38995 17.3641 8.38995C16.5625 8.38995 16.1821 9.02854 15.5163 10.197C15.3804 9.46332 15.0408 8.51223 14.1984 8.51223C13.2473 8.51223 12.1467 9.87093 11.1413 10.7133C10.6793 11.1073 10.1766 11.3519 9.76902 11.3519C9.34783 11.3519 9.10326 10.9307 9.10326 10.1834C9.40217 8.9606 9.55163 8.6481 10.0136 8.6481C10.3261 8.6481 10.462 8.82473 10.462 9.19158C10.462 9.5856 10.3804 10.2378 10.2038 11.0666C10.6522 10.9307 11.3315 10.3601 11.9022 9.74865C11.6033 9.02854 10.9511 8.53941 10.0272 8.53941C8.30163 8.53941 6.77989 10.0883 6.77989 11.8274C6.77989 13.0231 7.63587 13.9334 8.96739 13.9334C11.1685 13.9334 12.0924 12.0313 12.0924 10.6997C12.0924 10.5095 12.0788 10.3736 12.0652 10.197C12.4049 9.83017 12.8397 9.47691 13.1929 9.47691C13.6005 9.47691 13.9266 10.4959 14.2391 12.0313C13.9538 12.3438 13.6685 12.9416 13.5326 13.0503C13.4783 12.5068 13.1114 12.1671 12.6359 12.1671C12.0924 12.1671 11.7255 12.6834 11.7255 13.1182C11.7255 13.6073 12.0652 13.9334 12.5136 13.9334C13.4511 13.9334 13.7092 13.0503 14.2935 12.2622C14.4701 13.1046 14.8913 13.9334 15.6114 13.9334C16.4674 13.9334 17.2554 13.1997 17.663 12.6834L17.5815 12.5611C17.3234 12.8193 17.0652 12.9823 16.7663 12.9823C16.2364 12.9823 15.856 11.841 15.5707 10.4552C15.7473 10.2242 16.019 9.62636 16.2092 9.40897C16.3315 9.65354 16.6033 10.1155 17.2283 10.1155Z" fill="var(--fill-0, black)"/>
</g>
</svg>
