<svg preserveAspectRatio="none" width="100%" height="100%" overflow="visible" style="display: block;" viewBox="0 0 13.75 11.4748" fill="none" xmlns="http://www.w3.org/2000/svg">
<g id="Group">
<path id="Vector (Stroke)" d="M12.6847 8.68574C12.7599 8.6809 12.8299 8.72408 12.8593 8.79343C12.8887 8.86277 12.8711 8.94314 12.8154 8.99382C11.9519 9.77915 10.8663 10.4224 9.76165 10.9539C9.90864 11.0559 10.0516 11.1202 10.2239 11.1202C10.4942 11.1202 10.6923 10.962 10.947 10.748C11.1848 10.5483 11.4791 10.2928 11.8983 10.2928C12.3174 10.2928 12.6118 10.5483 12.8495 10.748C13.1043 10.962 13.3024 11.1202 13.5727 11.1202C13.6706 11.1202 13.75 11.1996 13.75 11.2975C13.75 11.3954 13.6706 11.4748 13.5727 11.4748C13.1535 11.4748 12.8592 11.2193 12.6215 11.0195C12.3667 10.8056 12.1686 10.6474 11.8983 10.6474C11.628 10.6474 11.4298 10.8056 11.1751 11.0195C10.9374 11.2193 10.643 11.4748 10.2239 11.4748C9.84567 11.4748 9.56914 11.2667 9.34407 11.0794C9.31737 11.0667 9.29374 11.0473 9.27589 11.0223C9.27479 11.0214 9.27369 11.0205 9.2726 11.0195C9.01787 10.8056 8.81974 10.6474 8.54943 10.6474C8.27912 10.6474 8.08099 10.8056 7.82625 11.0195C7.58851 11.2193 7.29416 11.4748 6.875 11.4748C6.45584 11.4748 6.16149 11.2193 5.92375 11.0195C5.66901 10.8056 5.47088 10.6474 5.20057 10.6474C4.93026 10.6474 4.73213 10.8056 4.4774 11.0195C4.23966 11.2193 3.94531 11.4748 3.52615 11.4748C3.51909 11.4748 3.51203 11.4743 3.50502 11.4735C2.9602 11.4081 2.6069 11.1445 2.34872 10.9121C2.21207 10.7892 2.12476 10.6976 2.02978 10.6211C1.94852 10.5555 1.89856 10.5339 1.86372 10.5299C1.79362 10.5435 1.72393 10.5657 1.65454 10.5948C1.64118 10.6091 1.62523 10.6216 1.60687 10.6312C1.58418 10.643 1.56009 10.6494 1.53609 10.651C1.36101 10.743 1.18732 10.8722 1.01297 11.0086C0.875745 11.116 0.734929 11.23 0.605133 11.3148C0.479677 11.3967 0.331216 11.4748 0.177292 11.4748C0.0793766 11.4748 1.19209e-07 11.3954 1.19209e-07 11.2975C1.19209e-07 11.1996 0.0793766 11.1202 0.177292 11.1202C0.22036 11.1202 0.293516 11.0948 0.41122 11.0179C0.524584 10.9439 0.648478 10.8436 0.794429 10.7294C0.937627 10.6173 1.10094 10.4923 1.27966 10.388L0.916491 9.69337C0.888698 9.64022 0.889665 9.5766 0.919069 9.52432C0.948478 9.47203 1.00235 9.43816 1.06221 9.4343L12.6847 8.68574ZM1.35699 9.77063L1.60029 10.2359C1.67244 10.2103 1.74635 10.1901 1.82177 10.1772L1.82921 10.1761C1.83667 10.1751 1.84419 10.1746 1.85172 10.1746C2.01349 10.1746 2.14643 10.2596 2.25232 10.345C2.35433 10.4272 2.47633 10.55 2.58592 10.6486C2.81829 10.8577 3.10244 11.0652 3.53648 11.1201C3.80153 11.1161 3.99784 10.9593 4.24932 10.748C4.48706 10.5483 4.78141 10.2928 5.20057 10.2928C5.61973 10.2928 5.91408 10.5483 6.15183 10.748C6.40656 10.962 6.60469 11.1202 6.875 11.1202C7.14531 11.1202 7.34344 10.962 7.59817 10.748C7.83592 10.5483 8.13027 10.2928 8.54943 10.2928C8.94108 10.2928 9.22375 10.5159 9.45311 10.7081C10.4262 10.2497 11.3777 9.71108 12.1746 9.07389L1.35699 9.77063ZM1.88967 0.0605724C1.94023 0.0027893 2.02223 -0.0159037 2.09282 0.0142871C3.384 0.5665 4.90672 1.60673 6.18817 3.01612C7.47009 4.42603 8.5188 6.21468 8.84468 8.26553C8.85471 8.32863 8.83002 8.39223 8.78005 8.43203C8.73007 8.47183 8.66254 8.48167 8.60329 8.45777C5.74149 7.30379 3.57644 7.91982 2.06893 8.85002C1.99577 8.89517 1.90078 8.88133 1.84354 8.81719C1.78631 8.75305 1.78333 8.65709 1.83648 8.58953C4.12953 5.67493 3.11228 2.35149 1.8708 0.268067C1.8315 0.202113 1.83912 0.118355 1.88967 0.0605724ZM5.54136 1.49671C5.57945 1.41805 5.66919 1.37887 5.75276 1.40442C6.78633 1.72046 7.99856 2.62914 9.06509 3.83911C10.1349 5.05277 11.0764 6.5901 11.5559 8.18924C11.5754 8.25425 11.5561 8.32468 11.5061 8.37063C11.4562 8.41658 11.3844 8.42999 11.3212 8.40516C11.0518 8.29923 10.8468 8.20565 10.6137 8.15571C10.3898 8.10773 10.1398 8.1013 9.80282 8.18737C9.70918 8.21129 9.61362 8.15579 9.588 8.0626C8.89201 5.53086 7.65338 3.13997 5.60008 1.71978C5.52819 1.67006 5.50327 1.57537 5.54136 1.49671ZM2.4475 0.570846C3.50167 2.56374 4.2528 5.47726 2.56239 8.17433C4.04009 7.45728 5.99843 7.11558 8.43981 8.01474C8.07602 6.17565 7.10897 4.55591 5.92582 3.25464C4.83883 2.05911 3.57569 1.13947 2.4475 0.570846ZM6.98313 2.42682C8.39731 3.8678 9.31459 5.80442 9.88441 7.80605C10.1942 7.74731 10.4505 7.7581 10.688 7.80899C10.8315 7.83974 10.9682 7.8856 11.1017 7.93632C10.613 6.52219 9.76179 5.16576 8.79909 4.07358C8.21015 3.40543 7.58528 2.84263 6.98313 2.42682Z" fill="var(--fill-0, black)"/>
</g>
</svg>
