<svg preserveAspectRatio="none" width="100%" height="100%" overflow="visible" style="display: block;" viewBox="0 0 13.75 13.7502" fill="none" xmlns="http://www.w3.org/2000/svg">
<g id="Group">
<path id="path14" d="M13.75 6.87464C13.75 10.6718 10.672 13.75 6.875 13.75C3.07804 13.75 2.38419e-07 10.6718 2.38419e-07 6.87464C2.38419e-07 3.44295 2.51409 0.598597 5.80078 0.0828086V4.88723H4.05518V6.87464H5.80078V8.38937C5.80078 10.1125 6.82717 11.0643 8.39757 11.0643C9.14975 11.0643 9.93652 10.93 9.93652 10.93V9.23805H9.0696C8.21556 9.23805 7.94922 8.70807 7.94922 8.16435V6.87464H9.85596L9.55115 4.88723H7.94922V0.0828086C11.2359 0.598597 13.75 3.44295 13.75 6.87464Z" fill="var(--fill-0, #1877F2)"/>
<path id="path16" d="M9.55115 4.88795L9.85596 6.87536H7.94922V8.16506C7.94922 8.70878 8.21556 9.23876 9.0696 9.23876H9.93652V10.9307C9.93652 10.9307 9.14975 11.065 8.39757 11.065C6.82717 11.065 5.80078 10.1132 5.80078 8.39008V6.87536H4.05518V4.88795H5.80078V0.0835238C6.1508 0.0286036 6.50955 0 6.875 0C7.24045 0 7.5992 0.0286036 7.94922 0.0835238V4.88795H9.55115Z" fill="var(--fill-0, white)"/>
</g>
</svg>
