<svg preserveAspectRatio="none" width="100%" height="100%" overflow="visible" style="display: block;" viewBox="0 0 12.3723 6.52697" fill="none" xmlns="http://www.w3.org/2000/svg">
<g id="Group">
<path id="path843" d="M1.4351 0.000122706V2.50387H4.07769V0.000122706H5.51279V6.52694H4.07769V3.71136H1.4351V6.52694H0V0.000122706H1.4351Z" fill="var(--fill-0, white)"/>
<path id="path996" d="M6.90655 0.000154764V6.52697H10.0681C10.3567 6.52612 10.644 6.48787 10.9228 6.41318C11.1883 6.34492 11.4393 6.22925 11.6637 6.07175C11.8805 5.91933 12.0577 5.71719 12.1803 5.48224C12.3133 5.21738 12.379 4.92383 12.3716 4.62755C12.3823 4.25633 12.2786 3.8908 12.0745 3.58052C11.8549 3.27908 11.5349 3.06599 11.1721 2.97964C11.4371 2.86229 11.6658 2.67599 11.8344 2.44016C11.9928 2.19611 12.0722 1.90925 12.062 1.6185C12.0703 1.3544 12.019 1.09181 11.9118 0.850302C11.8167 0.649297 11.6698 0.477246 11.4862 0.351839C11.2874 0.219852 11.0647 0.128203 10.8306 0.0821011C10.5509 0.0251344 10.2659 -0.00233104 9.98047 0.000154764H6.90655ZM8.34054 1.11549H9.68456C9.80856 1.11495 9.93236 1.12561 10.0544 1.14733C10.1656 1.16578 10.2724 1.20436 10.3697 1.26115C10.462 1.31596 10.5378 1.39457 10.5893 1.48876C10.6486 1.60438 10.6768 1.73339 10.6713 1.86318C10.6713 2.13784 10.589 2.33624 10.4243 2.4584C10.2398 2.5866 10.0183 2.65058 9.79384 2.64048L8.34054 2.64164V1.11549ZM9.99252 3.61786C10.2297 3.62285 10.4601 3.69731 10.6554 3.83202C10.8428 3.97542 10.9368 4.21444 10.9376 4.54903C10.9431 4.69419 10.9139 4.83856 10.8522 4.9701C10.7974 5.0757 10.7167 5.16574 10.6178 5.23186C10.5134 5.2981 10.3976 5.34441 10.2764 5.36842C10.1442 5.39563 10.0096 5.40936 9.87463 5.40939L8.34054 5.41168V3.61922H9.90423C9.93364 3.6177 9.96308 3.61724 9.99252 3.61786Z" fill="var(--fill-0, white)"/>
</g>
</svg>
