<svg preserveAspectRatio="none" width="100%" height="100%" overflow="visible" style="display: block;" viewBox="0 0 13.75 9.65426" fill="none" xmlns="http://www.w3.org/2000/svg">
<g id="Group">
<path id="Shape" d="M13.4627 8.14671C13.3045 8.74014 12.8387 9.20744 12.247 9.36603C11.1748 9.65426 6.875 9.65426 6.875 9.65426C6.875 9.65426 2.57526 9.65426 1.50296 9.36603C0.911375 9.20744 0.445434 8.74014 0.287323 8.14671C0 7.07117 0 4.82713 0 4.82713C0 4.82713 0 2.58311 0.287323 1.50747C0.445434 0.914118 0.911375 0.446825 1.50296 0.288162C2.57526 0 6.875 0 6.875 0C6.875 0 11.1748 0 12.247 0.288162C12.8387 0.446825 13.3045 0.914118 13.4627 1.50747C13.75 2.58311 13.75 4.82713 13.75 4.82713C13.75 4.82713 13.75 7.07117 13.4627 8.14671Z" fill="var(--fill-0, #ED1D24)"/>
<path id="Shape_2" d="M5.46907 2.78961L9.06282 4.82693L5.46907 6.86445V2.78961Z" fill="var(--fill-0, white)"/>
</g>
</svg>
