<svg preserveAspectRatio="none" width="100%" height="100%" overflow="visible" style="display: block;" viewBox="0 0 13.75 13.75" fill="none" xmlns="http://www.w3.org/2000/svg">
<g id="Vector">
<path id="Vector_2" d="M13.75 6.875C13.75 10.6727 10.674 13.75 6.87788 13.75C3.07604 13.7558 0 10.6784 0 6.875C0 3.07732 3.07604 0 6.87212 0C10.674 0 13.75 3.07732 13.75 6.875Z" fill="var(--fill-0, #FF0000)"/>
<path id="Vector_3" d="M11.3784 6.86401C11.3784 9.34777 9.3623 11.3647 6.87958 11.3647C4.39687 11.3647 2.38074 9.34777 2.38074 6.86401C2.38074 4.38025 4.39687 2.36328 6.87958 2.36328C9.3623 2.36328 11.3784 4.37449 11.3784 6.86401Z" fill="var(--fill-0, white)"/>
<path id="Vector_4" d="M9.12856 6.91038C9.12856 8.15514 8.12049 9.16939 6.87049 9.16939C5.62625 9.16939 4.61243 8.1609 4.61243 6.91038C4.61243 5.66562 5.62049 4.65137 6.87049 4.65137C8.12049 4.65137 9.12856 5.65985 9.12856 6.91038Z" fill="var(--fill-0, #FF0000)"/>
</g>
</svg>
