<svg preserveAspectRatio="none" width="100%" height="100%" overflow="visible" style="display: block;" viewBox="0 0 15 15.0091" fill="none" xmlns="http://www.w3.org/2000/svg">
<path id="path147" d="M2.94247 9.98109L5.89405 8.32501L5.94368 8.18117L5.89405 8.10116H5.75022L5.25694 8.07077L3.57046 8.02519L2.10784 7.96441L0.690796 7.88845L0.334257 7.81248L0 7.37187L0.0344389 7.15207L0.334257 6.9505L0.763725 6.98798L1.71281 7.05281L3.13694 7.15106L4.1701 7.21183L5.70059 7.37086H5.94368L5.97812 7.2726L5.89506 7.21183L5.83024 7.15106L4.35647 6.15234L2.76116 5.0969L1.92552 4.48916L1.47377 4.18124L1.24586 3.89256L1.14761 3.26254L1.55784 2.81079L2.10885 2.84827L2.24965 2.88575L2.80775 3.31522L3.99993 4.23796L5.55676 5.38456L5.78466 5.57398L5.87582 5.50915L5.88696 5.46357L5.78466 5.29239L4.93788 3.7619L4.03437 2.20508L3.63225 1.55986L3.5259 1.17294C3.48842 1.01391 3.46107 0.880208 3.46107 0.717132L3.92802 0.0830583L4.18631 0L4.80924 0.0830583L5.07158 0.31096L5.45851 1.19623L6.08549 2.58998L7.05787 4.48511L7.34249 5.04727L7.49443 5.5679L7.55115 5.72692H7.6494V5.63576L7.72942 4.56817L7.8773 3.25748L8.02114 1.571L8.07077 1.09596L8.30576 0.526706L8.77271 0.218786L9.13735 0.393005L9.43717 0.822472L9.39564 1.10001L9.21737 2.25876L8.86792 4.07387L8.64002 5.28935H8.77271L8.92464 5.13742L9.53947 4.32102L10.5726 3.02958L11.0284 2.51705L11.5602 1.95084L11.9015 1.68141H12.5468L13.0218 2.3874L12.8091 3.11669L12.1446 3.95942L11.5936 4.67351L10.8036 5.73705L10.3103 6.58789L10.3559 6.65575L10.4734 6.64461L12.2581 6.26477L13.2224 6.09055L14.373 5.89304L14.8936 6.13613L14.9504 6.38328L14.7458 6.88872L13.5151 7.19259L12.0717 7.48126L9.92234 7.98974L9.89601 8.00898L9.9264 8.04646L10.8947 8.13762L11.309 8.1599H12.3229L14.211 8.3007L14.7042 8.62685L15 9.02593L14.9504 9.3298L14.1907 9.71673L13.1656 9.47363L10.7732 8.90438L9.95273 8.69978H9.83929V8.76764L10.523 9.43615L11.7759 10.5676L13.3449 12.0261L13.4249 12.3867L13.2234 12.6714L13.0107 12.641L11.6321 11.6038L11.1003 11.1368L9.89601 10.1229H9.81599V10.2293L10.0935 10.6354L11.5592 12.8385L11.6352 13.5141L11.5288 13.7339L11.149 13.8666L10.7317 13.7906L9.87373 12.5863L8.98845 11.23L8.27436 10.0145L8.18725 10.0642L7.76589 14.6029L7.56837 14.8349L7.11257 15.0091L6.73273 14.7204L6.53116 14.2535L6.73273 13.3307L6.97583 12.1264L7.17334 11.1692L7.35161 9.98008L7.45796 9.58505L7.45088 9.55871L7.36377 9.56986L6.46735 10.8005L5.10399 12.643L4.02525 13.7977L3.76697 13.9L3.31927 13.668L3.36079 13.2538L3.61098 12.8851L5.10399 10.9859L6.00446 9.8089L6.58586 9.12925L6.58181 9.031H6.54737L2.58188 11.6058L1.87589 11.6969L1.57202 11.4123L1.60949 10.9454L1.75333 10.7934L2.94551 9.97299L2.94145 9.97704L2.94247 9.98109Z" fill="var(--fill-0, white)"/>
</svg>
