<svg preserveAspectRatio="none" width="100%" height="100%" overflow="visible" style="display: block;" viewBox="0 0 13.75 13.75" fill="none" xmlns="http://www.w3.org/2000/svg">
<g id="Group">
<path id="Vector" d="M6.875 0C3.09375 0 0 3.09375 0 6.875C0 10.6563 3.09375 13.75 6.875 13.75C10.6563 13.75 13.75 10.6563 13.75 6.875C13.75 3.09375 10.6563 0 6.875 0Z" fill="var(--fill-0, black)"/>
<path id="Vector_2" d="M6.875 0C3.09375 0 0 3.09375 0 6.875C0 10.6563 3.09375 13.75 6.875 13.75C10.6563 13.75 13.75 10.6563 13.75 6.875C13.75 3.09375 10.6563 0 6.875 0ZM3.38021 9.39583C3.15104 9.45313 2.92188 9.28125 2.86458 9.05208C2.80729 8.82292 2.97917 8.59375 3.20833 8.53646C5.84375 7.96354 8.07812 8.19271 9.91146 9.28125C10.1406 9.39583 10.1979 9.68229 10.026 9.85417C9.91146 10.0833 9.625 10.1406 9.45313 9.96875C7.84896 9.05208 5.78646 8.82292 3.38021 9.39583ZM10.8854 8.02083C10.7135 8.25 10.4271 8.36458 10.1406 8.19271C8.30729 7.04688 5.5 6.70312 3.26563 7.39063C2.97917 7.44792 2.69271 7.33333 2.57813 7.04688C2.52083 6.76042 2.63542 6.47396 2.92188 6.35938C5.44271 5.61458 8.53646 5.95833 10.6563 7.27604C10.9427 7.44792 11 7.79167 10.8854 8.02083ZM10.9427 6.07292C8.70833 4.75521 5.04167 4.64063 2.97917 5.32813C2.63542 5.38542 2.23438 5.21354 2.17708 4.86979C2.0625 4.52604 2.23438 4.18229 2.57813 4.06771C4.98438 3.32292 9.05208 3.49479 11.5729 4.98438C11.8594 5.15625 11.974 5.55729 11.8021 5.84375C11.6302 6.1875 11.2292 6.30208 10.9427 6.07292Z" fill="var(--fill-0, #1ED760)"/>
</g>
</svg>
