<svg preserveAspectRatio="none" width="100%" height="100%" overflow="visible" style="display: block;" viewBox="0 0 12.7757 13.75" fill="none" xmlns="http://www.w3.org/2000/svg">
<g id="Group">
<path id="Vector" d="M11.8792 11.1348C11.7828 11.8506 11.3012 12.47 10.6268 12.7453C10.2963 12.8828 9.93858 12.9242 9.58067 12.8828C9.23665 12.8415 8.89249 12.7314 8.53472 12.5252C8.03917 12.2496 7.54363 11.8231 6.96558 11.1899C7.87404 10.0751 8.42444 9.05648 8.63097 8.14831C8.72735 7.72151 8.7411 7.3361 8.69985 6.97819C8.64485 6.63417 8.52097 6.31751 8.32819 6.04224C7.90154 5.42295 7.18586 5.06504 6.38754 5.06504C5.58922 5.06504 4.87354 5.4367 4.44688 6.04224C4.25411 6.31751 4.13036 6.63417 4.07522 6.97819C4.02022 7.3361 4.03397 7.73526 4.14411 8.14831C4.3505 9.05648 4.91479 10.0888 5.80949 11.2035C5.2452 11.8368 4.73591 12.2635 4.24036 12.5388C3.88259 12.7453 3.53843 12.8554 3.19441 12.8965C2.82275 12.9379 2.46484 12.8828 2.14832 12.759C1.47389 12.4838 0.99223 11.8642 0.895844 11.1485C0.854594 10.8045 0.882094 10.4605 1.01973 10.0751C1.06098 9.9373 1.12987 9.79994 1.19862 9.63467C1.295 9.41453 1.40514 9.18037 1.51514 8.94635L1.52902 8.91899C2.47859 6.86806 3.49718 4.77601 4.55702 2.73911L4.59827 2.65634C4.70841 2.45009 4.8184 2.22995 4.92868 2.02343C5.03868 1.80316 5.16256 1.59663 5.31395 1.41761C5.60297 1.0872 5.98838 0.908316 6.41504 0.908316C6.8417 0.908316 7.22711 1.0872 7.51613 1.41761C7.66751 1.59663 7.7914 1.80316 7.90154 2.02343C8.01167 2.22995 8.12167 2.45009 8.23181 2.65634L8.27319 2.73911C9.31915 4.78976 10.3377 6.88181 11.2874 8.93274V8.94635C11.3976 9.16662 11.4938 9.41453 11.604 9.63467C11.6728 9.79994 11.7416 9.9373 11.7828 10.0751C11.893 10.4328 11.9342 10.7771 11.8792 11.1348ZM6.38754 10.4878C5.64436 9.55203 5.16256 8.67108 4.99743 7.92803C4.92868 7.61137 4.91479 7.3361 4.95618 7.08833C4.98368 6.86806 5.06631 6.67528 5.17631 6.51001C5.43784 6.13876 5.87824 5.90433 6.38754 5.90433C6.89683 5.90433 7.35099 6.12474 7.59876 6.51001C7.70876 6.67528 7.7914 6.86806 7.8189 7.08833C7.86015 7.3361 7.8464 7.62512 7.77765 7.92803C7.61251 8.65746 7.13072 9.53828 6.38754 10.4878ZM12.5949 9.77216C12.5262 9.60703 12.4573 9.42814 12.3885 9.27676C12.2784 9.02912 12.1683 8.79496 12.0719 8.57469L12.0581 8.56108C11.1086 6.4964 10.09 4.40436 9.01637 2.34009L8.97513 2.25731C8.86499 2.05079 8.75485 1.83052 8.64485 1.61038C8.50708 1.36247 8.36944 1.10123 8.14931 0.853316C7.70876 0.302772 7.07572 0 6.40129 0C5.71311 0 5.09381 0.302772 4.63952 0.825954C4.43313 1.07359 4.28175 1.33511 4.14411 1.58302C4.03397 1.80316 3.92384 2.02343 3.8137 2.22995L3.77245 2.31231C2.71275 4.37686 1.68041 6.46904 0.730708 8.53358L0.716958 8.56108C0.620571 8.78121 0.510435 9.0151 0.400298 9.26301C0.331549 9.41453 0.262662 9.57967 0.193913 9.75855C0.0148898 10.2677 -0.0401097 10.7495 0.0286397 11.2449C0.180163 12.2773 0.868344 13.1445 1.81805 13.5297C2.17582 13.6813 2.54748 13.75 2.93289 13.75C3.04302 13.75 3.18066 13.7362 3.29079 13.7224C3.74495 13.6672 4.21286 13.5161 4.66702 13.2545C5.23145 12.9379 5.76824 12.4838 6.37379 11.8231C6.97933 12.4838 7.52988 12.9379 8.08042 13.2545C8.53472 13.5161 9.00263 13.6672 9.45678 13.7224C9.56692 13.7362 9.70456 13.75 9.81469 13.75C10.2001 13.75 10.5854 13.6813 10.9295 13.5297C11.893 13.1445 12.5674 12.2635 12.7188 11.2449C12.8289 10.7631 12.7738 10.2816 12.5949 9.77216Z" fill="var(--fill-0, white)"/>
</g>
</svg>
