<svg preserveAspectRatio="none" width="100%" height="100%" overflow="visible" style="display: block;" viewBox="0 0 13.7274 13.75" fill="none" xmlns="http://www.w3.org/2000/svg">
<g id="Group">
<path id="Vector" d="M6.86935 0C3.07566 0 0 3.07566 0 6.86935C0 9.78104 1.80921 12.2687 4.36472 13.2694C4.30253 12.7267 4.25164 11.8899 4.38734 11.2963C4.51172 10.7591 5.19017 7.88137 5.19017 7.88137C5.19017 7.88137 4.98664 7.46865 4.98664 6.86369C4.98664 5.9082 5.54071 5.19583 6.23047 5.19583C6.81846 5.19583 7.10115 5.63682 7.10115 6.16262C7.10115 6.75062 6.728 7.63261 6.53012 8.45241C6.36616 9.13651 6.875 9.69624 7.5478 9.69624C8.76902 9.69624 9.70755 8.40718 9.70755 6.55273C9.70755 4.90748 8.52591 3.75977 6.83542 3.75977C4.87922 3.75977 3.7315 5.2241 3.7315 6.73931C3.7315 7.3273 3.95765 7.96053 4.24034 8.30541C4.29688 8.37325 4.30253 8.43544 4.28557 8.50329C4.23468 8.71813 4.11595 9.1874 4.09334 9.28351C4.06507 9.40789 3.99157 9.43616 3.86153 9.37397C3.00216 8.97255 2.46505 7.72307 2.46505 6.71104C2.46505 4.54564 4.0368 2.55551 7.00504 2.55551C9.38528 2.55551 11.2397 4.25164 11.2397 6.52447C11.2397 8.8934 9.74712 10.7987 7.67784 10.7987C6.98242 10.7987 6.32658 10.4369 6.10609 10.0072C6.10609 10.0072 5.76121 11.3189 5.6764 11.6411C5.52375 12.2404 5.10537 12.9867 4.82268 13.4447C5.46721 13.6426 6.14566 13.75 6.85804 13.75C10.6517 13.75 13.7274 10.6743 13.7274 6.88065C13.7387 3.07566 10.663 0 6.86935 0Z" fill="var(--fill-0, #E60023)"/>
</g>
</svg>
