<svg preserveAspectRatio="none" width="100%" height="100%" overflow="visible" style="display: block;" viewBox="0 0 19.9998 20.0006" fill="none" xmlns="http://www.w3.org/2000/svg">
<g id="Group">
<path id="Vector" d="M9.77516e-05 17.912H19.9998V0H9.77516e-05V17.912Z" fill="var(--fill-0, white)"/>
<path id="Vector_2" d="M0 17.9126H19.9995V20.0006H0.00019292L0 17.9126Z" fill="var(--fill-0, #FF322E)"/>
<path id="Vector_3" d="M5.33763 4.71367L2.43346 13.425H4.53616L6.50875 7.26752L7.49743 10.3459H6.21848L5.70772 12.1032H8.0618L8.48628 13.425H10.6491L7.74526 4.71367H5.33763ZM13.9533 4.71367H10.9344V13.425H13.0221V6.47099H13.8634C14.8395 6.47099 15.3952 6.93647 15.3952 7.77761C15.3952 8.60369 14.8395 9.08434 13.8634 9.08434H13.7282V10.8416H13.9533C16.2062 10.8416 17.5279 9.70754 17.5279 7.77761C17.5279 5.81007 16.2062 4.71367 13.9533 4.71367Z" fill="var(--fill-0, black)"/>
</g>
</svg>
