<svg preserveAspectRatio="none" width="100%" height="100%" overflow="visible" style="display: block;" viewBox="0 0 13.75 13.75" fill="none" xmlns="http://www.w3.org/2000/svg">
<g id="Group">
<path id="Vector" d="M6.87527 13.4739C10.5203 13.4739 13.4753 10.519 13.4753 6.87393C13.4753 3.22885 10.5203 0.273926 6.87527 0.273926C3.23019 0.273926 0.275269 3.22885 0.275269 6.87393C0.275269 10.519 3.23019 13.4739 6.87527 13.4739Z" fill="var(--fill-0, #EA4C89)"/>
<path id="Vector_2" fill-rule="evenodd" clip-rule="evenodd" d="M6.875 0C3.07959 0 0 3.07959 0 6.875C0 10.6704 3.07959 13.75 6.875 13.75C10.663 13.75 13.75 10.6704 13.75 6.875C13.75 3.07959 10.663 0 6.875 0ZM11.4161 3.16906C12.2363 4.16824 12.7284 5.44334 12.7434 6.82281C12.5495 6.78552 10.6108 6.39033 8.65714 6.63638C8.61239 6.53946 8.57511 6.43505 8.53038 6.33066C8.41107 6.04732 8.27684 5.75651 8.14263 5.48061C10.305 4.60074 11.2893 3.33311 11.4161 3.16906ZM6.875 1.0141C8.36633 1.0141 9.73089 1.57334 10.7674 2.49051C10.663 2.63964 9.77562 3.82525 7.68778 4.60819C6.72587 2.84097 5.65957 1.39439 5.49553 1.17069C5.93546 1.0663 6.39778 1.0141 6.875 1.0141ZM4.37704 1.56589C4.53362 1.77467 5.57755 3.22872 6.55436 4.95865C3.81033 5.68939 1.38693 5.67449 1.12595 5.67449C1.50623 3.85507 2.73658 2.34138 4.37704 1.56589ZM0.999186 6.88245C0.999186 6.82281 0.999186 6.76316 0.999186 6.7035C1.25271 6.71095 4.10114 6.74824 7.03159 5.86836C7.20309 6.19645 7.35967 6.53199 7.50881 6.86755C7.43424 6.88992 7.35222 6.91229 7.27765 6.93465C4.25028 7.91148 2.63964 10.5809 2.50543 10.8046C1.57334 9.76817 0.999186 8.3887 0.999186 6.88245ZM6.875 12.7508C5.5179 12.7508 4.26518 12.2885 3.27345 11.513C3.37785 11.2968 4.57091 9.00013 7.88164 7.84436C7.89656 7.83691 7.90401 7.83691 7.91893 7.82944C8.74661 9.96949 9.08216 11.7665 9.17163 12.281C8.46326 12.5868 7.68778 12.7508 6.875 12.7508ZM10.1485 11.7442C10.0888 11.3863 9.77563 9.67123 9.0076 7.56102C10.8494 7.2702 12.46 7.74742 12.6613 7.81454C12.4078 9.44753 11.4683 10.8568 10.1485 11.7442Z" fill="var(--fill-0, #C32361)"/>
</g>
</svg>
