<svg preserveAspectRatio="none" width="100%" height="100%" overflow="visible" style="display: block;" viewBox="0 0 15 15.2094" fill="none" xmlns="http://www.w3.org/2000/svg">
<g id="Group">
<path id="Vector" d="M15 7.5C15 3.35786 11.6421 0 7.5 0C3.35786 0 0 3.35786 0 7.5C0 11.6421 3.35786 15 7.5 15C11.6421 15 15 11.6421 15 7.5Z" fill="var(--fill-0, white)"/>
<path id="Vector_2" d="M0 7.5C0 3.35787 3.35787 0 7.5 0C11.6421 0 15 3.35787 15 7.5C15 11.6421 11.6421 15 7.5 15C3.35787 15 0 11.6421 0 7.5Z" fill="url(#paint0_radial_88349_21973)"/>
<g id="Group_2" filter="url(#filter0_di_88349_21973)">
<path id="Vector_3" d="M6.12476 8.68109L6.6097 8.56913C6.6199 8.56676 6.63673 8.56289 6.65733 8.55626C6.79113 8.52029 6.90573 8.43383 6.97706 8.31506C7.04836 8.19629 7.0708 8.05449 7.03963 7.91956C7.03896 7.91659 7.0383 7.91379 7.03763 7.91083C7.02166 7.84616 6.9937 7.78503 6.95523 7.73066C6.90083 7.66176 6.83356 7.60416 6.75713 7.56099C6.66713 7.50973 6.57296 7.46619 6.47563 7.43083L5.94373 7.23689C5.64526 7.12606 5.34676 7.01803 5.0455 6.91266C4.85013 6.84323 4.68456 6.78229 4.54073 6.73786C4.5136 6.72949 4.48363 6.72116 4.4593 6.71276C4.2854 6.65953 4.16323 6.63746 4.05986 6.63673C3.9908 6.63419 3.92203 6.64673 3.85833 6.67346C3.79193 6.70209 3.7323 6.74439 3.68333 6.79759C3.659 6.82526 3.6361 6.85419 3.61476 6.88423C3.59473 6.91486 3.5764 6.94653 3.55976 6.97909C3.54146 7.01406 3.52573 7.05029 3.51273 7.08756C3.4142 7.37899 3.3652 7.68489 3.3678 7.99253C3.36973 8.27066 3.3774 8.62763 3.53056 8.86959C3.5675 8.93169 3.617 8.98536 3.67593 9.02716C3.785 9.10236 3.89516 9.11226 4.00976 9.12049C4.18106 9.13279 4.34696 9.09073 4.51233 9.05256L6.1234 8.68063L6.12476 8.68109Z" fill="var(--fill-0, white)"/>
<path id="Vector_4" d="M11.5346 6.10803C11.402 5.8304 11.2238 5.57697 11.0074 5.3582C10.9795 5.33043 10.9495 5.30473 10.9178 5.28133C10.8885 5.25937 10.858 5.23897 10.8266 5.2202C10.7943 5.2025 10.761 5.18653 10.727 5.17237C10.6597 5.146 10.5876 5.13413 10.5154 5.1375C10.4464 5.1414 10.3791 5.1603 10.3181 5.19287C10.2256 5.2388 10.1256 5.31263 9.99254 5.43627C9.97418 5.4545 9.95104 5.4751 9.93031 5.4945C9.82054 5.59767 9.69844 5.72483 9.55314 5.87293C9.32868 6.09967 9.10764 6.32767 8.88794 6.55813L8.49488 6.9656C8.42288 7.04003 8.35734 7.12047 8.29894 7.20597C8.24921 7.27827 8.21404 7.35953 8.19541 7.44527C8.18461 7.51103 8.18624 7.57823 8.20021 7.64337C8.20088 7.64633 8.20151 7.64913 8.20221 7.6521C8.23334 7.78707 8.31568 7.90467 8.43184 7.98013C8.54798 8.05563 8.68891 8.0831 8.82494 8.05677C8.84648 8.05367 8.86324 8.04997 8.87338 8.04747L10.9701 7.5634C11.1354 7.52523 11.303 7.49027 11.4515 7.40417C11.551 7.34647 11.6457 7.2893 11.7106 7.17393C11.7453 7.11053 11.7663 7.0406 11.7722 6.9686C11.8042 6.6831 11.6548 6.35887 11.5346 6.10803Z" fill="var(--fill-0, white)"/>
<path id="Vector_5" d="M7.7825 6.9887C7.9343 6.79803 7.93376 6.5138 7.94723 6.28146C7.9925 5.50516 8.04023 4.72873 8.07793 3.952C8.09233 3.6578 8.1239 3.36756 8.1062 3.07114C8.09163 2.82658 8.0897 2.5458 7.935 2.34511C7.66196 1.99121 7.08023 2.02031 6.6833 2.07522C6.56173 2.09209 6.4399 2.11476 6.3191 2.14374C6.1983 2.17272 6.07873 2.20437 5.96173 2.24181C5.5809 2.36646 5.04556 2.59526 4.95513 3.03369C4.90416 3.28155 5.02543 3.5351 5.11953 3.7613C5.2336 4.03546 5.38933 4.28246 5.53126 4.54056C5.90653 5.22196 6.28876 5.8991 6.6699 6.57696C6.7837 6.77933 6.9078 7.03563 7.12786 7.14046C7.1424 7.1468 7.15726 7.15243 7.17236 7.15726C7.27103 7.1946 7.37856 7.20176 7.48133 7.1779C7.48753 7.17646 7.4936 7.17506 7.49966 7.17366C7.59456 7.1479 7.68046 7.09633 7.74783 7.02473C7.76 7.01333 7.77156 7.0013 7.7825 6.9887Z" fill="var(--fill-0, white)"/>
<path id="Vector_6" d="M7.60021 9.0668C7.54084 8.98343 7.45664 8.92097 7.35964 8.88833C7.26261 8.85567 7.15777 8.85453 7.06007 8.88507C7.03711 8.89267 7.01474 8.90193 6.99314 8.9128C6.95974 8.9298 6.92784 8.94967 6.89787 8.97213C6.81051 9.03683 6.73697 9.12087 6.67004 9.20513C6.65304 9.22663 6.63754 9.25527 6.61734 9.27363L6.28034 9.73707C6.08934 9.99673 5.90094 10.257 5.71414 10.5214C5.59227 10.6921 5.48684 10.8363 5.40357 10.9639C5.38781 10.9879 5.37141 11.0147 5.35644 11.0361C5.25664 11.1905 5.20014 11.3031 5.17114 11.4035C5.14937 11.4702 5.14251 11.5408 5.15104 11.6104C5.16037 11.683 5.18484 11.7527 5.22291 11.8152C5.24314 11.8465 5.26494 11.8768 5.28824 11.9059C5.31244 11.9339 5.33814 11.9606 5.36524 11.9859C5.39414 12.0134 5.42511 12.0388 5.45777 12.0618C5.69067 12.2235 5.94557 12.3398 6.21371 12.4296C6.43681 12.5036 6.66871 12.5479 6.90341 12.5613C6.94331 12.5633 6.98334 12.5624 7.02314 12.5587C7.06004 12.5555 7.09671 12.5503 7.13307 12.5433C7.16941 12.5348 7.20524 12.5244 7.24044 12.5121C7.30897 12.4865 7.37134 12.4468 7.42357 12.3956C7.47301 12.3461 7.51101 12.2864 7.53501 12.2208C7.57394 12.1237 7.59951 12.0004 7.61624 11.8174C7.61771 11.7914 7.62141 11.7602 7.62397 11.7316C7.63721 11.5798 7.64321 11.4014 7.65284 11.1918C7.66917 10.8693 7.68191 10.5482 7.69194 10.2262L7.71327 9.6537C7.71817 9.52187 7.71401 9.37573 7.67734 9.24447C7.66121 9.1815 7.63517 9.12153 7.60021 9.0668Z" fill="var(--fill-0, white)"/>
<path id="Vector_7" d="M11.4081 9.96083C11.3376 9.88373 11.2379 9.80683 11.0805 9.71183C11.0578 9.69917 11.0312 9.68227 11.0066 9.66757C10.8755 9.58887 10.7177 9.5061 10.5334 9.4061C10.2501 9.2508 9.96671 9.09943 9.68064 8.94933L9.17514 8.68163C9.14894 8.67397 9.12231 8.65507 9.09761 8.64317C9.00051 8.5968 8.89757 8.5535 8.79071 8.53367C8.75391 8.5266 8.71654 8.5227 8.67904 8.5221C8.65487 8.5218 8.63071 8.52327 8.60674 8.5265C8.50574 8.54213 8.41221 8.58923 8.33957 8.66113C8.26691 8.733 8.21877 8.826 8.20207 8.9268C8.19441 8.99093 8.19681 9.05587 8.20914 9.11927C8.23394 9.2536 8.29404 9.38647 8.35624 9.50283L8.62637 10.0081C8.77671 10.293 8.92884 10.5763 9.08477 10.8587C9.18537 11.043 9.26911 11.2006 9.34754 11.3313C9.36241 11.3559 9.37924 11.3823 9.39197 11.4051C9.48741 11.5622 9.56407 11.661 9.64181 11.7319C9.69214 11.7805 9.75247 11.8174 9.81857 11.8402C9.88807 11.8632 9.96161 11.8714 10.0344 11.8642C10.0715 11.8598 10.1082 11.8534 10.1446 11.8451C10.1804 11.8355 10.2157 11.824 10.2503 11.8107C10.2877 11.7967 10.324 11.7799 10.3589 11.7606C10.564 11.6457 10.753 11.5043 10.9211 11.3399C11.1227 11.1417 11.3009 10.9254 11.4394 10.6779C11.4587 10.6429 11.4754 10.6065 11.4893 10.5691C11.5024 10.5345 11.5137 10.4992 11.5232 10.4634C11.5313 10.427 11.5376 10.3903 11.5419 10.3532C11.5488 10.2805 11.5403 10.2072 11.517 10.138C11.4941 10.0717 11.4569 10.0112 11.4081 9.96083Z" fill="var(--fill-0, white)"/>
</g>
</g>
<defs>
<filter id="filter0_di_88349_21973" x="1.25006" y="0.453897" width="12.6441" height="14.7555" filterUnits="userSpaceOnUse" color-interpolation-filters="sRGB">
<feFlood flood-opacity="0" result="BackgroundImageFix"/>
<feColorMatrix in="SourceAlpha" type="matrix" values="0 0 0 0 0 0 0 0 0 0 0 0 0 0 0 0 0 0 127 0" result="hardAlpha"/>
<feOffset dy="0.529412"/>
<feGaussianBlur stdDeviation="1.05882"/>
<feColorMatrix type="matrix" values="0 0 0 0 0.804167 0 0 0 0 0 0 0 0 0 0 0 0 0 0.55 0"/>
<feBlend mode="normal" in2="BackgroundImageFix" result="effect1_dropShadow_88349_21973"/>
<feBlend mode="normal" in="SourceGraphic" in2="effect1_dropShadow_88349_21973" result="shape"/>
<feColorMatrix in="SourceAlpha" type="matrix" values="0 0 0 0 0 0 0 0 0 0 0 0 0 0 0 0 0 0 127 0" result="hardAlpha"/>
<feOffset dy="0.688235"/>
<feGaussianBlur stdDeviation="0.661765"/>
<feComposite in2="hardAlpha" operator="arithmetic" k2="-1" k3="1"/>
<feColorMatrix type="matrix" values="0 0 0 0 1 0 0 0 0 0 0 0 0 0 0.18 0 0 0 0.25 0"/>
<feBlend mode="normal" in2="shape" result="effect2_innerShadow_88349_21973"/>
</filter>
<radialGradient id="paint0_radial_88349_21973" cx="0" cy="0" r="1" gradientUnits="userSpaceOnUse" gradientTransform="translate(7.5 -1.74706) rotate(90) scale(17.9118)">
<stop stop-color="#FF78A1"/>
<stop offset="0.512574" stop-color="#FE375C"/>
<stop offset="1" stop-color="#FF0000"/>
</radialGradient>
</defs>
</svg>
