<svg preserveAspectRatio="none" width="100%" height="100%" overflow="visible" style="display: block;" viewBox="0 0 8.33354 12.5" fill="none" xmlns="http://www.w3.org/2000/svg">
<g id="Group">
<path id="Path" d="M2.08352 12.5C3.23352 12.5 4.16686 11.5667 4.16686 10.4167V8.33332H2.08352C0.933524 8.33332 0.000190735 9.26665 0.000190735 10.4167C0.000190735 11.5667 0.933524 12.5 2.08352 12.5Z" fill="var(--fill-0, #0ACF83)"/>
<path id="Path_2" d="M0.000190735 6.25001C0.000190735 5.10001 0.933524 4.16668 2.08352 4.16668H4.16686V8.33335H2.08352C0.933524 8.33335 0.000190735 7.40001 0.000190735 6.25001Z" fill="var(--fill-0, #A259FF)"/>
<path id="Path_3" d="M0 2.08333C0 0.933333 0.933333 0 2.08333 0H4.16667V4.16667H2.08333C0.933333 4.16667 0 3.23333 0 2.08333Z" fill="var(--fill-0, #F24E1E)"/>
<path id="Path_4" d="M4.16687 0H6.2502C7.4002 0 8.33354 0.933333 8.33354 2.08333C8.33354 3.23333 7.4002 4.16667 6.2502 4.16667H4.16687V0Z" fill="var(--fill-0, #FF7262)"/>
<path id="Path_5" d="M8.33354 6.25001C8.33354 7.40001 7.4002 8.33335 6.2502 8.33335C5.1002 8.33335 4.16687 7.40001 4.16687 6.25001C4.16687 5.10001 5.1002 4.16668 6.2502 4.16668C7.4002 4.16668 8.33354 5.10001 8.33354 6.25001Z" fill="var(--fill-0, #1ABCFE)"/>
</g>
</svg>
