<svg preserveAspectRatio="none" width="100%" height="100%" overflow="visible" style="display: block;" viewBox="0 0 20 20" fill="none" xmlns="http://www.w3.org/2000/svg">
<g id="Group">
<path id="Vector" d="M16.4912 0H3.50877C1.57093 0 0 1.57093 0 3.50877V16.4912C0 18.4291 1.57093 20 3.50877 20H16.4912C18.4291 20 20 18.4291 20 16.4912V3.50877C20 1.57093 18.4291 0 16.4912 0Z" fill="var(--fill-0, black)"/>
<path id="Vector_2" d="M20 13.7642V15.5806C19.8859 15.5916 19.7687 15.5973 19.6484 15.5973C17.5012 15.5973 16.2923 13.8087 16.2402 11.5708C16.2386 11.4842 16.2392 11.3983 16.2411 11.3129C16.2423 11.2596 16.2444 11.2065 16.2471 11.1536C16.2484 11.1254 16.2498 11.0988 16.2519 11.0692C16.254 11.0396 16.2561 11.01 16.2586 10.9804C16.3359 9.99227 16.654 9.11299 17.1791 8.46241C17.5052 8.05854 17.8971 7.75085 18.3416 7.54506C18.732 7.34852 19.2807 7.24004 19.7279 7.24004H19.7473C19.832 7.24004 19.9162 7.24288 20 7.24846V7.74821C19.9111 7.72385 19.816 7.71079 19.7148 7.70911C18.8103 7.72776 18.2712 8.81126 18.2041 10.3125H20V10.7356H18.1635L18.1629 10.7359C18.0801 12.1986 18.8807 13.4348 20 13.7642Z" fill="var(--fill-0, white)"/>
<path id="Vector_3" d="M16.3304 4.77783L16.3462 4.77437V4.65224H13.1253L10.1346 11.6813L7.14391 4.65224H3.67303V4.77437L3.68861 4.77783C4.2765 4.91052 4.57498 5.10841 4.57498 5.82208V14.1772C4.57498 14.8909 4.27535 15.0887 3.68746 15.2214L3.67188 15.2249V15.3474H6.02676V15.2253L6.01119 15.2218C5.42328 15.0891 5.1248 14.8912 5.1248 14.1776V6.30673L8.96666 15.3474H9.18455L13.1383 6.0546V14.3839C13.088 14.9476 12.7922 15.1216 12.2599 15.2418L12.2441 15.2455V15.3667H16.3462V15.2455L16.3304 15.2418C15.7975 15.1216 15.4946 14.9476 15.4442 14.3839L15.4415 5.82208H15.4442C15.4442 5.10841 15.7427 4.91052 16.3304 4.77783Z" fill="var(--fill-0, white)"/>
</g>
</svg>
