<svg preserveAspectRatio="none" width="100%" height="100%" overflow="visible" style="display: block;" viewBox="0 0 13.7502 9.05357" fill="none" xmlns="http://www.w3.org/2000/svg">
<g id="Group">
<path id="Vector" d="M3.22418 0H0V9.0535H3.22418L4.52675 7.75093V5.15144L3.90319 4.52788L4.52675 3.90432V1.30257L3.22418 0ZM1.35802 3.84774V1.35802H2.6606L3.16872 1.86615V3.34074L2.6606 3.84774M2.6606 5.20576L3.16872 5.71389V7.18848L2.6606 7.6966H1.35802V5.20689" fill="var(--fill-0, white)"/>
<path id="Vector_2" d="M13.75 9.0535L12.6251 4.8572L13.5802 3.90206V1.30257L12.2777 0H9.05349V9.0535H10.4115V5.20576H11.361L12.392 9.0535H13.75ZM10.4115 1.35802H11.7141L12.2222 1.86615V3.34074L11.7141 3.84887H10.4115V1.35802Z" fill="var(--fill-0, white)"/>
<path id="Vector_3" d="M5.65845 4.85833V6.45853L7.92182 4.19516V2.59495L5.65845 4.85833Z" fill="var(--fill-0, white)"/>
</g>
</svg>
